<svg xmlns="http://www.w3.org/2000/svg" width="97" height="40" fill="none" viewBox="0 0 97 40"><path fill="#fff" d="M2.92 40H0V9.38a24.04 24.04 0 0 1 7.23-1.15 11.46 11.46 0 0 1 8.3 3c1 .92 1.78 2.08 2.32 3.39.53 1.3.77 2.76.77 4.3 0 1.93-.31 3.54-1 4.85a8.47 8.47 0 0 1-2.54 3.3A10.23 10.23 0 0 1 11.46 29a15.08 15.08 0 0 1-8.61 0v11h.07Zm12.39-21.08c0-2.46-.7-4.38-2.08-5.92-1.38-1.54-3.3-2.23-5.77-2.23-.77 0-1.54.08-2.3.15-.78.08-1.54.31-2.24.54v14.92c.7.24 1.39.39 2.08.54.7.16 1.38.23 2.08.23 2.54 0 4.46-.69 6-2.15 1.46-1.38 2.23-3.38 2.23-6.08ZM24.54 29.54V0h2.92v29.54h-2.92ZM51.62 26.46c-1 1.08-2.16 1.85-3.39 2.46-1.3.54-2.85.85-4.7.85-1.68 0-3.15-.3-4.45-.85a9.57 9.57 0 0 1-3.16-2.3c-.84-1-1.46-2.08-1.92-3.39a13.6 13.6 0 0 1-.62-4c0-1.85.24-3.46.77-4.85A10.51 10.51 0 0 1 36.23 11a7.91 7.91 0 0 1 3-2 9.85 9.85 0 0 1 3.7-.7c3.07 0 5.45.93 7 2.85 1.53 1.93 2.3 4.7 2.3 8.31H36.38c.08 2.39.77 4.3 2.08 5.7 1.3 1.38 3.08 2.07 5.3 2.07 1.24 0 2.4-.23 3.4-.61 1-.39 1.92-1.08 2.76-2l1.7 1.84Zm-2.39-9.61c0-.85-.15-1.7-.38-2.47a4.45 4.45 0 0 0-1.16-1.92c-.46-.54-1.15-1-1.92-1.3-.77-.31-1.7-.47-2.77-.47-1.08 0-2 .16-2.77.46-.77.31-1.38.77-1.85 1.23a9.2 9.2 0 0 0-2 4.47h12.85ZM71.54 13.38a8.4 8.4 0 0 0-2.39-2.07 6.29 6.29 0 0 0-3.07-.62c-1.54 0-2.54.23-3.16.77a2.59 2.59 0 0 0-.92 2c0 .54.15 1.08.38 1.46.31.39.62.77 1.08 1 .46.31 1 .54 1.62.77.61.23 1.23.39 1.84.62.77.23 1.62.54 2.39.84.77.31 1.54.7 2.15 1.16a5.07 5.07 0 0 1 2.23 4.38 5.38 5.38 0 0 1-2.3 4.46c-.7.54-1.54.93-2.47 1.16-.92.23-2 .38-3.07.38-1.7 0-3.16-.3-4.47-.84a10.8 10.8 0 0 1-3.69-2.7l2.31-2a7.15 7.15 0 0 0 6 2.93c1.62 0 2.77-.31 3.54-.93.77-.61 1.15-1.3 1.15-2.15 0-.62-.15-1.15-.38-1.62-.31-.46-.7-.84-1.16-1.15-.46-.3-1.07-.54-1.69-.77-.61-.23-1.3-.38-2-.61-.77-.23-1.61-.47-2.38-.77A8.83 8.83 0 0 1 61 18a5.4 5.4 0 0 1-1.54-1.7 5.16 5.16 0 0 1-.61-2.53c0-1.85.69-3.3 2-4.3a8.61 8.61 0 0 1 5.23-1.55c1.54 0 2.92.23 4.07.77a9.87 9.87 0 0 1 3.47 2.7l-2.08 2ZM79.38 29.54V.08h2.93v29.46h-2.93Zm2.93-10.92L92.46 8.46h4L86.08 18.62l10.3 11h-4.07l-10-11Z"/><path fill="#39B6E8" d="M34.77 40H17v-2.77h17.77V40Z"/></svg>
