<svg xmlns="http://www.w3.org/2000/svg" version="1.1" viewBox="0 0 1046 1696"><style>.st0{fill:#242a35}.st1{fill:#4b4f59}.st2{fill:#fff}.st3{fill:#f9a545}.st4{fill:#eb793c}.st5{opacity:.24}.st6{fill:#5f6470}.st7{opacity:.39}.st8{fill:#1f232d}.st9{fill:#363c4d}.st11{fill:#ffe2ca}.st12{fill:#231f20}.st13{fill:#434a5b}.st14{fill:#dfe6ed}.st15{fill:#53bce6}.st16{fill:#848599}.st17{opacity:.36}.st18{fill:#ef7e4b}.st19{fill:#f99532}.st21{fill:#895628}.st22{fill:#e2e3ed}.st23{opacity:.08}.st24{fill:#414756}.st25{opacity:.28}.st26{opacity:.41}.st29{display:none}.st31{fill:#3e5265}.st32{display:inline;fill:#f0f0f5}</style><path d="M635.1 1430.2s65.5 30.7 76.2 135.4c3 30.6-43.8 74.3-74.1 63.6 0 0-39.5-17.6-73.5-89.7-34-72.2 71.4-109.3 71.4-109.3z"/><path d="M647.2 1631.3c-3.6 0-7-.6-10.2-1.7-.4-.2-40-18.4-73.7-90a59.6 59.6 0 0 1-2.4-50c16.4-39.2 73.5-59.7 74-59.9h.4c.2.1 16.7 8 34.3 28.6 16.2 19 36.7 53 42.2 107.3 1.8 18.2-13.2 38.8-28.9 51.1a60.5 60.5 0 0 1-35.7 14.6zM635 1430.7c-3.7 1.4-57.5 21.7-73.2 59.3a58.6 58.6 0 0 0 2.3 49.3c33.4 71 72.8 89.2 73.2 89.4 12.4 4.4 29.2-.4 44.9-12.7 18.6-14.7 30-34.9 28.5-50.3-5.5-54-25.8-87.8-42-106.7a116.9 116.9 0 0 0-33.7-28.3z"/><path d="m667.7 1485.6-7-16.1a140 140 0 0 0-66.3-69.9L426.1 1316l-59.7 47.8 187.2 171.7 114.1-49.9z"/><path d="m553.5 1536-.2-.2-187.7-172 60.4-48.4 168.6 83.8a140.7 140.7 0 0 1 66.7 70l7.1 16.7-.4.2-114.5 50zM367.2 1364l186.5 171 113.4-49.5-6.8-15.7a139.7 139.7 0 0 0-66.1-69.6l-168-83.6-59 47.4z"/><path d="M570.1 1578c-4.9 0-9.5-2-13-5.6l-123.6-126.8a17.9 17.9 0 0 1-4.6-16.9c4.5-18.2 20-60.6 67-61.2h.3c3.8 0 7.4 1.2 10.5 3.5A4394.9 4394.9 0 0 0 658 1477.2c5.5 3.5 8.6 9.5 8.2 16a18 18 0 0 1-9.8 15.2c-25 12.8-57.5 33.4-70.2 59.5-3 6.2-9.1 10-16 10z" class="st0"/><path d="M496.2 1369.6c3.4 0 6.6 1 9.3 3 19.3 14 102.8 74.8 151.4 106.3a16 16 0 0 1-1.4 27.7c-24.3 12.4-58 33.5-71.1 60.5a16 16 0 0 1-25.8 4l-123.7-127a16 16 0 0 1-4-15c4.5-18.4 19.7-59 65.1-59.5h.2m0-4h-.2c-48.5.5-64.5 44-69 62.6-1.7 6.8.2 13.8 5 18.8l123.7 126.8a20 20 0 0 0 32.3-5c12.5-25.6 44.6-46 69.3-58.6a20 20 0 0 0 11-16.9c.3-7.2-3-13.9-9.2-17.8A4389 4389 0 0 1 508 1369.4a19.8 19.8 0 0 0-11.7-3.9z"/><path d="M541.6 1554.6a1 1 0 0 1-1-.6 37.1 37.1 0 0 1 2.8-31.2c11.1-19.8 40.2-35 86.5-45a1 1 0 0 1 .4 2c-45.7 10-74.3 24.7-85.2 44a35.2 35.2 0 0 0-2.5 29.5 1 1 0 0 1-1 1.3z" class="st1"/><path d="M524.2 1536.3a1 1 0 0 1-1-1c-.4-7 .9-21.1 14.3-35.4 16.3-17.4 45.2-29.6 86-36.5a1 1 0 1 1 .3 2c-40.3 6.8-68.8 18.9-84.9 36a45.5 45.5 0 0 0-13.7 33.8c0 .5-.4 1-1 1z" class="st1"/><path d="M547.4 1565a1 1 0 0 1-.8-.5 39 39 0 0 1-3.8-34.3c8.6-22.4 38.6-39.3 89-50.1a1 1 0 0 1 .4 2c-49 10.5-79.2 27.4-87.5 48.8a36.8 36.8 0 0 0 3.5 32.4 1 1 0 0 1-.8 1.6z"/><path d="M526.7 1543a1 1 0 0 1-1-.8c-.2-.6-3.9-14.7 6.8-31.4 9.7-15.1 33.6-35.3 92.8-45.2a1 1 0 1 1 .3 2c-58.4 9.8-81.9 29.5-91.3 44.2a40.3 40.3 0 0 0-6.7 30 1 1 0 0 1-1 1.2z"/><path d="M497.5 1515.4c-.5-.1-49-14.5-90.6-37.4-55.8-30.8-101.4-94.7-129.8-142.8a763.8 763.8 0 0 1-48.6-97.8c-1.9-3.6-30.3-60.3-6.4-99.7 14.4-23.8 44.9-35.8 90.4-35.8 8 0 16.3.3 25.1 1 36.2 3 213.5 178.5 221 186l.2.1c.1.2 15.4 18.8 26.7 47 10.5 26 19.7 65.8 4.2 107.4-4 10.8-9 20.9-14.8 30.1a6.8 6.8 0 0 1-6 3.4c-7.7 0-19.5-10.8-31.9-22.2-10.4-9.6-22.2-20.4-27.8-20.4-.4 0-.8 0-1 .2-43 20-47 26-47.4 27 5 12 18 25 27.3 34.5s13.4 13.8 12.7 17c-.2 1-.9 1.9-2 2.4l-.6.2-.7-.2z" class="st2"/><path d="M312.5 1103.9c7.8 0 16 .3 25 1 35.8 3 219.7 185.4 219.7 185.4s60.3 73 30.6 152.4c-4.2 11.2-9.2 21-14.6 29.8a4.7 4.7 0 0 1-4.3 2.4c-13.6 0-46.7-42.6-59.7-42.6-.7 0-1.4.1-2 .4-21.4 10-50.4 24.5-48.3 29.5 9.6 22.8 46 48.5 39.2 51.3 0 0-48.3-14.2-90.2-37.3-107.3-59.2-177.6-239.7-177.6-239.7S161.5 1104 312.5 1104m0-4c-46.3 0-77.3 12.3-92.1 36.7-10.4 17-12.5 40-6.2 66.7 4.4 18.8 11.5 33 12.4 34.9a767 767 0 0 0 48.8 98c18.1 30.7 37 57.7 56.4 80.2a277.4 277.4 0 0 0 74.1 63.3 523 523 0 0 0 91 37.7l1.4.4 1.3-.6a5.3 5.3 0 0 0 3.2-3.8c.9-4.2-2.7-8.1-13.2-18.8-9-9.1-21.3-21.5-26.5-32.8 1.8-2 9.8-8.7 45.9-25.5h.2c4.8 0 17.3 11.5 26.4 19.8 15.5 14.2 25.4 22.8 33.3 22.8 3.3 0 6-1.5 7.7-4.3 5.9-9.3 10.9-19.6 15-30.5 7-18.7 9.6-38.5 8-59a171 171 0 0 0-12.2-49.9 195.5 195.5 0 0 0-27-47.5l-.2-.1-.2-.2a3594 3594 0 0 0-96.5-91.7 1402.7 1402.7 0 0 0-74.1-63.7c-34.2-26.8-45.8-30.6-51.6-31-8.9-.8-17.3-1.1-25.3-1.1z"/><path d="M498 1513.5c6.9-2.8-29.5-28.5-39.1-51.3-2-5 26.9-19.6 48.4-29.5 12.6-5.9 56.5 54.8 65.9 39.8a165 165 0 0 0 14.6-29.8c17.7-47.5-92.2-176.6-92.2-176.6S374.7 1126.6 340 1117.2c-163.2-44.2-99.5 112.3-99.5 112.3s60.1 187.5 167.4 246.7a514.2 514.2 0 0 0 90.2 37.3z" class="st3"/><path d="M343.6 1105.3c-163.1-44.2-103.1 124.2-103.1 124.2s2.1 6.7 6.4 18a91 91 0 0 0 5.7 3.4c29 15.5 69 12.2 90.3-13 6.9-8.1 12.4-18.7 22.6-22.1 11.9-4 24.2 3.9 34.3 11.3 37.6 27.7 75.5 55.7 104.9 92 26.7 36.6 46.7 72.7 42.4 119-15.9-12-32.5-23-53-16-10 3.6-18.4 10.7-27.5 16.3-33.7 20.6-12.6 24.7-14.3 39.8-.6 5-6.2 9.6-10.7 14.5a540 540 0 0 0 56.5 20.8c6.8-2.8-29.6-28.5-39.2-51.3-2-5 26.9-19.6 48.4-29.5 12.6-5.9 56.5 54.8 65.9 39.8 5.4-8.7 10-18.8 14.6-29.8 27.3-65.7-71.4-175-71.4-175s-138-153-172.8-162.4z" class="st4"/><path d="M481.6 1508.7h-.2c-29.7-15.4-60.4-42.2-91.3-79.8-24.8-30-49.7-66.9-74.1-109.6a1230.6 1230.6 0 0 1-68-139l-.2-.4 33-14.5c.3-.1.6 0 .7.3.1.2 0 .5-.3.6l-32 14.1c2.3 6 27.9 68.8 67.7 138.4 38.3 67 98 154.3 165 189a.5.5 0 0 1-.3.9zM581.4 1459.4l-.3-.1a741.3 741.3 0 0 1-133.6-101.8 615.7 615.7 0 0 1-81.5-96.3c-39-57.5-51.5-99.5-51.6-100a.5.5 0 1 1 1-.2c0 .4 12.6 42.3 51.5 99.7 35.9 52.9 102.3 130.2 214.7 197.7a.5.5 0 0 1-.2 1zM586.1 1350.9c-.2 0-.3-.1-.4-.3-41-71.3-214.5-215.7-216.2-217.1a.5.5 0 1 1 .6-.8c1.8 1.5 175.4 146 216.5 217.4a.5.5 0 0 1-.5.8z"/><path d="M352 1363.2c-2.7 0-5.5 0-8.4-.3a.5.5 0 0 1 .1-1c55.4 4.4 71.2-36 71.3-36.5a.5.5 0 0 1 1 .4s-4 10.5-15 20.3c-9 8-24.6 17.1-49 17.1z"/><path d="M476.5 1450.5h-.2c-.5-.2-44.9-22.6-92.5-92.6a.5.5 0 1 1 .9-.5c47.4 69.7 91.6 92 92 92.2a.5.5 0 0 1-.2 1zM379.3 1159.5l47.5 45.3a39 39 0 0 1 11 18.9l2.7 11c1.3 5.5-5.4 9.2-9.3 5.3l-65.2-65c-2-1.9-2.2-5-.5-7.1l5.5-7.7c2-2.7 6-3 8.3-.7z"/><path d="M435 1243.7c-1.9 0-3.8-.8-5.3-2.3l-65.1-64.9a7.5 7.5 0 0 1-.8-9.8l5.6-7.7a7.6 7.6 0 0 1 11.3-1l47.5 45.3a41 41 0 0 1 11.5 19.9l2.7 11c.9 3.4-.6 6.7-3.6 8.4-1.2.7-2.5 1-3.8 1zm-59.5-83.7a3.5 3.5 0 0 0-2.9 1.4l-5.5 7.7c-1 1.4-.9 3.3.3 4.5l65.2 65a3.4 3.4 0 0 0 4.2.5c1.1-.6 2.2-2 1.7-3.9l-2.7-11a37 37 0 0 0-10.4-18L378 1161c-.7-.7-1.6-1-2.5-1z"/><path d="M225.9 1171.3c1 12.1 2.7 29 15.3 35.2 7.5 3.7 18.8 1.6 27 1.3 11.7-.5 23.4-1.7 35-3.8 8.5-1.6 18.8-6.7 27-7.1 7.4-.4 9.2 6.4 15.6 8.5 4.1 1.3 8.7-.6 11.8-3.6 16.3-16.2 36.6-43.3 25.3-67.2a63.7 63.7 0 0 0-26.8-26.8c-30-17.2-66-16.5-97.1-3.1-9.5 4-21.2 7.8-27 17-8.3 13.2-7.3 34.9-6.1 49.6z" class="st5"/><path d="m296.4 986.7-91.5-4.6-7.6 61.5 44 107.6 99.8-31.2z"/><path d="m241 1151.8-.1-.4-44.2-107.7v-.1l7.7-62 92.3 4.6 45 134.1-100.6 31.5zm-43.2-108.2 43.8 107 98.9-31L296 987.3l-90.7-4.6-7.5 61z"/><path d="M343.2 1170.8c-2 0-3.7-1.3-4.4-3.5-16.6-50.9-46.6-106.5-58.8-128a24 24 0 0 0-19.9-12.4l-35.9-1.7h-.5c-4.6 0-8.8 3-10.1 7.5l-9.7 32.3-2.3-2c-45-38.4 6.3-175.3 31-241.1 3.8-10.1 6.8-18.1 8.6-23.5v-.1c1.1-2.8 27.5-69 62-69 26.7 0 50 39.3 69.3 117 19.2 77.5 24.8 151.7 16.1 214.6-7 51.6-22.3 86.2-34.2 101.4-4.4 5.6-8.2 8.5-11.2 8.5z" class="st2"/><path d="M303.3 731.3c21.2 0 45.3 27 67.2 115.5 52.5 211.8-12.7 322-27.3 322-1.2 0-2-.7-2.5-2-16.3-50.4-45.4-104.6-59-128.6a26.2 26.2 0 0 0-21.5-13.3l-35.9-1.7h-.6c-5.5 0-10.4 3.6-12 9l-8.8 29.2c-50.9-43.3 27-222.7 40.2-262.4 0 0 26.5-67.7 60.2-67.7m0-4c-36 0-62.8 67.4-64 70.2V797.8a775 775 0 0 1-8.6 23.4c-24.8 66.2-76.5 204-30.4 243.3l4.7 4 1.8-6 8.7-29.2a8.6 8.6 0 0 1 8.6-6.1l36 1.8a22 22 0 0 1 18.2 11.2c12 21.5 42 77 58.6 127.8 1 3 3.3 4.8 6.3 4.8 3.7 0 8-3 12.8-9.2 12-15.5 27.5-50.5 34.7-102.4 4-29.2 5-60.7 3-93.8a678 678 0 0 0-19.3-121.6c-10.3-41.6-21.9-72.6-34.4-92.1-11.2-17.6-23.6-26.5-36.7-26.5z"/><path d="M270.9 782c-14.9 39.4-118.9 236-68 279.4l8.8-29.3c1.6-5.5 6.8-9.2 12.6-9l36 1.8c9 .5 17 5.5 21.5 13.3 13.5 24 42.6 78.2 59 128.5 6 18.8 57.2-105.4 16.8-337.2C335.4 702 270.9 782 270.9 782z" class="st3"/><path d="M357.6 829.5C335.4 702 270.9 782 270.9 782c-3.7 11.2-10.6 21.3-15.5 31.9-6.1 13-10.8 26.9-16.1 40.2 8.5-3.6 18.3.3 26.1 5.1 26 15.9 43.9 41.3 51.5 70.5a235 235 0 0 1 6.7 85.7c-.4 3.5-1.4 7.6-4.7 8.7-3 1-6.1-1.4-8.5-3.6-14-12.8-30-33.5-49.6-37.8-18.9-4.1-41.6-6-59.5 2.6a55 55 0 0 0-9 5.5c-5.8 31.6-4.5 57.8 10.6 70.6l8.8-29.3c1.6-5.5 6.8-9.2 12.6-9l36 1.8c9 .5 17 5.5 21.5 13.3 13.5 24 42.6 78.2 59 128.5 6 18.8 57.2-105.4 16.8-337.2z" class="st4"/><path d="M264.4 845.7c57 40.3 94.2 72.4 125.9 136.4a645.7 645.7 0 0 0-17-123.6 265 265 0 0 0-63.3-64.8 147.7 147.7 0 0 0-51.6-25C248.8 784.4 243 799 243 799c-1.7 5-4.3 12.1-7.6 21 5 5 23.1 21.6 29 25.7z" class="st5"/><path d="M324.7 1131.4h-.2a.5.5 0 0 1-.3-.8c.2-.2 11.7-24.3 21.2-64.8a498.2 498.2 0 0 0 9.6-167.5c0-.3.1-.5.4-.6.3 0 .5.2.6.5 8 70.8-.9 130.4-9.7 167.8-9.5 40.7-21 64.8-21.1 65-.1.3-.3.4-.5.4z"/><path d="M343.3 1076.1c-.1 0-.3 0-.4-.2l-57.8-61a41.3 41.3 0 0 0-28.8-12.8l-33.6-.8A26 26 0 0 0 201 1012l-13.5 18.5a.5.5 0 0 1-.8-.6l13.5-18.5a27 27 0 0 1 22.5-11.1l33.6.8c11 .3 21.8 5 29.5 13.1l57.9 61a.5.5 0 0 1-.4.9z"/><path d="M262.5 1002.3a.5.5 0 0 1-.5-.5c0-1 1.2-104.5 36.6-145a.5.5 0 1 1 .7.8c-35.1 40-36.3 143.2-36.3 144.2 0 .3-.2.5-.5.5zM215.6 1001a.5.5 0 0 1-.5-.4c-6.6-68.8 48.3-170.1 48.8-171.2a.5.5 0 0 1 .9.5c-.6 1-55.2 102-48.7 170.6 0 .3-.2.5-.5.5z"/><path d="M248.5 1187.3c-8.1 0-15-5.8-16.3-13.8a252.1 252.1 0 0 0-25.2-76.7 63.4 63.4 0 0 1-.8-60.8 9.9 9.9 0 0 1 9-4.7l45.2 2.6c4.7.3 8.9 3.1 10.8 7.5l45.1 74.5c6.1 10.9 7.3 23.8 3.2 35.6l-8 23.6-.2.2a16.6 16.6 0 0 1-12.7 7.9l-48.7 4-1.4.1z" class="st2"/><path d="M214.6 1033.3h.5l45.2 2.6c4 .3 7.5 2.7 9.1 6.4l45.2 74.6a41.7 41.7 0 0 1 3 34l-8 23.3c-2.4 4-6.6 6.6-11.2 7l-48.7 4-1.2.1c-7 0-13.1-5-14.3-12.1-2.9-17.4-9.9-49-25.5-77.4-17.4-31.7-.7-58.8-.7-58.8 1.4-2.3 3.9-3.7 6.6-3.7m0-4c-4 0-8 2.1-10 5.6a65.5 65.5 0 0 0 .7 62.8 250.1 250.1 0 0 1 24.9 76.1 18.5 18.5 0 0 0 19.8 15.5l48.8-4.1c5.8-.5 11.2-3.8 14.2-8.9l.3-.3.1-.4 8-23.5c4.3-12.3 3-25.8-3.3-37.1v-.1l-45-74.5c-2.4-5-7.2-8.2-12.6-8.5l-45.2-2.6h-.7z"/><path d="m249.7 1185.3 48.7-4.1c4.6-.4 8.8-3 11.2-7l8-23.4a41.7 41.7 0 0 0-3-33.9l-45.2-74.6a10.7 10.7 0 0 0-9.1-6.4l-45.2-2.6a7.8 7.8 0 0 0-7.1 3.7s-16.7 27 .7 58.8c15.6 28.4 22.6 60 25.5 77.4 1.2 7.4 8 12.7 15.5 12z" class="st6"/><path d="m309.6 1174.2 8-23.4a41.7 41.7 0 0 0-3-33.9l-45.2-74.6a10.7 10.7 0 0 0-9.1-6.4l-45.2-2.6a7.8 7.8 0 0 0-7.1 3.7s-3.9 6.3-6 16.3a99.3 99.3 0 0 1 29.1-2.2c4.2.5 9.8 0 12.7 3.7 3.4 4.4 2 13.7 2.5 18.8 1.6 17.4 6.9 34.4 15.5 49.5 1.7 3 3.6 6 4.5 9.2 1 3.3.9 7-1.1 9.9-3.3 4.7-11.6 2.7-16.6 2.5a62 62 0 0 1-21.6-3.5c3.6 12.6 5.8 23.8 7.2 32 1.2 7.4 8 12.7 15.5 12l48.7-4c4.6-.4 8.8-3 11.2-7z" class="st1"/><path d="M285 1184a.5.5 0 0 1-.4-.4c-2-5-3.3-10-4-15.4-1.1-9.6-8.2-39.9-21.8-66.7-19.1-37.9 3.8-63.8 4-64a.5.5 0 0 1 .8.6c-.2.3-22.7 25.7-3.9 63a243.8 243.8 0 0 1 22 67 59 59 0 0 0 3.8 15.1.5.5 0 0 1-.5.7zM303.3 1181.9a.5.5 0 0 1-.5-.4c-18.4-65.5 3.5-79.8 4.4-80.4.2-.1.5 0 .7.2.1.2 0 .5-.2.7-.2.1-22.1 14.6-3.9 79.2a.5.5 0 0 1-.5.7z"/><ellipse cx="310.8" cy="1139.2" rx="10.8" ry="4" transform="rotate(-85.4 310.7 1139.2)"/><path d="m526.3 740 7.8 59.2c1.5 11.6 1 23.4-1.3 34.9l-19.4 94a8.5 8.5 0 0 1-7.1 6.7c-22.7 3.4-45.8-.9-65.8-12.1-62.1-34.9-195-113-195-142.3L526.3 740z"/><path d="M491.1 936.4c-17.7 0-35.3-4.5-50.9-13.3A1878.4 1878.4 0 0 1 319.4 850c-49.3-33.2-74.4-56.6-74.4-69.5v-.5h.5l281.2-40.5 7.9 59.7a105 105 0 0 1-1.3 35l-19.4 94a9 9 0 0 1-7.6 7.2c-5 .7-10.1 1.1-15.2 1.1zm-245-155.6c1.3 29.7 136.4 108.7 194.6 141.5 19.8 11 43 15.3 65.5 12a8 8 0 0 0 6.7-6.3l19.4-94a104 104 0 0 0 1.3-34.8l-7.7-58.7L246 780.8z"/><path d="M561.4 846.3c.2-5.4-.1-10.9-.8-16.3l-7.8-59.2-290.4 5.6c0 8-1.8 37.3 50.7 68.7 38 19.3 85.5 32 188.5 14.6 24.4-4 44-8.6 59.8-13.4z" class="st7"/><path d="M80.2 857.4h-3l-.5-.5c-1-.8-25.2-20.1-23.9-48.7v-1.5l46-11.7c1-.4 4.3-1.7 9-1.7 9 0 22.4 4.5 34.5 25.8l.6 1-.6 1c-.2.4-21.9 36.3-62.1 36.3z"/><path d="M107.8 795.3c8.1 0 21 4 32.8 24.8 0 0-20.9 35.3-60.4 35.3h-2.3S53.6 836 55 808.1L99.4 797s3.3-1.6 8.3-1.6m0-4c-4.9 0-8.4 1.3-9.6 1.8l-44.4 11.2-2.9.8-.1 3c-1.3 29.6 23.6 49.6 24.6 50.4l1 .8h1.4a69.7 69.7 0 0 0 50-18.5 84.3 84.3 0 0 0 16.3-18.6l1.1-2-1.1-2c-12.6-22.2-26.7-26.9-36.3-26.9z"/><path d="M124.4 847c-13-4.4-21.7-11.2-25.7-20.2a30.2 30.2 0 0 1-.4-22.7l.5-1.1h1.3l2-.1a47 47 0 0 1 42.9 27.5l.5 1.4-20 15.6-1-.4z" class="st2"/><path d="M102 804.9c30.7 0 41 26.3 41 26.3l-18 14c-36.8-12.6-24.9-40.3-24.9-40.3h2m0-4h-4.7l-1 2.4c-.2.5-5 12 .4 24.3 4.3 9.6 13.3 16.7 27 21.3l2 .7 1.7-1.3 18-14 2.5-1.8-1.2-2.8a48.3 48.3 0 0 0-44.8-28.8z"/><path d="M143 831.2s-10.8-27.4-42.9-26.3c0 0-12 27.7 25 40.2l18-14z" class="st8"/><path d="M136.2 835.5s-4-31.7-36-30.6c0 0-12 27.7 24.9 40.2l11.1-9.6z" class="st9"/><path d="M142.2 868.5c-3.8 0-6.8-.8-7-.8h-.1l-.2-.1c-.9-.4-21.1-9.9-22.4-25.4-1.7-20.4 21.7-25.5 22-25.6l.6-.1.6.3c1 .4 22.4 10.6 23.8 33.1.3 6-1 10.6-4 13.8-3 3.1-7.6 4.8-13.3 4.8z" class="st2"/><path d="M134.9 818.6s21.2 9.9 22.5 31.5c.9 14-8.5 16.4-15.2 16.4-3.6 0-6.5-.7-6.5-.7s-20-9.2-21.2-23.8c-1.6-18.8 20.4-23.4 20.4-23.4m.5-4.2-1.3.2a39 39 0 0 0-12.2 5.3 23.5 23.5 0 0 0-11.4 22.4C111.9 859 133 869 134 869.4l.4.2h.3c.2.1 3.4 1 7.5 1 6.3 0 11.4-2 14.7-5.5 3.4-3.6 5-8.8 4.6-15.3-1.5-23.7-24-34.4-25-34.9l-1.1-.5z"/><path d="M135.7 865.8s23 5.8 21.7-15.8c-1.3-21.5-22.5-31.4-22.5-31.4s-22 4.6-20.4 23.4c1.2 14.6 21.2 23.8 21.2 23.8z" class="st8"/><path d="M135.7 865.8s18.7 8.8 17.4-12.7c-1.3-21.6-20.7-32.3-20.7-32.3s-19.5 2.4-17.9 21.2c1.2 14.6 21.2 23.8 21.2 23.8z" class="st9"/><path d="M113.2 857c-12-8-18.9-17.4-20.5-27.5-2-12.9 5-22.3 5.4-22.7l.8-1 1.3.3a49.9 49.9 0 0 1 37.5 40l.2 1.5-23.8 10-1-.6z" class="st2"/><path d="M99.7 808a47.5 47.5 0 0 1 36 38.3l-21.4 9c-33.5-22.7-14.6-47.2-14.6-47.2m-1.6-4.6-1.6 2.1c-.3.4-8 10.5-5.8 24.2 1.7 10.7 9 20.5 21.3 28.9l1.8 1.2 2-.8 21.5-9 2.8-1.3-.4-3a51.7 51.7 0 0 0-39-41.6l-2.6-.7z"/><path d="M135.7 846.3s-3.8-30.5-36-38.2c0 0-19 24.5 14.6 47.3l21.4-9z" class="st8"/><path d="M130.3 851.5s-2-35.5-30.6-43.4c0 0-19 24.5 14.6 47.3l16-3.9z" class="st9"/><path d="M131.8 884.5a30 30 0 0 1-13.1-3.7l-.2-.1-.1-.1c-.8-.6-18.4-15.7-15.8-31.6 2.4-14.5 15.5-19.6 27-19.6h2l.5.5c.8.6 19.4 16.8 15 39.7-2.2 12.3-9.5 14.9-15.3 14.9z" class="st2"/><path d="M129.7 831.4h1s18.7 15.8 14.5 37.9c-2 10.4-7.8 13.1-13.4 13.1-6.2 0-12.1-3.4-12.1-3.4s-17.6-14.7-15.1-29.7c2.7-16.8 20.5-18 25-18m0-4c-12.3 0-26.4 5.6-29 21.4-2.8 17 15.7 32.8 16.5 33.4l.2.3.4.1c.2.2 7 4 14.1 4 5.3 0 14.7-2.2 17.4-16.5 4.5-24-15-41-15.8-41.7l-1-.8-1.4-.1h-1.3z"/><path d="M119.7 879s21.4 12.3 25.5-9.7c4.2-22-14.4-37.9-14.4-37.9s-23-1.4-26.2 18c-2.5 14.9 15 29.6 15 29.6z" class="st8"/><path d="M119.7 879s18 13 22.1-9-16.4-36.7-16.4-36.7-17.7-3.3-20.8 16c-2.5 15 15 29.7 15 29.7z" class="st9"/><path d="M100.2 863.6c-10.7-9.7-16.2-19.8-16.4-30.1-.3-13 8-21.4 8.4-21.7l1-1 1.1.5a49.9 49.9 0 0 1 31.8 44.8v1.5l-25 6.7-.9-.7z" class="st2"/><path d="M93.6 813.2C124.4 825.3 124 856 124 856l-22.5 6c-30.1-27-8-48.8-8-48.8m-1-4.7-1.8 1.8c-.4.4-9.4 9.3-9 23.2.2 10.9 6 21.5 17 31.6l1.7 1.4 2.1-.5 22.5-6 3-.9v-3a51.7 51.7 0 0 0-33-46.6l-2.5-1z"/><path d="M124 856s.4-30.7-30.4-42.8c0 0-22.1 21.7 8 48.9l22.5-6z" class="st8"/><path d="M115.9 858.8s.2-31.2-22.3-45.6c0 0-22.1 21.7 8 48.9l14.3-3.3z" class="st9"/><path d="M117.4 893.5a28 28 0 0 1-15-5.6l-.1-.2h-.1c-.7-.8-16.1-18.2-11.3-33.6 4.3-14 17-16 24.3-16 3.7 0 6.3.5 6.4.5l.6.2.5.5c.7.7 17 19.3 9.5 41.4-3.5 10.6-10 12.8-14.8 12.8z" class="st2"/><path d="M115.2 840.1c3.5 0 6 .5 6 .5s16.2 18.2 9.1 39.5c-3 8.8-8 11.3-13 11.3-7 0-13.6-5.1-13.6-5.1s-15.4-17-11-31.6c4-12.5 15.4-14.6 22.5-14.6m0-4c-13.4 0-22.8 6.2-26.3 17.4-5 16.5 11 34.7 11.8 35.5l.2.2.3.3c.3.2 7.9 6 16.2 6 5.5 0 12.8-2.5 16.7-14.1 7.8-23.3-9.2-42.7-10-43.5l-.8-1-1.3-.3c-.1 0-2.9-.5-6.8-.5z"/><path d="M103.7 886.3s19.5 15 26.6-6.2c7.1-21.3-9.1-39.5-9.1-39.5s-22.6-4.6-28.4 14.1c-4.5 14.5 10.9 31.6 10.9 31.6z" class="st8"/><path d="M103.7 886.3s17.2 15.5 24.3-5.8c7.1-21.2-11.4-38.8-11.4-38.8s-18-5.7-23.8 13c-4.5 14.5 10.9 31.6 10.9 31.6z" class="st9"/><path d="M80.3 866.8c-8.7-11.5-12.2-22.5-10.5-32.7a31.3 31.3 0 0 1 12.4-19.7l1.1-.7 1.1.7a49.9 49.9 0 0 1 22.7 50l-.3 1.4-25.8 1.9-.7-1z" class="st2"/><path d="M83.3 816.1c28 17.8 21.8 47.8 21.8 47.8L82 865.6c-24.4-32.4 1.4-49.5 1.4-49.5m0-4.8-2.2 1.4c-.4.3-11 7.4-13.2 21C66 844.6 69.7 856 78.7 868l1.3 1.8 2.2-.2 23.2-1.6 3-.2.7-3a51.7 51.7 0 0 0-23.6-52.1l-2.2-1.4z"/><path d="M105.1 864s6.2-30.1-21.8-47.9c0 0-25.8 17.1-1.4 49.5l23.2-1.7z" class="st8"/><path d="M91 865.1s17.5-31.4-10.4-49.1c0 0-23 17.2 1.3 49.6l9.2-.5z" class="st9"/><path d="M94.3 900.1c-8.7 0-16-8.2-16.4-8.6l-.1-.1-.1-.2c-.5-.8-12.4-20.8-4.8-35a21.7 21.7 0 0 1 20.4-11.8c6.9 0 12.5 2.3 12.7 2.4l.7.3.3.5c.5 1 13 22.2 1.5 42.6-3.7 6.6-8.5 10-14.2 10z" class="st2"/><path d="M93.3 846.4c6.6 0 12 2.3 12 2.3s12.5 21 1.4 40.5c-3.8 6.7-8.2 9-12.4 9-7.9 0-14.9-8-14.9-8s-11.8-19.7-4.7-33a19.8 19.8 0 0 1 18.6-10.8m0-4c-10 0-17.6 4.4-22.1 12.9-8.2 15.2 4.2 36 4.8 37l.1.3.3.2c.8 1 8.4 9.4 18 9.4 4.4 0 10.7-2 15.9-11 12-21.4-1-43.7-1.6-44.6l-.6-1.1-1.3-.6a39 39 0 0 0-13.5-2.5z"/><path d="M79.4 890.2s16.3 18.5 27.3-1-1.4-40.5-1.4-40.5-21.3-8.8-30.6 8.5c-7.1 13.3 4.7 33 4.7 33z" class="st8"/><path d="M79.4 890.2s10.6 17.2 21.7-2.4-2.7-40.1-2.7-40.1-14.4-7.8-23.7 9.5c-7.1 13.3 4.7 33 4.7 33z" class="st9"/><path d="M102 932.9c-2.8 0-5.3-1-7.4-2.8l-46-44.5.3-1c4-17.4 23.1-18.8 28.8-18.8l2 .1h.5l.4.3c36.1 20 35.6 45.3 32 58.5A11 11 0 0 1 102 933z" class="st2"/><path d="M77.8 867.9h1.8c34.2 19 34.8 42.3 31 56.3a9 9 0 0 1-8.7 6.7 9 9 0 0 1-6-2.3L51 885c3.6-15.8 21-17.1 26.9-17.1m0-4c-6.2 0-26.5 1.4-30.9 20.2l-.5 2.2 1.7 1.6 45 43.6.1.1h.1a13.2 13.2 0 0 0 21.3-6.3c3.7-13.9 4.3-40.1-33-61l-.8-.3-.9-.1h-2.2z"/><path d="m50.9 885 44.7 37.7c5 4.3 13.3 8 15 1.5 3.8-14 3.2-37.3-31-56.3 0 0-24.3-2-28.7 17z" class="st8"/><path d="m50.9 885 44.7 37.7c5 4.3 13.3 8 15 1.5 3.8-14-5-30.3-39.1-49.3 0 0-16.2-9-20.6 10z" class="st9"/><path d="M66.2 897.7c-1.7 0-3.3-.4-4.7-1.2-37.6-21.3-31.3-73.6-31.2-74.1l.2-1.6 39-4.5.7 1c13.7 18.4 22.2 48.4 17.1 60.5-5 12-13.3 19.9-21.1 19.9z" class="st2"/><path d="M68.6 818.4C81.9 836.4 90 866 85.5 877c-5.3 12.5-13.3 18.7-19.3 18.7-1.3 0-2.6-.4-3.7-1-36.9-20.9-30.2-72-30.2-72l36.3-4.3m1.8-4.3-2.3.3-36.3 4.2-3.1.4-.5 3.1c0 .6-1.7 13.7 1.4 29.5 4 21.4 14.8 37.5 31 46.6 1.6 1 3.5 1.5 5.6 1.5 8.6 0 17.6-8.3 23-21.1 3.5-8.5.6-22-1.5-29.4A106.5 106.5 0 0 0 71.8 816l-1.4-1.9z"/><path d="M37.4 823s-9.5 44.5 27.4 65.4c6 3.3 14.3 3.9 20.7-11.4 4.6-11.1-3.6-40.6-17-58.6l-31 4.6z" class="st8"/><path d="M37.4 823s-9.5 44.5 27.4 65.4c6 3.3 10.2 3.5 16.6-11.8 4.7-11-11-38.4-24.5-56.4L37.4 823z" class="st9"/><path d="M47.8 846.7a30 30 0 0 1-8.1-1c-5-1.5-9-5.4-10.8-10.4-11.4-34.8 5.2-50.6 6-51.3l.6-.5 59.8 1v2a62.7 62.7 0 0 1-28.7 55.4 43.5 43.5 0 0 1-18.8 4.8z" class="st2"/><path d="m36.2 785.5 57.1 1a60.2 60.2 0 0 1-27.6 53.7c-7.1 3.4-13 4.5-18 4.5-2.9 0-5.4-.4-7.5-1a14 14 0 0 1-9.3-9c-11.2-34 5.3-49.2 5.3-49.2m-1.5-4-1.2 1c-.8.7-18.4 17.4-6.5 53.4a17.9 17.9 0 0 0 12.1 11.7 32 32 0 0 0 8.7 1.1c6.2 0 12.8-1.6 19.6-4.9h.1l.1-.1a64.6 64.6 0 0 0 29.7-57.3v-3.8l-3.9-.1-57.1-1h-1.6z"/><path d="M44 790.7s-19.9 9.9-10.7 41.6a17 17 0 0 0 17.5 12.3c4-.3 9-1.6 14.9-4.4 0 0 28.8-16.2 27.6-53.7L44 790.7z" class="st8"/><path d="M42.3 789.7s-18.2 10.9-9 42.6c2.3 7.7 9.5 12 17.5 12.3 10.4.3 22.2-20.9 16.4-36.4l-24.9-18.5z" class="st9"/><path d="M69.2 816c-7 0-14-2-20.1-6a73.3 73.3 0 0 1-10.7-8.4c-6.2-5.8-10-14-10.7-22.7l-2.2-44.1 3 .3a74.5 74.5 0 0 1 27.2-5.4c38 0 59.4 32.4 60.3 33.8l.6 1-14.1 30a36.6 36.6 0 0 1-33.3 21.6z" class="st2"/><path d="M55.7 731.7c37.4 0 58.6 32.9 58.6 32.9l-13.6 29a34.7 34.7 0 0 1-50.5 14.7c-4-2.5-7.5-5.4-10.4-8.1a33.3 33.3 0 0 1-10-21.5l-2.2-41.6h1.1a72.3 72.3 0 0 1 27-5.4m0-4c-9 0-18.2 1.8-27.5 5.4h-.1l-4.8-.6.3 4.8 2 41.6v.1c.9 9.4 4.9 17.9 11.5 24 3.5 3.4 7.2 6.3 11 8.7a38.6 38.6 0 0 0 56.3-16.4l13.5-29 1-2-1.2-2c-.3-.3-5.8-8.8-16.1-17.3a71.9 71.9 0 0 0-45.9-17.3z"/><path d="m33 735.5 2.8 41.5c.8 8.1 4.3 15.9 9.9 21.5 2.7 2.8 6 5.7 9.8 8.3 17 12 38.6 5.6 46.7-13.6l12-28.6s-30.3-49.3-80.1-29h-1z" class="st3"/><path d="m77.4 745.3-.1.4c-.7 3-.6 6.3-.6 9.5.2 16-1.9 32-6.2 47.4-.5 1.8-1 3.6-.9 5.4.6 7.7 14.3 3.1 18.6 1.1a32.4 32.4 0 0 0 15.6-16.8l12-28.6A82.5 82.5 0 0 0 93.7 741c-3.5-2.5-6.6-5.7-11.2-3a11.5 11.5 0 0 0-5 7.3z" class="st4"/><path d="M80.9 778.9c-2.6 0-4.1-.2-4.2-.2-21.5-.9-37-10-47.4-27.8l-1.2-2c-3-5.1-4.4-11-4-17.8 0-3.6.7-7.3 1.9-11.2l5.1-17.5 84.5-.5 7.9 23.8v.1c.9 6 .9 28.7-5.6 38-9.5 13.6-29 15-37 15z" class="st9"/><path d="m115 703 7.5 23c1 6.4.7 28.3-5.5 37.2-9.1 13.1-27.8 14.6-36.1 14.6l-4-.1c-22.3-1-37.1-10.8-46.8-27.3l-1-2a30.6 30.6 0 0 1-4-17.3c0-3.7.8-7.4 1.8-11l5-16.7 83-.5m1.5-2h-1.5l-83 .5h-1.5l-.5 1.5-4.9 16.7c-1.2 4-1.8 7.8-2 11.5-.3 7 1.1 13 4.3 18.4l1.1 2a54.5 54.5 0 0 0 48.3 28.2c.3 0 1.8.2 4.2.2 8.1 0 28-1.5 37.8-15.5 6.6-9.5 6.8-31.8 5.8-38.7v-.4l-7.7-23-.4-1.4z"/><path d="M78.2 768.6h-2c-15.8-1.9-26.7-7.7-32.2-17.1-9-15.3-1-35.2-.9-35.4l.1-.3 61.9-4.2 5.7 17.5c.7 4.4.7 21.2-4.1 28-7.2 10.4-22.3 11.5-28.5 11.5z" class="st2"/><path d="m104.7 712.1 5.6 17.1c.7 4.8.6 21-4 27.7-7.2 10.3-22.6 11.2-28 11.2h-2.1c-51.5-6.1-32.6-51.8-32.6-51.8l61.1-4.2m.7-1h-.8l-61 4.2h-.7l-.3.6c-.3.8-8.2 20.3 1 35.8 5.6 9.6 16.5 15.5 32.5 17.4h2.1c6.2 0 21.5-1 28.9-11.6 4.8-7 5-23.3 4.2-28.4v-.1l-5.6-17.2-.3-.7z"/><path fill="#a5abb7" d="m110.3 729.2-5.6-17-48.5 3.2a22.3 22.3 0 0 0-4.5 3.2 22 22 0 0 0-6.4 18.6 28 28 0 0 0 5.9 13.6c2.8 3.6 6.7 5.7 10.6 7.9a44 44 0 0 0 20.7 5.1s9.5 1.3 18.3-1.6c2.1-1.4 4-3.2 5.5-5.3 4.6-6.6 4.7-23 4-27.7z"/><path d="m45.3 717.7.5 17.2a17 17 0 0 0 7.4 14.9l2 1.4a45 45 0 0 0 32.2 7.3c6.2-.9 11.3-5 13.4-10.9l6.5-18-62-12z"/><path d="M95.3 742.9c-11.6 0-22.4-3-32.1-9.2L32.8 714c-11.6-8-17.4-19.4-19-36.9L2.1 527.3l87.4-37 84.7 25.9 20.9 86-44.8 113.5c-4.8 11-28.5 27.2-55 27.2z" class="st2"/><path d="m89.6 492.4 82.9 25.4L193 602l-44.6 113c-4.4 10.3-27.4 25.9-53 25.9-10.3 0-21-2.5-31.1-8.9l-30.4-19.8c-12.3-8.5-16.7-20.4-18-35.4L4.2 528.6l85.3-36.2m-.2-4.3-1.4.5L2.7 525l-2.7 1 .2 3L11.8 677c1.6 18.3 7.7 30.1 19.8 38.4l30.5 20c10 6.2 21.2 9.4 33.2 9.4 12.2 0 25.1-3.4 36.5-9.6a46 46 0 0 0 20.3-18.8v-.1l44.6-112.9.5-1.2-.3-1.2-20.5-84.3-.6-2.2-2.2-.7-82.8-25.4-1.4-.4z"/><path d="m4.3 528.6 17.3 152.6c1.3 15 0 22.5 12.3 31L64.3 732c35.2 22.2 78-2.6 84.1-17L193 602l-20.5-84.2-82.9-25.4-85.3 36.2z" class="st3"/><path d="m89.1 662.6.2-7.5 7.5.9 13.6 3.6-.7 8.9-15.3-4.3z" class="st2"/><path d="m42.4 645 1.8-7.2s-8.3-4.1-8.7-5.2c-.3-1.2-11.4-10.2-12-15.9s-3.4 6.4-3.4 6.4 6.7 12 10 13.6c3.3 1.7 12.3 8.3 12.3 8.3z" class="st11"/><path d="m89.6 492.4 82.9 25.4L193 602l-44.6 113c-4.6 10.6-29 27-55.6 25.8 0 0 16.9-4.6 17-98.8a653.8 653.8 0 0 0-20.2-149.6z" class="st4"/><path d="M118.2 659.9c-6.5 0-13.5-1.3-21.5-3.9l-30.1-10.9a305 305 0 0 0-14.2-4.6c-25.5-7.9-30.7-24.3-37-50.6l-12.6-52a63 63 0 0 1 16.9-59.4l21.5-21.2L182 500.5v.6c.2.5 9.1 45.3 15.7 75.5 3.9 18-2.5 36.5-16.7 48.2-7 5.8-13.5 11-19.4 15.3-14.9 11-26.6 19.8-43.4 19.8z" class="st9"/><path d="M41.5 458.5 181 501.3s9 45 15.6 75.5a48 48 0 0 1-16.3 47.2c-6 5-12.8 10.4-19.4 15.3-15 11.2-26.3 19.6-42.8 19.6-6.2 0-13.1-1.2-21.2-3.9l-30-10.8c-4.8-1.7-9.5-3.2-14.3-4.7-25-7.6-30-23.7-36.4-49.8l-12.5-52c-5.1-21 1.2-43.3 16.6-58.5l21-20.7m-.5-2.3-.9.8-21 20.8a64 64 0 0 0-17.2 60.3l12.6 52c6.4 26.6 11.7 43.4 37.7 51.4 5.3 1.6 9.7 3 14.1 4.6l30 10.8h.1c8.1 2.7 15.3 4 21.9 4 17.2 0 29-8.8 44-20 6-4.4 12.5-9.5 19.5-15.3 14.4-12 21-30.8 17-49.3-6.6-30.1-15.5-75-15.6-75.4l-.3-1.2-1.1-.3L42 456.5l-1.2-.3z"/><path d="M115.9 643.5c-5.9 0-12.2-1.2-19.5-3.8l-26.7-10.4c-3.9-1.5-7.8-2.9-12.5-4.4-22.4-7.5-27.1-22.7-33-46.8l-11.8-48a58.3 58.3 0 0 1 14.1-54.2L45 457l124.2 41.3v.3c.1.4 8.6 41.9 14.8 69.7a44.8 44.8 0 0 1-14 43.9c-6 5.2-11.8 9.9-17 13.8-12.7 9.9-22.7 17.6-37.1 17.6z" class="st3"/><path d="m45.2 457.4 123.6 41.2s8.5 41.6 14.7 69.7c3.5 16.3-1.8 33-13.8 43.4-5.3 4.5-11.2 9.4-17 13.8-12.9 10-22.6 17.5-36.8 17.5-5.6 0-12-1.1-19.4-3.8L70 628.8c-4.1-1.6-8.3-3-12.6-4.4-22-7.4-26.7-22.3-32.6-46.4l-11.8-48a57.5 57.5 0 0 1 14-53.7l18.3-18.9m-.3-1.2-.4.5L26 475.6A58.8 58.8 0 0 0 12 530l11.7 48.1c6 24.3 10.7 39.6 33.3 47.1l12.6 4.5 26.6 10.4a59.3 59.3 0 0 0 19.7 3.8c14.6 0 24.7-7.8 37.5-17.7 5.1-4 10.8-8.6 17-13.8a45.3 45.3 0 0 0 14-44.4c-6-27.8-14.6-69.3-14.6-69.7l-.2-.5-.5-.2-123.6-41.3-.6-.2z" class="st12"/><path d="M103.6 636.9 77 626.5 64.4 622c-22.1-7.4-26.8-22.2-32.7-46.4l-11.7-48a57.5 57.5 0 0 1 14-53.7l14.8-15.3-3.6-1.2-18.3 18.9a57.5 57.5 0 0 0-14 53.6l11.8 48c5.9 24.2 10.6 39.1 32.6 46.5 4.3 1.4 8.5 2.8 12.6 4.5l26.6 10.3c15 5.3 25.4 4.7 34.8.5a48.7 48.7 0 0 1-27.7-2.8z" class="st4"/><path d="m36.8 473.9-.2 72.5c0 25 13.8 48.9 35.1 59a69.3 69.3 0 0 0 35.6 6c28.8-2.2 56.6-14.9 65-45l39-99.2-174.5 6.7z" class="st5"/><path d="m36.8 473.9-.2 72.5c0 25 13.8 48.9 35.1 59a69.3 69.3 0 0 0 35.6 6c28.8-2.2 52.6-23.2 61-53.2l24-85.5L36.8 474z"/><path d="m95 607.6 25.7-105.4L60 483 57 591c4.4 4.4 9.5 8 15 10.6 6.5 3 14.1 5.3 23 6z" class="st1"/><path d="m146 591.3 26.8-77.3-14.9 6-23 79.1c4-2.2 7.6-4.8 11-7.8z" class="st6"/><ellipse cx="129.5" cy="682.3" rx="15.2" ry="11.1" transform="rotate(-14.9 129.5 682.2)"/><ellipse cx="130.1" cy="685.8" class="st13" rx="12.8" ry="8.2" transform="rotate(-17.1 130 685.7)"/><path d="M123.4 688.3c-1.4 1.6-.4 3.7 2 4.2 2.4.4 5.5 0 8.3-1.3 2.1-1 3.7-2.5 4.6-4l-1.2-.1c-2.1-.3-4-1.2-6-1.5a9 9 0 0 0-7.7 2.7z" class="st14"/><path d="M72.6 727.5c-1 0-2-.3-3-.8l-30.7-18.9c-2-1-3.4-3-3.7-5.4l-.3-39a7 7 0 0 1 8.8-7.3l36 11.9c3.3 1 5.4 4.1 5 7.5l-5.2 46a7 7 0 0 1-6.9 6z" class="st1"/><path d="M41.8 656.8a6 6 0 0 1 1.6.2l36 12c2.8.8 4.6 3.5 4.2 6.4l-5.1 46a6 6 0 0 1-8.5 4.4L39.5 707c-1.8-1-3-2.7-3.3-4.7l-.3-39a6 6 0 0 1 5.9-6.5m0-2a8 8 0 0 0-7.9 8.6l.3 39v.1c.3 2.7 1.9 5 4.3 6.3L69 727.6h.1c1.1.6 2.3.9 3.5.9 4 0 7.4-3 7.9-6.9l5.1-46A7.9 7.9 0 0 0 80 667l-36-11.9a8 8 0 0 0-2.2-.3zM116.6 669c-6.5 0-13.4-1.2-21.1-3.9l-47.7-17.3A49.3 49.3 0 0 1 17.1 617L6 584.8a.5.5 0 1 1 1-.3l11 32.2a48.3 48.3 0 0 0 30.2 30.1l47.6 17.4c23 7.9 38.8 2.7 58.3-9l26.5-16a.5.5 0 0 1 .6.9l-26.6 16c-13.2 8-24.7 12.9-38 12.9z"/><path d="M59.7 717.6h-1l.7-8.8-25-17.2 36.7 13-15.5-9.2.3-9-5.9-7.8 17.6 2.8L45 668l18.2 1.6 3.5-4.9.8.5-3.8 5.5-14.3-1.3 23.3 13.8-20.4-3.2 4.6 6-.3 8.9L76 706.4l-.4.9-34.3-12.2 19.1 13.2z" class="st15"/><path d="m94.6 680.5 3.5 1.3a4 4 0 0 1 2.7 4.2l-1.5 14a4 4 0 0 1-5.2 3.4l-3.4-1a4 4 0 0 1-2.8-4.3l1.3-14.2a4 4 0 0 1 5.4-3.4z"/><path d="m173.3 653.6-17 12.4c-2.9 2.1-5 5-6.2 8.5l-12.5 37.2a3.3 3.3 0 0 0 3.8 4.2l9.2-2.1 22.7-60.2z" class="st0"/><ellipse cx="92.8" cy="709.4" rx="4.2" ry="5" transform="rotate(-83.8 92.8 709.4)"/><path d="M70.3 810.6c-5.5 0-10.7-.9-15.7-2.7a53.1 53.1 0 0 1-27.3-25 .5.5 0 0 1 .9-.4A52 52 0 0 0 55 807c12.6 4.6 27 3.2 42.8-4.2.2 0 .5 0 .6.3.2.2 0 .5-.2.7a66.2 66.2 0 0 1-27.9 6.8z"/><path d="M70.1 806.3c-6.5 0-12.5-1.2-18.2-3.6a49.6 49.6 0 0 1-25.2-25.4.5.5 0 1 1 1-.3c0 .1 6.8 17.4 24.6 24.8 13.6 5.6 29.8 4.3 48.4-3.9a.5.5 0 0 1 .4 1 77.1 77.1 0 0 1-31 7.4z"/><path d="M53.8 780.6a44.4 44.4 0 0 0 28 4c2-.4 3.7 1.6 3 3.5l-3.5 9.8c-.3.9-1 1.5-1.8 1.7-3.8 1-15 3-28.5-4.1-1-.5-1.5-1.5-1.5-2.6l.5-10c0-2 2.1-3.2 3.8-2.3z" class="st0"/><path d="m50 782.9-.5 10c0 1 .5 2 1.5 2.6l1 .4.3-8.5c.1-1.9 2.2-3.1 3.9-2.3a44.4 44.4 0 0 0 28 4h.3l.3-1c.7-2-1-4-3-3.5a44.4 44.4 0 0 1-28-4c-1.7-.9-3.7.3-3.8 2.3z"/><path d="M401 844.6c-24.8 0-49.6-2.6-73.8-7.7l-21.2-4.4c-39.3-8.3-71.9-33-89.5-67.8A680.3 680.3 0 0 0 149.3 658l-61-79.6 467.1-16.7 7.4 56a484 484 0 0 0 42.8 144.2c3.8 8 1.2 17.3-6.2 22.3A352.7 352.7 0 0 1 401 844.6z" class="st0"/><path d="m553.7 563.8 7.1 54c6.7 50.2 21.2 99 43 145 3.3 7 1 15.3-5.6 19.8A352.5 352.5 0 0 1 327.6 835l-21.2-4.5a128 128 0 0 1-88.1-66.8 680.6 680.6 0 0 0-67.4-107l-58.7-76.4 461.5-16.5m3.5-4.2-3.7.1-461.4 16.6-7.8.3 4.7 6.2 58.7 76.4a678.3 678.3 0 0 1 67 106.4A129.7 129.7 0 0 0 252 810a135.8 135.8 0 0 0 53.6 24.4l21.2 4.4a360.5 360.5 0 0 0 178.4-7.7c34-10.3 66-25.5 95.3-45.3 8.2-5.5 11.1-16 7-24.9a482 482 0 0 1-42.7-143.6l-7.1-54.2-.5-3.6z"/><path d="M598.2 782.6c6.6-4.5 9-12.8 5.6-19.8-20-42-33.7-86.3-41-131.8-1.2 9.2-2 18.5-2.5 27.8-.8 13.8-1.1 27.6-2 41.3-.5 7-1 13.8-2 20.6-.3 3-.5 5.3-.2 8.2.4 2.7.7 4.6-1 7.2-1.5 2-3.6 3.5-5.6 4.8-10.9 7-23.3 11.3-34.8 17.2-11.5 5.9-22.7 14-28 25.8-3.2 7.1-4 15.1-6 22.8a36.7 36.7 0 0 1-6.9 14.7c-3.6 4.3-7.7 4.2-12.8 5.8l-7.6 2.4c-6.6 2-13.6-1.5-15.9-8-.8 7.6-12.5 11-17.1 5-77.2 9.4-131.2-1.2-174.2-26.5 16.7 15 37.4 25.6 60.2 30.4l21.2 4.5a354 354 0 0 0 270.6-52.4z" class="st5"/><path d="M471.3 615.6 358 765.8a49.5 49.5 0 0 1-38.9 15l-68.3.5c-5-.4-9.6-3-12.7-7L123 620.8l348.3-5.3z"/><path d="M250.7 781.8c-5.1-.4-9.9-3-13-7.3L122 620.5l350.3-5.4-.6.8-113.4 150.2a50 50 0 0 1-39.3 15.3l-68.3.4zM124 621.4 238.4 774c3 4 7.5 6.5 12.4 6.9l68.2-.4a49 49 0 0 0 38.5-15l112.8-149.3-346.3 5.3z"/><path d="M468 616.3 344.6 759.7a50.2 50.2 0 0 1-38.5 14.3l-56.7-.7c-5-.3-9.5-2.7-12.6-6.6L123 621.3l345-5z" class="st0"/><path d="M141.2 648.6s35.4 56.1 155.3 36.8c116.4-18.7 259.4-78.1 259.4-78.1l-414.7 41.3z" class="st5"/><path d="M412.7 842.4h-.1a1 1 0 0 1-.9-1.2l17.7-102.5a34 34 0 0 1 11.5-19.6l121.3-98.6a1 1 0 0 1 1.3 1.6l-121.3 98.6a31.9 31.9 0 0 0-10.8 18.3l-17.7 102.6c0 .5-.5.8-1 .8z" class="st1"/><path d="M430.6 844.6h-.2a1 1 0 0 1-.8-1.3l21.3-93.6a34 34 0 0 1 12.8-19l106.7-75.9a1 1 0 1 1 1.2 1.7l-106.7 75.8a31.9 31.9 0 0 0-12 17.9l-21.3 93.6a1 1 0 0 1-1 .8z" class="st1"/><path d="M448.6 841.5a1 1 0 0 1-1-1.3l25.6-74a34 34 0 0 1 18.2-19l91.3-38a1 1 0 0 1 .8 1.9l-91.4 38a32 32 0 0 0-17 17.9l-25.5 73.8a1 1 0 0 1-1 .7z" class="st1"/><path d="M412.7 842.4h-.2a1 1 0 0 1-.8-1.2l19.7-101.5A34 34 0 0 1 443 720l119.3-99.5a1 1 0 1 1 1.3 1.5l-119.3 99.6a31.9 31.9 0 0 0-10.8 18.4l-19.7 101.5c0 .5-.5.8-1 .8z"/><path d="M430.6 844.6h-.3a1 1 0 0 1-.7-1.3l23.4-92.6a34 34 0 0 1 12.7-19L570.4 655a1 1 0 1 1 1.2 1.6l-104.7 76.8a31.9 31.9 0 0 0-12 17.9l-23.3 92.6a1 1 0 0 1-1 .8z"/><path d="M448.6 841.5a1 1 0 0 1-1-1.4l27.6-72.8a34 34 0 0 1 18.2-19.1l89.3-39a1 1 0 0 1 .8 2L494.2 750a32 32 0 0 0-17 17.9l-27.6 72.9a1 1 0 0 1-1 .6z"/><path d="M238 664.1c-32 0-63.5-5.4-93.7-16.2-11.4-4.7-22.7-10.6-28.4-21.6l-4.2-8.5c-5-9.9-12.7-20.5-24.6-34.3-.4-.5-2.9-2-4.5-2.9a25.3 25.3 0 0 1-6.4-4.4c-2.5-3.5-51.7-99.6-51-144 .5-37 26.3-80.3 65.6-110.5a56.6 56.6 0 0 1 43.3-10.9h.1l50.6 13.3a765.7 765.7 0 0 0 222.3 3.5l75.3-8.6a212.1 212.1 0 0 1 65.1 2.7l7.4 1.5c17.5 3.7 32 15 40 31a134.9 134.9 0 0 1 2.8 113l-8.4 34.4a73.7 73.7 0 0 0-2 14.5c0 2.2-.1 4.1-.9 7.5-.6 2.6-4.1 3.6-8.1 4.8-1.8.5-4.7 1.3-5.4 2-1.2 8-1 18.2-.5 27.9l.6 11.5v1.8c.3 14.9-4.6 25.8-14.7 33.5-7.5 5.6-172.5 36.5-270.2 54.5-16.5 3-33.4 4.5-50.2 4.5z" class="st2"/><path d="M125 312c3 0 6 .3 8.8.8l50.6 13.3a765.5 765.5 0 0 0 223 3.5l75.2-8.6a209.3 209.3 0 0 1 64.5 2.7l7.4 1.4a55.8 55.8 0 0 1 38.6 30 133 133 0 0 1 2.7 111.5l-8.4 34.5c-3.2 14.8-1.2 14.7-3 22-.7 3-13 3.7-13.4 6.8-1.4 8.6-1 19.7-.6 28.5l.6 11.5v1.8c.2 14.7-4.6 24.7-14 31.7-6.8 5.2-170.3 36-269.3 54.2A275.9 275.9 0 0 1 145 646c-12.9-5.3-22.4-11.1-27.3-20.6l-4.2-8.5c-4.2-8.2-11-18.6-24.9-34.7-1-1.4-9.7-5.8-10.7-7.2-2.3-3.3-51.4-98.6-50.7-142.8.5-33.5 23.4-77 64.9-108.9a54.3 54.3 0 0 1 33-11.2m0-4a58.6 58.6 0 0 0-35.5 12 189.8 189.8 0 0 0-48.9 55 120.6 120.6 0 0 0-17.6 57c-.3 23.8 13.2 61.2 24.6 88.4a592.1 592.1 0 0 0 26.9 56.8c1 1.3 2.7 2.5 7 5 1.4.9 3.5 2.1 4.1 2.6 11.7 13.7 19.2 24 24.2 33.8l4.1 8.4v.1c6 11.6 17.7 17.7 29.5 22.5l.2.1a279.2 279.2 0 0 0 144.8 11.7c37.3-6.8 108.9-20 169.2-32 96.5-18.8 100-21.5 101.8-22.8 10.7-8.1 15.8-19.6 15.6-35v-2l-.7-11.5c-.4-9.2-.7-18.8.4-26.6l4-1.3c4.5-1.3 8.7-2.5 9.6-6.3.8-3.5.9-5.6 1-7.8 0-2.7.2-6 1.9-14.2l8.3-34.2a136.9 136.9 0 0 0-3-114.4 59.5 59.5 0 0 0-41.3-32.2l-7.4-1.5a213.8 213.8 0 0 0-65.8-2.7l-75.2 8.5h-.1a764.1 764.1 0 0 1-221.6-3.4L134.8 309h-.1l-.2-.1c-3.1-.5-6.3-.8-9.4-.8z"/><path d="m272.7 660 43.1-28 39.7-19.7 26.3-12.2 53.4-21.1 130.2-46.7-3.2 47.6-47.6 28.3-169.2 35.9z" class="st6"/><path d="m139 617.2-48.8-32.8c9.7 12.3 19.3 24.6 23.3 32.5l4.2 8.5c4.9 9.5 14.4 15.3 27.3 20.6 10 3.6 20.1 6.5 30.4 9l-36.5-37.8z" class="st1"/><path d="M208.5 661c-7.9-1-20.4-3.6-28.3-4.3-6.6-.6-12.3-10-16.6-14.8-23.5-26.4-49.3-48.9-75.4-72.8-11.8-10.7-60-100.5-57-135 2.5-30 4.8-45.5 25-74.1 14.2-20 37.5-48.7 64.7-46 13.8 1.4 26.4 7.5 39.2 12.6 5.6 2.2 11 3 15.4 7.5 4.1 4 6.8 9.4 8.8 14.8 3 8.3 4.7 17.1 9.3 24.6 5.8 9.5 16.1 16 27.1 17.3a65.3 65.3 0 0 1-27.3-40c-1-4.6-1.6-12.8 4.6-13.4 4.2-.5 11.7 3.3 16 4.2 13 2.6 26.3 4.2 39.6 4 31.9-.2 63.8-2 95.5-5.2 36.4-3.7 72-11.6 108.2-16.5 10-1.4 19.7-3.9 29.6-5.2 5-.6 10.2-1.2 15.3-.8 1.8 0 3.2.7 5 1 2.1.5 4.5.3 6.7.4 11.2.7 22.3 2.1 33.2 4.4l7.4 1.4a55.8 55.8 0 0 1 38.5 30 133 133 0 0 1 2.8 111.5l-4.5 10.4c-5.1 11.9-9.6 24.5-15.7 36-3.6 6.6-13.4 7.5-20.5 9.8l-28.3 9.3c-21.6 7.1-43.2 14.2-64.4 22.2A794.2 794.2 0 0 0 304 635.5c-6.2 4-9.8 8.2-14.8 13.3-4.6 4.5-11 9-17.4 10.6-16.2 4-54.8 2.6-63.3 1.6z" class="st3"/><path d="M426.7 598.6c-3 4.8-1.3 10.8-6 15.2a24.2 24.2 0 0 1-9.6 4.8c-12.9 4.1-63.7 18.2-75.6 22-11.5 3.3-22.8 7-34.1 10.6-10 3.2-20 5-29.7 9.3 52.5-8.9 215.3-40.9 237.5-45.1 13.9-2.7 36-5.4 47-15.4 5.7-5 5.2-9.3 5.7-16.6.4-5.6 1-11.3 1.3-17a54 54 0 0 1 .6-11l.7-10.2c-4 9.8-9.3 19.2-14.2 28.6-1.3 2.6-3.7 9.5-6.9 10.3-4.8 1.3-5.3-5-5.4-8.2-.2-6.6 3-16-6.2-17.5-6.8-1.1-102.5 36.2-105 40.2z" class="st1"/><path d="M210.8 366.5a62.9 62.9 0 0 0 11 18c6.7 7.6 16.7 15.9 27.4 15.7 10.7-.2 20.6-1.6 31-3.8 27.7-6 58.7-8.8 82.6-25.2 3.6-2.5 7.1-5.3 9.5-9a15 15 0 0 0 2.4-12.5c-1.6-5-6.4-8.4-11.5-9.7s-10.3-.8-15.5-.4c-21 1.8-42.1 5.4-63 4.5-22.4-1-44.8-1.6-67.2-2.5-2.3-.1-4.8-.2-6.8 1-4 2.3-4.1 7.8-3.3 12.3.8 4 1.9 7.8 3.4 11.6z" class="st4"/><path d="m554.5 325.1-7.4-1.4c-10.9-2.3-22-3.7-33.2-4.4-2.2-.1-4.6.1-6.8-.3-1.7-.4-3.1-1-5-1.1-2.5-.2-5.1-.2-7.8 0-26.4 7.5-41.8 83.2-41.5 138.8 1 184.8-254.5 124.2-191.9-5l-95-16.2s12.2 182.8-24.2 151.5c-26.4-22.8-70.4-50.9-94.4-92 14.3 33.8 34 67.8 40.9 74.1 26.1 24 51.9 46.4 75.4 72.8 4.3 4.8 10 14.2 16.6 14.8 7.9.7 20.4 3.3 28.3 4.3 8.5 1 47.1 2.4 63.3-1.6 6.3-1.6 12.8-6 17.4-10.6 5-5 8.6-9.3 14.8-13.3a791.6 791.6 0 0 1 158.4-81.2c21.2-8 42.8-15 64.4-22.2l28.3-9.3c7-2.3 16.9-3.2 20.5-9.9 6-11.4 10.6-24 15.7-36l4.5-10.3A133 133 0 0 0 593 355a55.8 55.8 0 0 0-38.5-30z" class="st4"/><path d="m218.8 297 18.4 65a34.5 34.5 0 0 0 19.8 22.4c12.9 5.4 27.6 5 40.2-1.2 3.5-1.7 7.1-3.8 10.5-6a30 30 0 0 0 13-32.1L298.3 250l-79.5 47z"/><path d="M171.7 398c-10.7-7.4-24-12.2-35.2-18.2-5-1.5-10.4-6-14.8-9-4.7-3.3-9.2-6.8-13.7-10.4 1.4 3.8 3.8 6.7 6.1 10 3 4 5.9 6.1 10 8.9 8.7 6 18.2 10.7 27.6 15.4 8.3 4.2 17 8.6 25 14.3a91 91 0 0 1 19.9 20.2 58.4 58.4 0 0 0-10.8-18.3c-4.6-4.8-8.8-9.3-14.1-13z" class="st2"/><path d="M586 509.7c-8.3-.5-17.2-1.8-26.4-3.7-31.7-6.6-59.3-33.8-73.7-73-14.8-40.2-11.2-81.7 9.4-108.2 1.8-2.4 3.8-4.6 5.9-6.6l.6-.5h.8a209.4 209.4 0 0 1 45 4l7.3 1.5c17.5 3.7 32 15 40 31a134.9 134.9 0 0 1 2.8 113l-8.4 34.4a126 126 0 0 0-1.2 6.4l-.3 1.8-1.8-.1z" class="st9"/><path d="M506.3 319.6c13.7 0 27.4 1.4 40.8 4l7.4 1.5a55.8 55.8 0 0 1 38.5 30 133 133 0 0 1 2.8 111.5l-8.4 34.5-1.3 6.6c-7.9-.5-16.5-1.7-26-3.7-68-14-105.6-123.4-63.2-178 1.8-2.3 3.7-4.4 5.7-6.3h3.7m0-4H501l-1.2 1c-2.2 2.1-4.2 4.4-6.1 6.8-21 27.1-24.7 69.3-9.7 110.3 6.8 18.4 17 35 29.4 47.7a90 90 0 0 0 45.8 26.5c9.3 2 18.2 3.2 26.6 3.7l3.7.3.6-3.7 1.2-6.3 8.3-34.2a136.9 136.9 0 0 0-3-114.4 59.5 59.5 0 0 0-41.3-32.2l-7.4-1.5a213.8 213.8 0 0 0-41.6-4z"/><path d="m275.8 659.4 78.1-40.9s58-22.4 166.1-62.4l49.8-16.1 1.2-10.1-115.2 42.4-81.2 31.9-36 15.7-49.4 28.9-13.4 10.6z" class="st7"/><path d="M270 663a1 1 0 0 1-.6-1.7l2.7-2c36.2-26 74.3-46.7 113.3-61.3l189.5-70.7a1 1 0 0 1 .7 2L386 599.8a489 489 0 0 0-112.8 61l-2.7 2a1 1 0 0 1-.6.2zM177.3 657.6l-.4-.1-30.8-32.4a79.8 79.8 0 0 0-13.8-11.5l-45.8-31.8a.5.5 0 0 1 .5-.8l45.8 31.8c5.1 3.3 9.8 7.2 14 11.6l30.9 32.4a.5.5 0 0 1-.4.8zM530.2 568.5l.9 18a5 5 0 0 1-4 5.1L446 610.7c-5.8 1.4-8.6-6.7-3.2-9.2l80.4-37.3a5 5 0 0 1 7.1 4.3z"/><path d="M444.6 612.9a6.7 6.7 0 0 1-6.4-4.7c-1.2-3.5.3-7 3.6-8.5l80.5-37.3a7 7 0 0 1 10 6l.8 18a7 7 0 0 1-5.5 7.2l-81.3 19c-.6.2-1.1.3-1.7.3zm80.6-47.1a3 3 0 0 0-1.2.2l-80.5 37.4c-2.2 1-1.6 3-1.5 3.5.2.4 1 2.4 3.4 1.9l81.3-19.1a3 3 0 0 0 2.3-3l-.8-18a3 3 0 0 0-3-2.9zM584 519.2a113 113 0 0 1-36.2-6 111 111 0 0 1-64.3-58.2c-35.8-76.6.8-127.4 8.5-136.8l.1-.2c.2-.2.5-.3.7 0 .3 0 .3.4.1.6l-.1.2c-7.7 9.3-44 59.8-8.4 135.7a110 110 0 0 0 63.7 57.8c12.2 4.1 25 6 38.1 5.8a.5.5 0 0 1 0 1H584z"/><ellipse cx="444.7" cy="339.6" rx="12.5" ry="9.1" transform="rotate(-14.9 444.6 339.6)"/><ellipse cx="443.7" cy="337" class="st16" rx="11.2" ry="7.9" transform="rotate(-14.9 443.7 337.1)"/><ellipse cx="443.4" cy="336" class="st13" rx="10.5" ry="6.7" transform="rotate(-17 443.4 336)"/><path d="M449 333.9c1-1.3.2-3-1.7-3.4-2-.4-4.5 0-6.8 1-1.8.9-3.1 2-3.9 3.3h1c1.8.3 3.2 1 5 1.3 2.3.3 5-.6 6.3-2.2z" class="st14"/><ellipse cx="115.3" cy="329.4" rx="8.5" ry="10.9" transform="rotate(-73.2 115.3 329.5)"/><ellipse cx="115.7" cy="326.9" class="st16" rx="7.4" ry="9.8" transform="rotate(-73.2 115.7 326.9)"/><ellipse cx="116" cy="325.9" class="st13" rx="6.2" ry="9.2" transform="rotate(-75.9 116 326)"/><path d="M121 326.8h.1c1.4-.5 1.6-2.3.3-3.4a9.4 9.4 0 0 0-5.5-2.4c-1.8-.2-3.3.2-4.4.8l.7.6c1.2 1 2 2.3 3.1 3.2 1.6 1.4 4 1.9 5.8 1.2z" class="st14"/><path d="M238.6 436.5c0-.7 35.4-22.2 51.8-27 10.1-2.9 37-5.4 64.4-11 17-3.4 31.4-5.7 44.8-12.4 35-17.5-16.7 4-16.7 4l-31.4 6-58.2 6.3s.7 0 0 0-19.3 4.5-19.3 4.5l-21.3 14-17.5 15.8 3.4-.2z" class="st2"/><path d="M196.2 427.8a.5.5 0 0 1-.5-.3 68 68 0 0 0-28.5-32l-35-18.5-.5-.4c-27-17.3-34.3-22-39-44.2L90 321.1c-.1-.3 0-.5.3-.6.3 0 .6.1.6.4l2.7 11.3c4.6 21.8 11.8 26.4 38.5 43.5l.6.4 34.9 18.5a68.9 68.9 0 0 1 29 32.5.5.5 0 0 1-.5.7zM234.3 437.7a.5.5 0 0 1-.4-.9c12.8-13.1 39.8-33.4 56.9-35L347 396c50.8-5.1 96.9-29.5 129.6-68.8l7.4-9a.5.5 0 0 1 .7.7l-7.3 9a193.8 193.8 0 0 1-130.3 69l-56.3 5.7c-16.9 1.7-43.5 21.8-56.2 34.8l-.4.2z"/><path d="m479 498.4 6.2 10.3c4.8 7.8 1.7 18-6.7 21.8l-98.7 45.2a15.3 15.3 0 0 1-21.4-16.8l3-15.6c1-4.9 4.2-9 8.8-11l89.5-39.9c7-3 15.3-.5 19.3 6zM109 533.2c-.8-4.7-3.5-8.7-7.4-10.6l-61-31.2c7.6 21 16.9 42.2 24.3 58l28.7 15c9.5 5 19.9-4.4 18-16.2l-2.6-15z" class="st0"/><path d="M361.4 551.4c1-5 4.2-9 8.8-11l89.5-39.9c7-3.1 15.3-.5 19.3 6l6.2 10.2c.8 1.3 1.3 2.6 1.7 4 1-4 .6-8.3-1.7-12l-6.2-10.3c-4-6.5-12.3-9-19.3-6l-89.5 39.8c-4.6 2-7.9 6.2-8.8 11.1l-3 15.6c-.5 2.4-.3 4.7.2 6.9l2.8-14.4zM244.7 476.4a.5.5 0 0 1-.2-1L381 389.8c.2-.2.5-.1.7.1.1.3 0 .6-.2.7L245 476.3h-.3zM239.7 507.7a.5.5 0 0 1 0-1l28.2-5c3.9-.7 7.5-2.4 10.5-5l144.4-124.2a.5.5 0 0 1 .7.7L279 497.5c-3 2.7-6.9 4.5-11 5.2l-28.2 5h-.1zM162.6 461.2a.5.5 0 0 1-.4-.2l-54.6-100.4c-.1-.2 0-.5.2-.7.2-.1.6 0 .7.2L163 460.5a.5.5 0 0 1-.4.7zM162 499.6l-.4-.1-28.5-23.5c-3.9-3.2-6.6-7.5-7.9-12.4L93.4 335.9c0-.2.1-.5.4-.6.3 0 .5.1.6.4l31.8 127.6c1.2 4.7 3.8 8.9 7.6 12l28.4 23.4a.5.5 0 0 1-.3 1z"/><path d="M190 630.4c-6.7 0-11-3-11.4-3.8-31.3-77.6-15.8-175.6-10.3-203.8a5 5 0 0 1 7-3.4 150 150 0 0 0 64.4 16.6 86.4 86.4 0 0 0 18.8-1.7 8 8 0 0 1 7.9 9.2c-7.2 45-40.3 166.6-60.7 181.3a26.9 26.9 0 0 1-15.8 5.6z" class="st2"/><path d="M173.2 419.4c.6 0 1.3.1 2 .4a149.3 149.3 0 0 0 64.5 16.7 86.6 86.6 0 0 0 18.8-1.7c4.5 0 8 4 7.4 8.6-7.7 48.1-40.9 166.8-60.5 181a26.3 26.3 0 0 1-15.5 5.5c-6.5 0-10.6-3-10.8-3.5-31.7-78.4-15-178.8-10.3-203.5a4.4 4.4 0 0 1 4.4-3.5m0-1a5.4 5.4 0 0 0-5.4 4.3 499.2 499.2 0 0 0-8.5 81.8c-1 47.7 5.3 88.8 18.9 122.3.4 1 5.1 4 11.7 4 5.4 0 10.8-1.8 16-5.6 12-8.6 27.2-52.8 35.2-78.3a854.1 854.1 0 0 0 25.7-103.4 8.4 8.4 0 0 0-10-9.6c-5.3 1.1-11 1.6-17 1.6-19.8 0-41.4-5.6-64.3-16.6-.7-.3-1.5-.5-2.3-.5z"/><path d="M251.1 441.9c-13 2.8-43 1.2-79.7-17.5-1.5-.8-1.8-.1-3 .8-5.3 28-20 125 10.7 201.2.2.4 3.6 3.6 12.2 3.5 3.6-.4 4.6-1.9 9.3-5.4 18.1-13.8 48.8-129.7 55.8-176.7.8-5-.5-7-5.3-6z" class="st3"/><path d="m252.8 443.8-.9 2.5a1942 1942 0 0 1-7.2 22.2c-5 14.8-10.2 29.4-16.3 43.8-5.5 13.1-11.8 26-19 38.4-3.8 6.2-7.7 12.2-12 18-3.6 5.1-7.9 10.6-14.6 11.4-4.7.5-9.3-2-12.6-5.3a46.6 46.6 0 0 1-7.6-12 298 298 0 0 0 16.5 63.6c.2.4 3.6 3.6 12.2 3.5 3.6-.4 4.6-1.9 9.3-5.4 18.1-13.8 48.8-129.7 55.8-176.7.2-1.2.3-3.7-.5-4.7-1.4-1.5-2.4-.6-3 .7z" class="st4"/><path d="M192.5 630.5a.5.5 0 0 1-.4-.9c20.6-19.7 55.6-167.6 56.3-178.8.7-10.4-4.2-13.9-4.3-13.9a.5.5 0 0 1 .6-.8c.2.1 5.4 3.8 4.8 14.7-.7 11.3-36 159.8-56.7 179.5l-.3.2z"/><path d="M185.8 554.1c-1.2 0-2.4-.2-3.5-.7-19.4-7.7-11.9-74.2-7.7-102.4a5.6 5.6 0 0 1 8.6-4c11.9 7.4 26.1 9 36 9a97.2 97.2 0 0 0 7.8-.3c1.8 0 3.4.8 4.5 2.1 1 1.4 1.4 3.2 1 5-.2.8-23.3 91.3-46.7 91.3z" class="st1"/><path d="M180.2 446.7c1 0 1.9.2 2.7.8 11.8 7.3 26 9 36.3 9a97.4 97.4 0 0 0 7.8-.3c3.3 0 5.8 3.1 5 6.4-6 23.7-26.5 91-46.2 91-1.1 0-2.2-.2-3.3-.6-19.4-7.8-11-77.3-7.4-102a5.2 5.2 0 0 1 5-4.3m0-1a6.1 6.1 0 0 0-6 5.2c-4.2 28.4-11.7 95.1 8 103 1.2.5 2.4.7 3.7.7 9 0 18.8-12.5 29.2-37.2 7.8-18.6 14.6-41 18-54.6a6.1 6.1 0 0 0-6-7.6h-.5c-2.4.2-4.9.2-7.3.2a69 69 0 0 1-35.7-8.8c-1-.6-2.2-1-3.3-1z"/><path d="M232 462.6c.5-2-.2-3.8-1.5-5-6 19.7-17.2 37.8-32.2 52-2.7 2.6-5.5 5.1-9 6.5-3.4 1.4-7.5 1.5-10.6-.6-3.4-2.2-4.9-6.4-5.6-10.4-.7-3.6-1-7.4-2.5-10.7-1.4 26.4.1 53.9 11.9 58.6 20.7 8.3 43.2-65.3 49.5-90.4z" class="st0"/><g class="st17"><path d="M188.6 530.6c-.9 0-1.7-.1-2.4-.3-3.3-.6-9.1-3.3-11.3-13.7a49 49 0 0 1 .3-19.2c3.6-17.4 13-28.2 23-26.1 3.3.6 9.2 3.3 11.4 13.7a49 49 0 0 1-.4 19.2 49 49 0 0 1-7.2 18c-4.8 6.8-9.8 8.4-13.4 8.4zm6.2-42.4a34.7 34.7 0 0 0-4.7 12.2c-1.2 5.6-1 10.2-.4 13 1.6-2.4 3.5-6.6 4.7-12.2 1.1-5.6 1-10.2.4-13z" class="st15"/></g><g class="st17"><path d="m188.6 526-1.4-.1c-3.9-.8-6.6-4.4-7.9-10.2-1-5-.9-11.1.4-17.4 2.4-12.2 9.5-24.2 17.6-22.6 3.8.8 6.6 4.4 7.8 10.2 1 5 1 11.1-.3 17.4-1.3 6.3-3.6 12-6.5 16.2-3 4.3-6.3 6.5-9.7 6.5zm7.2-44.4c-2.7 0-8 6.8-10.2 17.9a38.9 38.9 0 0 0-.3 15c.8 3.7 2.1 5.2 3 5.4 1 .2 2.8-.7 5-3.8a39 39 0 0 0 5.5-14c1.1-5.4 1.3-10.9.4-15-.8-3.7-2.2-5.3-3.1-5.4h-.3z" class="st15"/></g><ellipse cx="192.2" cy="500.8" class="st15" rx="22.6" ry="9.8" transform="rotate(-78.6 192.2 500.8)"/><ellipse cx="193.5" cy="494.6" class="st2" rx="12.6" ry="7.1" transform="rotate(-78.6 193.5 494.6)"/><path d="M933.2 1497.7s47.5 30 33.3 134.4c-4 30.4-50.8 77-77.7 59.6 0 0-34.4-26.3-50.5-104.4s95-89.6 95-89.6z"/><path d="M902 1696c-5 0-9.5-1.3-13.5-3.9-.4-.3-34.7-27.3-50.7-104.7a59.6 59.6 0 0 1 9.4-49.2c25.1-34.3 85.4-40.9 86-41h.1l.2.1c.1 0 12 7.8 22.1 28.3 9.3 18.8 18.8 52.5 11.4 106.6-2.8 21-25.8 49.4-48.3 59.7-5.9 2.7-11.5 4.1-16.6 4.1zm31-197.7c-3.6.4-60.8 7.5-85 40.5a58.6 58.6 0 0 0-9.2 48.4c15.9 77 50 103.8 50.3 104 7.7 5.1 17.8 5 29.2-.2 22.2-10.2 45-38.3 47.7-59 7.3-53.7-2-87.3-11.2-106a72.7 72.7 0 0 0-21.7-27.7z"/><path d="m749.4 1340.8 76.2-19.7 117 146.9a144 144 0 0 1 31.4 92.3l-.3 13.6c0 3.3-2.6 6-6 6.4l-128.1 11.9-90.2-251.4z" class="st0"/><path d="m824.8 1323.3 116.3 146c20.6 25.8 31.5 58 30.8 91l-.2 13.6c0 2.2-1.8 4.1-4.1 4.4L841 1590l-89-247.8 72.8-18.9m1.5-4.5-2.5.6-72.7 18.9-4.3 1 1.5 4.3 88.9 247.8 1 3 3.1-.4 126.7-11.7c4.3-.4 7.6-4 7.7-8.4l.3-13.5a146 146 0 0 0-31.8-93.7L828 1320.8l-1.7-2z"/><path d="M856.4 1623c-7.7 0-14.5-4.7-17.1-12l-60-166.6c-2.1-6-1-12.4 2.8-17.3 10-12.6 31-33.7 60-33.7 8.7 0 17.6 2 26.4 5.8a18 18 0 0 1 8.3 7.6c10.2 18 62.3 110.2 93.8 159.4 3.5 5.5 3.8 12.2.8 18-3 5.8-8.7 9.4-15.3 9.7-28 1.3-66.2 6.6-88.5 25.1-3.2 2.7-7 4-11.2 4z" class="st0"/><path d="M842.1 1395.4a63 63 0 0 1 25.6 5.7c3.1 1.4 5.7 3.8 7.4 6.7a4342 4342 0 0 0 93.8 159.5 16 16 0 0 1-12.9 24.6c-27.2 1.2-66.6 6.5-89.7 25.6-3 2.4-6.5 3.6-10 3.6-6.4 0-12.7-4-15.1-10.7l-60-166.7a16 16 0 0 1 2.5-15.3c9.2-11.7 30-33 58.4-33m0-4v4-4c-29.9 0-51.4 21.6-61.6 34.5a19.9 19.9 0 0 0-3.1 19.2l60 166.7c2.9 8 10.5 13.3 19 13.3 4.6 0 9-1.6 12.5-4.5 21.9-18.2 59.6-23.4 87.3-24.7 7.3-.3 13.6-4.3 17-10.8 3.3-6.4 3-13.9-1-20a4390.7 4390.7 0 0 1-93.6-159.2 20 20 0 0 0-9.3-8.5c-9-4-18.2-6-27.2-6z"/><path d="M838.7 1610.3a1 1 0 0 1-1-1.4c9.8-22.6 35.6-37 74.7-42 29.4-3.7 56.3-.7 56.6-.6a1 1 0 0 1-.2 2c-.3 0-27-3-56.2.6-26.7 3.4-61 13.2-73 40.8a1 1 0 0 1-.9.6z"/><path d="M834.2 1596.8a1 1 0 0 1-1-1.4c11-22.5 36.3-37 73.5-42 28-3.8 53-.8 53.3-.8a1 1 0 0 1-.2 2c-.2 0-25.1-3-52.9.8-25.4 3.4-58.5 13.2-71.8 40.9a1 1 0 0 1-.9.5z"/><path d="M838.7 1608.3a1 1 0 0 1-1-1.4c9.8-22.6 35.6-37 74.7-42 29.4-3.7 56.3-.7 56.6-.7a1 1 0 0 1-.2 2c-.3 0-27-3-56.2.7-26.7 3.4-61 13.2-73 40.8a1 1 0 0 1-.9.6z" class="st1"/><path d="M834.2 1594.8a1 1 0 0 1-1-1.4c11-22.6 36.3-37 73.5-42 28-3.8 53-.8 53.3-.8a1 1 0 0 1-.2 2c-.2 0-25.1-3-52.9.8-25.4 3.4-58.5 13.2-71.8 40.9a1 1 0 0 1-.9.5z" class="st1"/><path d="M833.2 1513.3a36.8 36.8 0 0 1 46.2-4 106 106 0 0 1 28.8 35.4c4.5 8.5 11.3 17.4 20.8 17.5 10.3 0 17.5-10.1 21.6-19.6 14.1-32.8 11.4-79-25.3-96.6-21.3-10.2-46.6-6.4-68.9 1.2-18.8 6.4-37.7 16.3-48.5 33-19.9 30.7 1 57 21.6 78.7a37 37 0 0 1 3.7-45.6z" class="st7"/><path d="M842.7 1584.6c-.5-.3-48.6-31.2-88.1-72.8-53-55.7-89.9-155.8-111.6-229.9-23.5-80.2-34.6-148.2-34.7-148.9-1-4.6-21.8-115.8 12-156.8a39.6 39.6 0 0 1 32-14.9c13.5 0 29.9 5.6 48.5 16.4 34.3 20 233.7 290.2 242.2 301.7l.1.2.1.2c.2.3 13 29.8 20.1 71.9 6.7 38.8 9.8 96.7-13 151.7a255.1 255.1 0 0 1-20.1 39.2c-1.8 2.9-4 3.5-5.6 3.5-7.8 0-16.9-14.6-31-38.5-9-15.6-20.5-35-26-35h-.4c-43.6 17-54.4 26.1-53.9 28.8 3.3 18.2 14.7 39.7 23 55.4 8 15 11.7 22.4 10.3 26-.4 1-1.2 1.7-2.2 2l-1 .3-.7-.5z" class="st2"/><path d="M652.2 963.4c12.6 0 28.3 4.8 47.6 16 34.3 20 241.6 301.2 241.6 301.2s50.8 116.4 7 222c-6.1 15-12.9 27.8-19.9 39-1.1 1.7-2.4 2.5-3.9 2.5-14.2 0-43.5-73.5-57-73.5-.4 0-.8 0-1.2.2-24 9.3-56.4 23.6-55 31 6.2 34.4 39.9 78.6 32.4 81.1 0 0-48-30.6-87.8-72.5-101.9-107.2-145.7-377.7-145.7-377.7s-32.6-169.3 42-169.3m0-4c-13.7 0-25 5.2-33.5 15.5-14.6 17.7-21.1 49.9-19.4 95.6 1.3 32.9 6.6 61.4 6.9 62.9.4 2.2 11.5 69.7 34.8 149a943.3 943.3 0 0 0 45.5 125.4c20.6 45.1 43 80.6 66.5 105.4 39.7 41.7 88 72.8 88.5 73.1l1.6 1 1.8-.5a5.5 5.5 0 0 0 3.4-3.2c1.8-4.5-1.6-11.3-10.3-27.7-8.2-15.5-19.4-36.7-22.7-54.5.4-.8 3-4.4 17.9-11.8a435.5 435.5 0 0 1 34.4-15c.5.1 3.1 1.1 9.3 9.9 4.6 6.5 9.9 15.5 15 24.1 14.3 24.5 23.6 39.5 32.6 39.5 2 0 5-.8 7.3-4.4a244.5 244.5 0 0 0 38-120c1.2-23.2-.3-47.5-4.6-72.4a340.1 340.1 0 0 0-20.2-72.3l-.2-.4-.3-.4c-.5-.7-52.5-71.1-108-143.1C762 1038 716.6 984.5 702 976c-19-11-35.7-16.7-49.7-16.7z"/><path d="M843.8 1583c7.5-2.6-26.2-46.8-32.5-81.2-1.3-7.4 31.2-21.7 55.1-31 14-5.5 50 89.8 62.1 70.7 7-11 13.8-24 20-38.9 43.7-105.6-28-221-28-221S734 999.5 699.7 979.5c-134-78.2-89.5 153.2-89.5 153.2s38.2 202.9 137.7 361.7c30.7 49 95.8 88.5 95.8 88.5z" class="st3"/><path d="M928.5 1541.5c7-11 13.8-24 20-38.9 43.7-105.6-20-219.7-20-219.7S734.1 999.5 699.8 979.5c-134-78.2-89.5 153.2-89.5 153.2s1.6 9.7 4.8 26.2l.5.6c15.6 19.3 33.6 40 58.1 43.5a63.8 63.8 0 0 0 50.8-17.8c19-17.4 30.8-82.5 60.3-46a972 972 0 0 1 94 139.1c13.2 23.7 23.7 44.8 24.6 72.5.6 21.2-4.6 41.8-10.3 62-3 11-4.6 22.3-4.5 33.6 0 11.2 2.6 23 8.4 32.6-9.2-8.7-19.4-19.6-33-20.7-7.3-.6-14 2.6-20.8 5.2-8.5 3-16.9 6.5-24.8 10.9-17.1 9.5-36.9 25.7-27.7 47.7a34.7 34.7 0 0 0-20.3-18.7c-4-1-8.1-.5-12.2-1.7-5.1-1.5-10-3.9-15-6 4.1 5.1 8.4 10 12.8 14.7a536.6 536.6 0 0 0 87.8 72.5c7.5-2.5-26.2-46.7-32.5-81.1-1.3-7.4 31.2-21.7 55.1-31 14-5.5 50 89.8 62.1 70.7z" class="st4"/><path d="M966.9 1384.4a.5.5 0 0 1-.5-.3c-40-99.8-204.3-319.9-206-322a.5.5 0 0 1 .8-.7c1.7 2.2 166.2 222.4 206.1 322.4a.5.5 0 0 1-.4.6zM936.6 1529.9c-.2 0-.3 0-.4-.2l-74-95.7a297 297 0 0 1-13.6-19l-1.8-2.7c-21-32-64.5-98.3-129.3-283.2a.5.5 0 0 1 1-.3c64.8 184.7 108.3 251 129.2 283l1.7 2.6c4.2 6.4 8.7 12.7 13.5 19l74 95.7a.5.5 0 0 1-.3.8zM812.7 1561.5c-.2 0-.4 0-.5-.2a1566 1566 0 0 1-61.7-124.7c-30.8-69.2-72.7-175-97.1-286.4 0-.3.1-.6.4-.6.3-.1.5 0 .6.3 24.3 111.3 66.2 217 97 286.2 33.4 75 61.4 124.2 61.7 124.7a.5.5 0 0 1-.4.7z"/><path d="M955.6 1384.7c-.6 12-3.9 61.4-15 98.7a8.1 8.1 0 0 1-14.2 2.6l-3.5-4.6a29 29 0 0 1-4.2-27.2c6-17.3 15.8-46.8 21-71.6a8.1 8.1 0 0 1 16 2z" class="st0"/><path d="M791.6 1463.9c-3.1 0-6.4-.2-9.6-.6a16 16 0 0 1-13-10l-69.2-174.6a12.5 12.5 0 0 1 7.9-16.6l28.2-9a14.2 14.2 0 0 1 16.9 6.8l83.2 157.7a25.7 25.7 0 0 1-3.7 29.5 53.5 53.5 0 0 1-40.7 16.8z" class="st18"/><path d="M740.2 1253.3c4.8 0 9.3 2.7 11.7 7l83.2 157.8a24.7 24.7 0 0 1-3.6 28.3 52.3 52.3 0 0 1-40 16.5c-3 0-6-.2-9.4-.6a15 15 0 0 1-12.2-9.4l-69.1-174.6c-2.5-6.2.8-13.3 7.2-15.3l28.2-9c1.3-.4 2.7-.6 4-.7m0-2c-1.6 0-3.1.3-4.6.8l-28.2 9a13.6 13.6 0 0 0-8.5 18l69.1 174.6a17 17 0 0 0 13.8 10.6c3.4.4 6.6.6 9.8.6 21.1 0 34.2-9.3 41.4-17.1a26.8 26.8 0 0 0 4-30.7l-83.4-157.7c-2.6-5-7.7-8-13.4-8z"/><path d="M823.9 1429.4c-3.9 9.6-15.2 28-49 22.3a7.1 7.1 0 0 1-5.3-4.7L703.4 1279c-1.6-4.2.2-9 4-10.4l29.3-9.6c3-1.3 6.5.2 8.1 3.5l78.8 159.9c1 2.2 1.2 4.9.3 7.1z" class="st19"/><path d="m710 1273.4 25.2-9.4c2-.7 4.1.1 5 2l71.7 148.2c1.7 3.5 1.5 7.6-.4 11-4.8 7.8-15.5 20.2-33.8 13.2a17.6 17.6 0 0 1-10-10l-59.9-149.8a4 4 0 0 1 2.3-5.2z" class="st3"/><path d="M809.7 1409.7 740.2 1266a4 4 0 0 0-5-2l-25.1 9.4a4 4 0 0 0-2.3 5.2L740 1359c14.2 3.1 26.9 14.2 37.4 25 9.7 9.9 20.2 20.5 32.4 25.8z" class="st11"/><path d="M666.6 1159.5c-5 0-7.2-2.4-8.1-4.4-14.5-31.5-34.9-53.5-53-72.9-23.1-25-43.2-46.6-40.3-79.2l.1-1.4 61.8-16a15.5 15.5 0 0 1 13.3 2.7l85.6 65.3a27.9 27.9 0 0 1 8.7 33.6c-7.4 16.7-16 37.7-20.4 48.7a22.5 22.5 0 0 1-13.2 12.7l-23.7 8.6a32.6 32.6 0 0 1-10.8 2.3z" class="st2"/><path d="M631 987.2c3 0 5.8 1 8.2 2.7l85.6 65.3a26 26 0 0 1 8 31.1c-7.3 16.7-15.8 37.4-20.4 48.8a20.5 20.5 0 0 1-12 11.6l-23.7 8.6c-3 1-6.8 2.2-10 2.2-2.9 0-5.3-.8-6.4-3.2-33.4-73-98-95-93.1-151.1l60.4-15.6c1.1-.3 2.3-.4 3.4-.4m0-4c-1.5 0-3 .1-4.4.5l-60.4 15.6-2.8.7-.2 2.8c-3 33.5 17.3 55.4 41 80.8 17.8 19.3 38.1 41.1 52.4 72.4 1 2 3.5 5.5 10 5.5 3.2 0 7-.8 11.5-2.4l23.7-8.6a24.6 24.6 0 0 0 14.3-13.9c4.5-11 13-32 20.4-48.6a30 30 0 0 0-9.2-36l-85.7-65.3c-3-2.3-6.8-3.6-10.6-3.6z"/><path d="m641.1 1109.4 2.8 40.6a21.8 21.8 0 0 0 27.7 19.5l28.3-8c21.5-6.1 38-23.2 43.5-44.8l6.4-25.7a68.1 68.1 0 0 0-21.9-68.5L692.2 992 578 969.8l63.1 139.6z" class="st5"/><path d="m724.8 1055.2-85.6-65.3a13.5 13.5 0 0 0-11.6-2.3l-60.4 15.6c-5 56.2 59.7 78.2 93 151 2.5 5.3 11.1 3 16.5 1.1l23.7-8.6c5.5-2 9.8-6.2 12-11.6 4.6-11.4 13-32 20.4-48.7a26 26 0 0 0-8-31.2z" class="st6"/><path d="M700.4 1146.7c5.5-2 9.8-6.2 12-11.6a1792 1792 0 0 1 20.4-48.7 26 26 0 0 0-8-31.2l-85.6-65.3a13.5 13.5 0 0 0-10-2.6 74.4 74.4 0 0 0 3.1 50.4c6.4 15 16.5 28 27 40.5 4 4.7 8.3 9.6 9.6 15.6 3.6 16.3-16.5 18.6-27.8 15.6a51 51 0 0 1-14.4-6.8c12.1 14.5 24.1 31 33.6 51.7 2.4 5.2 11 3 16.4 1l23.7-8.6z" class="st1"/><path d="M710.3 1144.7a.5.5 0 0 1-.4-.3c0-.2-4.7-16.9-11.5-37-3.5-10.6-14.5-22.3-26.1-34.8-15.2-16.2-32.4-34.6-38.5-55.5-2.7-9.2-2-31.5-2-32.5 0-.3.2-.5.5-.5.2 0 .5.3.4.5 0 .3-.6 23.1 2 32.2 6 20.7 23.2 39 38.3 55.1 11.7 12.5 22.8 24.4 26.4 35.1a883 883 0 0 1 11.4 37 .5.5 0 0 1-.5.7z"/><path d="M654.8 1144.7a.5.5 0 0 1-.2-1l49.8-17.8a.5.5 0 1 1 .4 1l-49.8 17.8h-.2zM716.7 1127.9a.5.5 0 0 1-.4-.3c-25.1-61.2-4.5-85.2-4.3-85.4.2-.2.5-.2.7 0 .2.1.2.5 0 .7-.2.2-20.3 23.7 4.5 84.3a.5.5 0 0 1-.5.7z"/><ellipse cx="721.9" cy="1076.9" rx="4" ry="12.1"/><path d="M764 1063.6c-2 0-4-.7-5.8-2a4180.2 4180.2 0 0 0-113.6-80 16.6 16.6 0 0 0-14-2l-63.8 19a6.7 6.7 0 0 0-4.7 7.7l6.5 32.5-4.3-3.4c-42.3-33.6-59-100.2-65.2-137-8.4-49.7-6.6-99.9 4-114 14-18.6 44.7-24.2 61.8-26a32.6 32.6 0 0 1 23.8 7.1C720 870.5 762.1 1000.2 774 1051a10 10 0 0 1-1.8 8.6c-2 2.5-5 4-8.1 4z" class="st2"/><path d="M568.1 760.3c7 0 13.8 2.4 19.3 6.8 131.3 105 173 234.8 184.7 284.4a8.2 8.2 0 0 1-12.8 8.5 4177.1 4177.1 0 0 0-113.6-80 18.6 18.6 0 0 0-15.7-2.4l-63.8 19a8.7 8.7 0 0 0-6 10.1l5.4 27c-71.4-56.5-80.3-222.3-60.9-248.1 13.4-17.9 43.2-23.4 60.4-25.1l3-.2m0-4c-1.1 0-2.3 0-3.4.2-17.4 1.7-48.8 7.5-63.2 26.6-7.2 9.6-9 31.7-9.5 44-.9 21.6 1 47 5.1 71.7a331.2 331.2 0 0 0 22.4 77.6c11.8 26.6 26.4 47 43.6 60.5l8.6 6.9-2.2-10.8-5.4-27.1c-.5-2.4 1-4.7 3.3-5.4l63.8-19a14.6 14.6 0 0 1 12.2 1.8c12.2 8.1 43 29.2 113.6 80a12.1 12.1 0 0 0 16.8-2.4 12 12 0 0 0 2.2-10.3c-12-51-54.2-181.2-186-286.6a35 35 0 0 0-21.9-7.7z"/><path d="M768 1050.2c-11.4-49.4-69.6-173.8-203-279.1-6.2-4.9-14-7.2-21.9-6.4a53.9 53.9 0 0 0-38.4 20.9c-19.4 25.8-3.4 146.8 60.9 248.2l-5.5-27.1a8.7 8.7 0 0 1 6.1-10.1l65.4-27.8c5.3-1.6 11-.7 15.6 2.3 12.3 8.2 41 37.5 109.3 86.8 5.5 4 13.1-1 11.5-7.7z" class="st3"/><path d="M555.5 766.1c-3.4-1-6.4-1.7-8-1.7 10.5 10.8 21 21.6 28.5 31.6 15 19.7 108.6 135 116.8 158.3 8.3 23.3-41-15.5-66-10-24.1 5.1-63 38.4-84.1 25.5-15.2-9.2-23.3-46.6-29.6-63.3-5.2-13.6-7.3-28.6-12.5-42.2 7.9 49 28.8 112.4 65 169.5l-5.5-27.1a8.7 8.7 0 0 1 6.1-10.1l62.7-18.7c5.3-1.6 10.2-1.9 14.8 1.2 12.3 8.1 44.7 29.4 113 79 5.5 4 13-1 11.4-7.6-11.3-48.7-50.5-162.4-179.4-266.5a100 100 0 0 0-33.2-17.9z" class="st4"/><path d="M516.5 849.4c-.1-.5-.1-1 .1-1.4 11.9-21.5 33.7-37 58.2-35.8 0 0 8.9 5 9.5 7.2l24.5 88.5c.4 1.3-.3 2.7-1.6 3.2l-59.5 23.3c-1.2.5-10-1.2-10.4-2.5l-20.8-82.5z" class="st4"/><path d="M539.8 932c-1.2 0-2.3-.7-2.7-1.9L509 846.5c-.2-.6-.2-1.3.1-1.8A64 64 0 0 1 569 812l3.6.1c2.4.2 4.4 1.8 5 4.1l24.6 88.5c.5 1.6-.3 3.3-1.9 3.9l-59.5 23.3-1 .2z" class="st9"/><path d="M565.4 812.4h3.5l3.7.2a5 5 0 0 1 4.6 3.8l24.6 88.5c.3 1.3-.4 2.7-1.7 3.2l-59.4 23.3a2.4 2.4 0 0 1-3.1-1.4l-28.2-83.7c-.1-.4 0-1 .2-1.4a63.2 63.2 0 0 1 55.8-32.5m0-1a64.5 64.5 0 0 0-56.7 33c-.4.7-.5 1.5-.2 2.3l28.1 83.6a3.4 3.4 0 0 0 4.4 2l59.5-23.3a3.7 3.7 0 0 0 2.2-4.4l-24.5-88.5a6 6 0 0 0-5.6-4.5l-3.6-.1-3.6-.1z"/><path d="M543.8 919.5c-10.7.9-21.4-36.9-27.8-53.8l21.6 64.2c.4 1.3 1.8 2 3 1.5l59.5-23.3c1.3-.5 2-1.9 1.7-3.2l-24.6-88.5a5 5 0 0 0-2-2.8c2 14.3 7 42.9 10.3 54.7 11.6 42-17.4 49.3-41.7 51.2z" class="st0"/><path d="m541.8 905.4 1.7 5.5c.2.7 1 1 1.6.8l32.4-12.9c.6-.2.9-.8.7-1.4l-1.7-6c-.2-.7-1-1-1.6-.8l-32.4 13.3c-.6.2-1 .9-.7 1.5z"/><g opacity=".4"><path d="M525 851.3c-1.2 0-2.2-.8-2.6-2l-2.1-6.8c-.4-1.3.2-2.6 1.3-3.2l33.4-15.9c.3-.2.8-.3 1.2-.3 1.2 0 2.3.8 2.6 2l2.2 7.4c.3 1.3-.3 2.7-1.5 3.3L526.2 851l-1.2.3z" class="st2"/><path d="M556.2 824.6c.5 0 1 .4 1.1 1l2.2 7.4c.2.5-.1 1.1-.7 1.4l-33.3 15.2a1.2 1.2 0 0 1-1.6-.7l-2.2-6.9c-.1-.5.1-1.1.6-1.4l33.3-15.8.6-.2m0-3c-.7 0-1.3.2-1.9.5L521 837.9c-1.9 1-2.8 3-2.2 5l2.2 7a4.2 4.2 0 0 0 5.8 2.5L560 837c1.9-.8 2.9-3 2.3-5l-2.1-7.4c-.6-1.8-2.2-3-4.1-3z" class="st15"/><path d="M530 867c-1.2 0-2.2-.8-2.6-2l-2-6.2c-.4-1.3.2-2.8 1.5-3.3l33.2-15 1-.2c1.3 0 2.3.8 2.7 2l2 6.8c.3 1.3-.3 2.7-1.6 3.2l-33.1 14.4-1 .3h-.1z" class="st2"/><path d="M561.2 841.8c.5 0 1 .4 1.1.9l2 6.8c.2.6-.1 1.2-.7 1.4l-33.1 14.5a1.2 1.2 0 0 1-1.6-.8l-2-6.3c-.2-.6 0-1.2.6-1.4l33.2-15h.5m0-3.1c-.6 0-1.2.1-1.8.4L526.3 854c-2 .9-3 3-2.3 5.1l2 6.3a4.2 4.2 0 0 0 5.7 2.6l33.1-14.4c2-.8 3-3 2.4-5l-2-6.9c-.5-1.8-2.2-3-4-3z" class="st15"/><path d="M534.9 882.4c-1.2 0-2.2-.8-2.6-2l-1.9-5.8c-.4-1.3.3-2.8 1.6-3.3l33-14 1-.1c1.3 0 2.3.8 2.7 2l1.7 5.8c.4 1.3-.3 2.7-1.6 3.2l-32.9 14-1 .2z" class="st2"/><path d="M566 858.7c.6 0 1 .3 1.2.8l1.7 6c.2.5 0 1.1-.7 1.3l-32.9 14h-.4c-.5 0-1-.3-1.2-.8l-1.8-5.8c-.2-.6 0-1.3.7-1.5l33-14h.5m0-3c-.6 0-1.1 0-1.7.3l-33 13.9c-2 .9-3 3-2.4 5.2l1.9 5.8a4.2 4.2 0 0 0 5.6 2.7l33-14c1.9-.8 3-3 2.3-5l-1.7-6c-.5-1.7-2.2-3-4-3z" class="st15"/><path d="M540 898.5c-1.2 0-2.2-.8-2.6-1.9l-2-6.5c-.5-1.3.2-2.7 1.5-3.3l32.7-13.8 1-.2c1.2 0 2.3.8 2.6 2l2 6.8c.4 1.3-.3 2.7-1.6 3.3L541 898.3l-1 .2z" class="st2"/><path d="M570.6 874.3c.5 0 1 .4 1.2.9l2 6.8c.1.6-.2 1.2-.7 1.5l-32.7 13.4a1.2 1.2 0 0 1-1.6-.8l-2-6.4c-.2-.6.1-1.3.7-1.5l32.7-13.8h.4m0-3.1-1.6.3-32.7 13.8c-2 .9-3 3-2.4 5.2l2 6.5a4.2 4.2 0 0 0 5.7 2.6l32.6-13.4c2-.8 3-3 2.5-5.1l-2-6.8c-.5-1.8-2.2-3.1-4-3.1z" class="st15"/></g><path d="M525 848.7h-.1l-2.6-7 .1-.1 33.6-16h.1s.2 0 .2.2l2.2 7.5v.2L525 848.7z" class="st2"/><path d="m555.6 827 1.8 5.8-31.9 14.6-2-5.3 32.1-15.1m.5-2.4-.5.1-33.6 16c-.6.2-.8.8-.6 1.4l2.5 6.8a1.2 1.2 0 0 0 1.6.7l33.4-15.2c.5-.3.8-.9.6-1.4l-2.2-7.5c-.2-.6-.7-.9-1.2-.9z" class="st15"/><path d="M530 864.4h-.2l-2-6.4.1-.2 33.2-15c.2 0 .2 0 .3.2l2 6.8s0 .2-.2.2l-33.1 14.4h-.1z" class="st2"/><path d="m560.6 844.2 1.6 5.2-31.7 13.7-1.5-4.7 31.6-14.2m.6-2.4-.5.1-33.2 15c-.5.2-.8.8-.6 1.4l2 6.3a1.2 1.2 0 0 0 1.6.7l33.1-14.4c.6-.2.9-.8.7-1.4l-2-6.8c-.1-.6-.6-.9-1.1-.9z" class="st15"/><path d="M534.9 879.8h-.2l-1.9-6 .2-.2 33-13.9.3.1 1.7 5.9-.1.2-33 14z" class="st2"/><path d="m565.5 861 1.3 4.3-31.4 13.2-1.4-4.2 31.5-13.3m.6-2.3h-.5l-33 14c-.6.2-.9.9-.7 1.5l1.8 5.8a1.2 1.2 0 0 0 1.6.8l33-14c.5-.2.8-.8.6-1.4l-1.7-5.9c-.1-.5-.6-.8-1.1-.8z" class="st15"/><path d="M540 896s-.2 0-.2-.2l-2-6.4v-.3l32.8-13.7h.2l2 7-.1.1L540 896h-.1z" class="st2"/><path d="m570 876.6 1.6 5.3-31.1 12.8-1.6-5 31.2-13m.5-2.4-.4.1-32.7 13.8c-.6.2-.9.9-.7 1.5l2 6.4a1.2 1.2 0 0 0 1.6.8l32.7-13.4c.5-.3.8-.9.7-1.5l-2-6.8c-.2-.5-.7-.9-1.2-.9z" class="st15"/><path d="M741.3 1049.1a.5.5 0 0 1-.5-.4c0-.4-11.4-44.6-40.8-101.6-27.1-52.5-75.7-127-152.8-183.3a.5.5 0 1 1 .6-.8c77.3 56.4 126 131 153.1 183.7a532.9 532.9 0 0 1 41 101.8.5.5 0 0 1-.6.6z"/><path d="M548.3 1020.4a.5.5 0 0 1-.5-.5l-1-18.6a20.5 20.5 0 0 1 12.7-20l59-24.3c10.4-4.4 22.3-4 32.5.9l70.8 34.6a.5.5 0 0 1-.5.9l-70.7-34.6a39.1 39.1 0 0 0-31.8-1l-59 24.4a19.5 19.5 0 0 0-12 19l1 18.6c0 .3-.2.6-.5.6z"/><path d="m677.9 939.8 3.3 6.7c1.5 3-1.5 6.3-4.6 5l-39.4-15.4c-2-.8-3.6-2.6-4.1-4.7l-2.4-9.4c-.7-3 2.3-5.6 5.2-4.4l34.3 15c3.3 1.4 6 4 7.7 7.2z" class="st0"/><path d="M550.8 481a76.6 76.6 0 0 1-51.5-58.5l-.4-1.8a84.3 84.3 0 0 1 15.4-69.7l2.4-3c10-12.5 24-20.3 39.3-22l106.7-7.4 8.3 160.9-53.3 16-66.9-14.5z" class="st2"/><path d="m660.8 320.8 8 157.2-51.2 15.4-66.2-14.4a75 75 0 0 1-50.1-57l-.4-1.7a82 82 0 0 1 15-68l2.4-3a55.8 55.8 0 0 1 37.9-21.2l104.6-7.3m3.8-4.4-4 .3-104.7 7.4h-.1a59.6 59.6 0 0 0-40.6 22.7l-2.4 3a86.3 86.3 0 0 0-15.9 71.3l.4 1.8a78.7 78.7 0 0 0 52.9 60H550.5l66.3 14.5 1 .2 1-.3 51.2-15.4 3-1-.1-3.1-8-157.2-.3-4.2z"/><path d="m660 324.6-108.4 13c-24.7 2.3-35.7 14.7-35.7 14.7a82 82 0 0 0-15 68l.4 1.8a75 75 0 0 0 50 57l67.3 14.6 50.3-15.7-8.9-153.4z" class="st3"/><path d="M663.6 386.9c-.7-12.2-.4-26.4-7.2-37-3-4.7-7.9-7.7-11.7-11.6-4.8-4.8-10.5-8.3-17.5-8-5 .3-9.7 2.3-14.2 4.3l-36.4 15.7c-6.9 3-14 6-19.2 11.6a51.3 51.3 0 0 0-10.7 24.5c-1.6 7.1-3.7 15.8-11 19.2-7.4 3.5-15.8-1.3-22.6-6-4.6-3.2-8.5-6.3-13.2-9.5a83.4 83.4 0 0 0 1 30.2l.4 1.7a75 75 0 0 0 50 57l67.3 14.7 50.3-15.7c1.7-.5-2.7-45.5-2.8-48.6l-2.5-42.5z" class="st4"/><path d="M521.1 355.5a.5.5 0 0 1 0-1l51.8-2.7c.3 0 .5.2.5.4 0 .3-.2.6-.4.6l-51.8 2.7z"/><path d="M553.3 481h-.2c-.4-.3-40.3-18-44.7-77.9a75.7 75.7 0 0 1 16.8-54.4 66 66 0 0 1 37.5-22.7c.3 0 .5.1.6.4 0 .3-.1.5-.4.6a65 65 0 0 0-36.9 22.4 74.7 74.7 0 0 0-16.6 53.7c4.4 59.2 43.7 76.7 44.1 76.9a.5.5 0 0 1-.2 1z"/><path d="M621.8 495.4c-6.4 0-12.8-2.2-18-6.3l-42.3-33a33.2 33.2 0 0 1-11.8-31.7l9-51a31.4 31.4 0 0 1 18.8-23.8l74-29.6a28.5 28.5 0 0 1 22.5.5l13.5 6.1a32 32 0 0 1 18.4 26.6l9 100.1a31 31 0 0 1-26.5 34.4l-63.2 7.5c-1.1.2-2.3.2-3.4.2z" class="st9"/><path d="M662.2 319c3.8 0 7.7.8 11.3 2.5l13.6 6a31 31 0 0 1 17.8 25.8l8.9 100.1a30.2 30.2 0 0 1-25.5 33.3l-63.2 7.5a27.4 27.4 0 0 1-20.7-5.8l-42.3-33.1a32 32 0 0 1-11.4-30.7l9-51.1a30.2 30.2 0 0 1 18.2-23l74-29.5c3.3-1.3 6.8-2 10.3-2m0-2c-3.8 0-7.5.7-11 2.1l-74 29.5c-10.1 4-17.6 13.4-19.5 24.5l-9 51.2a34.2 34.2 0 0 0 12.2 32.6l42.3 33a30.5 30.5 0 0 0 22 6.3l63.3-7.5c8.1-1 15.4-5.1 20.6-11.8 5-6.7 7.5-15.1 6.7-23.7L707 353.1a33 33 0 0 0-19-27.4l-13.5-6c-4-1.8-8-2.7-12.2-2.7z"/><path d="M630 476.1c-5 0-9.7-1.5-13.6-4.5L584 446.9a24.1 24.1 0 0 1-8.9-23.6l7.4-38.7c1.5-8.1 7.1-15 14.6-18l57.6-22.9a22.5 22.5 0 0 1 17 .2l10.5 4.5c7.9 3.4 13.2 11 14 19.7l6.1 75.7c1 13-8 24.4-20.5 26l-49 6.2-2.8.1z" class="st3"/><path d="M663 342.6c2.8 0 5.7.6 8.5 1.8l10.4 4.4a23 23 0 0 1 13.6 19.4l6.2 75.7c1 12.6-7.9 23.8-20 25.4l-49 6.2a21.9 21.9 0 0 1-16-4.3l-32.5-24.7a23.5 23.5 0 0 1-8.7-23l7.4-38.8c1.5-8 6.9-14.7 14.3-17.6l57.5-23a22 22 0 0 1 8.2-1.5m0-1c-3 0-5.8.6-8.5 1.6l-57.6 23c-7.6 3-13.3 10-15 18.3l-7.3 38.7a24.6 24.6 0 0 0 9 24.1l32.6 24.7a22.7 22.7 0 0 0 16.7 4.5l49-6.2c6.1-.8 11.7-4 15.6-9a25 25 0 0 0 5.3-17.5l-6.1-75.7c-.8-9-6.2-16.7-14.3-20.2l-10.4-4.5a22.6 22.6 0 0 0-9-1.8z" class="st12"/><path d="m682 348.8-10.5-4.4a21.9 21.9 0 0 0-16.8-.2l-57.5 23c-7.4 2.8-12.8 9.5-14.3 17.5l-6.8 35.5c18.3-30.7 3.3-52 86.4-61.8 11-1.3 21.6 5.6 28.3 13.4 2.8 3.3 4.2 15.8 6 20.6 1.5 3.5 1 8 1.7 11.8l-3-36a23 23 0 0 0-13.6-19.4z" class="st4"/><path d="M642 490.1a35.2 35.2 0 0 1-36.7-23.7c-7-20.6-12.8-48.8-1.3-68.3 19.7-33.7 81.7 91.6 81.2 89.3-.3-1.3-23.7.8-43.1 2.7z" class="st5"/><path d="M624.5 447.3a37 37 0 0 1 3.2-68.2l9.3-3.3a37 37 0 0 1 23.8-.6l38 12-31 80.8-43.3-20.7z" class="st0"/><path d="M649.7 375.5c3.6 0 7 .6 10.5 1.6l36 11.3-29.5 76.8-41.3-19.7a35 35 0 0 1 3-64.4l9.3-3.4a35 35 0 0 1 12-2.2m0-4a39 39 0 0 0-13.4 2.4l-9.2 3.4a39 39 0 0 0-3.4 71.9l41.2 19.7 4 1.9 1.5-4.1 29.5-76.8 1.6-4-4.1-1.3-36-11.3a39 39 0 0 0-11.7-1.8z"/><path d="M781.3 597c-31.3 0-57.6-12.7-62.6-15.3a203 203 0 0 1-76.6-65.4 160 160 0 0 1-28-84.4 82.4 82.4 0 0 1 25.2-60.8c26.4-27.5 69.4-44 115.2-44 7.7 0 15.7.5 23.5 1.4 23.3 2.8 43.6 9.2 60.4 19.3a93.2 93.2 0 0 1 45 84l-1.5 44.9c-1 30-11.1 58.6-31.8 89.9-2.9 4.3-5 7-6.3 8.2a93.6 93.6 0 0 1-62.5 22.3z" class="st2"/><path d="M754.5 329.2c7.6 0 15.4.4 23.3 1.3 25.4 3 44.8 10.2 59.6 19a91.3 91.3 0 0 1 44 82.3l-1.5 44.8c-1.1 32.8-13.4 61.6-31.5 88.9a44.8 44.8 0 0 1-6 7.7 92 92 0 0 1-61.1 21.8c-30.3 0-56-12.2-61.6-15-66.9-34.5-101-89-103.5-148.2-2.3-54 58.6-102.6 138.3-102.6m0-4c-23.8 0-46.3 4-67 12.2a139.4 139.4 0 0 0-49.6 32.3A85.5 85.5 0 0 0 612 432a162 162 0 0 0 28.3 85.4 205 205 0 0 0 77.4 66.1 149 149 0 0 0 63.5 15.6c24.6 0 46-7.7 63.8-22.8 1-.8 2.7-2.6 6.6-8.6 21-31.6 31.2-60.5 32.3-91l1.5-44.8a95.2 95.2 0 0 0-46-85.9 153.4 153.4 0 0 0-61.2-19.5c-8-.9-16-1.4-23.8-1.4z"/><path d="M877.4 446c.1-14.5-2.2-29-7.3-42.5a80 80 0 0 0-36.9-43.1c-14.7-8.8-34.1-16-59.5-19-90.8-10.6-160 31.2-157.5 90.4S652.8 545.5 719.7 580c9.2 4.8 73.6 35.2 122.8-6.7 1-.8 2.5-2 3.9-3.7 20.8-26.6 28.6-57 30.7-83.4l.3-40.1z" class="st3"/><path d="M859 422c-5.7-8.6-11.5-16.7-14.4-26.7-1.8-6-1.4-11.5-5.1-16.9-9.7-13.7-33-21-48.8-22.6a86 86 0 0 0-64.3 20.2c-11 9.5-19.3 21.6-28.8 32.6s-20.7 21.2-34.7 25c-14 4-31-.3-38.3-12.9-2.2-3.9-3.6-8.6-5.3-12.9a69.9 69.9 0 0 0-3.1 24c2.4 59.2 36.6 113.7 103.5 148.1 9.2 4.8 73.6 35.2 122.8-6.7l.5-.5a186.8 186.8 0 0 0 28.3-59.1c7.9-30.7 5.2-65.1-12.3-91.6z" class="st4"/><path d="M785.6 590h-1.9c-48.2-1.4-86-54.8-84.1-119 .9-30.7 10.5-59.4 27.2-80.8 16.7-21.5 38.6-33.4 61.6-33.4h1.9c23.4.7 45 13.5 60.9 36 15.8 22.5 24 52 23.2 83a138.4 138.4 0 0 1-27.2 80.8c-16.7 21.5-38.6 33.4-61.6 33.4z" class="st9"/><path d="M788.4 357.8h1.8c47.7 1.4 85 54.2 83.2 118-1.8 63-40.9 113.1-87.8 113.1h-1.8c-47.8-1.3-85-54.1-83.2-118 1.8-63 40.9-113 87.8-113m0-2c-23.4 0-45.5 11.9-62.4 33.6a139.4 139.4 0 0 0-27.4 81.4c-.9 31.3 7.4 61 23.4 83.6 16 22.8 38 35.8 61.7 36.4h1.9c23.3 0 45.5-12 62.4-33.7a139.4 139.4 0 0 0 27.4-81.3c.9-31.3-7.4-61-23.4-83.7-16-22.8-38-35.7-61.7-36.4h-2z"/><path d="M793.2 554.6c-1.8 0-3.6-.2-5.5-.4-45-6.7-66.2-33-64.9-80.2.5-18.6 6-36.8 14.9-50a46.9 46.9 0 0 1 55-20.3c23.2 7 35.4 13.9 42 24 6.7 10.3 7.7 24.4 7.1 45.2-1.1 39.3-16.8 81.7-48.6 81.7z" class="st3"/><path d="M777.1 401.8c4.9 0 10 .7 15.4 2.4 45.1 13.4 50 27 48.8 68.6-1.1 39.4-17 81.3-48 81.3a37 37 0 0 1-5.5-.4c-49.9-7.5-65.7-38-64.5-79.6 1-36.4 20.5-72.3 53.8-72.3m0-1c-15.9 0-29.7 8-39.9 23a96.7 96.7 0 0 0-14.9 50.2c-.6 22.7 3.7 40.1 13.3 53.3 10.7 14.6 28.2 23.8 52 27.4 2 .2 3.8.4 5.6.4 32.2 0 48-42.6 49.1-82.2.6-21-.4-35-7.2-45.5-6.7-10.2-19-17.2-42.3-24.2a54.8 54.8 0 0 0-15.7-2.4z" class="st12"/><path d="M838 455c2-.3 3.3-2.4 2.9-7.7-.6-6.7-3.1-14-6.8-19.6-9-13.6-26.8-19.1-41.6-23.5-21-6.3-41 1.3-53.7 19-6.3 9-9.6 18.1-12 28.8-1.2 4.9-6.6 26 .6 28 5.3 1.4 14-15.5 17.5-19.3 7-7.7 15.2-14.3 24.6-18.9 18.2-8.8 42.1-8.1 56.7 6 3.7 3.5 8.7 7.5 11.8 7.1z" class="st4"/><path d="M691.7 524.5c-.3 0-.7 0-1-.2L647 506.9c-.8-.4-1.5-1.1-2-2.2l-17-50.2c-1-2.6 0-5.6 1.3-7.5 1.1-1.5 2.4-2.3 3.7-2.3l1 .1 48.7 15.6c4.2 1.4 7.2 5.8 8 12L697 516c.4 2.3-.4 5-2 6.8-1 1-2 1.7-3.2 1.7z" class="st9"/><path d="m633 445.2.8.1 48.7 15.6c4 1.3 7 5.6 7.8 11.5l6.1 43.7c.6 3.7-2 7.9-4.7 7.9-.3 0-.6 0-.9-.2l-43.6-17.4a3 3 0 0 1-1.6-1.8l-17.2-50.2c-1.3-3.9 1.6-9.2 4.6-9.2m0-1c-1.4 0-2.9.9-4 2.5a9.4 9.4 0 0 0-1.5 8l17.1 50.2a4 4 0 0 0 2.2 2.4l43.7 17.5 1.2.2c1.3 0 2.5-.7 3.6-1.9a9.4 9.4 0 0 0 2.1-7.2l-6.1-43.7c-.9-6.2-4-10.8-8.5-12.2l-48.7-15.7-1-.1z"/><path d="m693 491.6-2.7-19.2c-.9-6-3.7-10.2-7.8-11.5L642 448l-3 5.4c-9 17.7-11 36.4-4.5 41.9l32.1 15.8c8.5 4.2 18-3.5 26.5-19.4z"/><path d="m682.5 461-1.4-.6c-2.7 3-5.4 7-7.7 11.6-6.8 13.4-8.3 27.6-3.4 31.8 5 4.1 14.4-3.4 21.2-16.8l.9-1.8-1.8-12.8c-.9-6-3.7-10.2-7.8-11.5z" class="st9"/><path d="m774.5 375-1.1 10.2a6 6 0 0 0 5.3 6.6c11.3 1.2 36.4 5.5 53.7 21.1a6 6 0 0 0 7.8.2l6-4.9a6 6 0 0 0 1-8.1 72.8 72.8 0 0 0-67.4-30.5 6 6 0 0 0-5.3 5.3z"/><path d="M841.9 409.8c-1.8-3.2-7.8-6.5-8-6.5l-.2-.2.6-5.3-10.7 7.3 7-14.3-5.3 4.7-.3-.5c-3.8-7-22.1-7.5-22.3-7.5h-.5v-4.2l-7.6 9.2-.6-17.6-8.7 9-.3-.1s-7-1.1-9.7-.8l-.2-1c2.6-.3 8.5.5 9.8.7l10-10.1.6 17.2 7.6-9.2v5.9c3 .1 18.2 1 22.5 7.4l8.2-7.3-7.6 15.5 9.3-6.4-.7 6.8c1.3.8 6.3 3.7 8 6.8l-1 .5z" class="st15"/><path d="M200.1 202.3c-.4 0-.8 0-1.1-.3h-.1l-5.3-3.6c-1.3-.7-2.8-1-4.4-1-2 0-4.4.5-7.1 1.7l-1 .2c-.5 0-1.1-.3-1.6-.8-.7-.6-1-1.5-1-2.5l.1-21c0-1.2.5-2.3 1.4-3a14.2 14.2 0 0 1 15-1.2l2.8 1.6c1 .4 1.5 1.4 1.7 2.5L203 198c.2 1.3-.1 2.5-.9 3.3-.5.7-1.2 1-2 1z" class="st11"/><path d="M188.4 170.3c2 0 4.1.5 6 1.5l3 1.5c.6.3 1 1 1.1 1.8l3.5 23c.2 1.8-.7 3.2-1.9 3.2-.2 0-.5 0-.7-.2l-5.2-3.6c-1.7-.8-3.3-1.2-5-1.2-2.5 0-5 .8-7.5 1.8l-.5.2c-1 0-1.7-1-1.7-2.3l.1-21c0-.9.4-1.7 1-2 2.4-1.8 5.1-2.7 7.8-2.7m0-2c-3.1 0-6.3 1-9 3a4.6 4.6 0 0 0-1.8 3.7l-.1 21c0 1.2.4 2.4 1.3 3.2.6.7 1.5 1 2.4 1 .4 0 .9 0 1.3-.2a17 17 0 0 1 6.7-1.7c1.4 0 2.7.3 4 1l5 3.5h.2l.1.1a3.5 3.5 0 0 0 4.4-.9c.9-1 1.3-2.6 1-4.1l-3.4-23.1c-.2-1.5-1-2.7-2.2-3.3l-3-1.5a15.1 15.1 0 0 0-6.9-1.7z"/><path d="M181.7 198.1c4-1.7 8.4-2.7 12.5-.6l5.2 3.6c1.4.8 2.9-.9 2.6-3l-3.5-23c-.1-.8-.5-1.5-1.1-1.8l-3-1.5a9.2 9.2 0 0 0-6.6-.5c-1.1.4 3.8 3.6 2.9 4.5-.9.7-6.5.5-7.8 1-1.4.7-2.3 3.6-2.5 6.3l-.9 12.9c0 1.5 1.1 2.6 2.2 2.1z" class="st3"/><path d="M181.7 198.1c4-1.7 8.4-2.7 12.5-.6l5.2 3.6c1.4.8 2.9-.9 2.6-3l-3.4-22.4c-1.7-.4-4 .2-5.4 7.5-2.7 15-11.3 10-13.4 8.6l-.3 4.2c0 1.5 1.1 2.6 2.2 2.1z" class="st4"/><ellipse cx="189.1" cy="174.2" class="st21" rx="6.8" ry="2.6" transform="rotate(-1.1 189.1 174)"/><path d="m195.8 174-.1-.5c-1.2-.8-3.8-1.4-6.7-1.3-3 0-5.4.7-6.6 1.6l-.1.5c0 1.5 3 2.6 6.8 2.5 3.7 0 6.7-1.3 6.7-2.8z" class="st18"/><path d="M187.2 176c-.8 0-1.5 0-2.3-.2a2 2 0 0 1-1.7-2.1l2-64.3c0-.5.1-1 .3-1.3v-.1l2-73.6c0-1 .7-1.7 1.6-1.7.6 0 1 .3 1.4.8 1.7 2.3 2.7 5.2 2.7 8l1 64.7v.2l.2.5 1.3 65.8c0 .8-.5 1.5-1.3 1.8l-1.6.6c-1.8.6-3.7.9-5.6.9z" class="st2"/><path d="M189.1 33.8c.2 0 .4 0 .6.3 1.6 2.1 2.4 4.8 2.5 7.4l1 64.7v.6l.2.3 1.3 65.6c0 .4-.3.7-.6.8l-1.6.6a16.5 16.5 0 0 1-7.5.7c-.5 0-.9-.5-.8-1l2-64.4c0-.3 0-.5.2-.7l.2-.7 1.9-73.6c0-.4.3-.6.6-.6m0-2a2.7 2.7 0 0 0-2.6 2.5l-2 73.5-.3 1.5-2 64.4c-.1 1.5 1 3 2.6 3.1a19.4 19.4 0 0 0 8.3-.8l1.7-.5c1.1-.4 1.9-1.5 1.9-2.8l-1.2-65.6v-.4l-.2-.4-.1-.2-1-64.6c0-3-1-6.1-2.9-8.6a2.7 2.7 0 0 0-2.2-1.2z"/><path d="M189.9 34.3c.3 27 2 71.7.8 80.6-1.3 9.2-4 39.6-3.8 56.8 0 1.8 1.6 3.3 3.3 3l2.3-.6.6-.2-1.3-135.4c-.4-1.4-1-2.9-2-4.2z" class="st22"/><g class="st23"><path d="M190.2 108.4a3.7 3.7 0 0 0-2.4 3.5l-3.6 61.8c0 .6.3 1 .8 1.1 2.6.3 5.1.1 7.5-.7l1.6-.6c.3 0 .6-.4.6-.8l-1.3-65.6c-1.8.8-2.1 1-3.2 1.3z" class="st24"/></g><path d="M190 171.8c-3 6-11.3 21-13.5 29.5-4.5 16.8-3 33.7-.4 51 1.4 9 3 18.2 4.5 25.9l3.4 17c1 3.2 3.6 6.2 6.1 8" class="st3"/><path d="M190.1 305.1a2 2 0 0 1-1.1-.3c-2.6-1.8-5.7-5.1-7-9v-.3l-3.4-17c-1.5-7.6-3.1-16.8-4.5-26-2.5-16.5-4.2-34.2.4-51.7 2-7.4 8.2-19.3 11.9-26.4l1.8-3.6a2 2 0 1 1 3.6 1.9l-1.8 3.6c-3.7 7-9.8 18.6-11.6 25.5-4.4 16.8-2.8 34-.3 50.1 1.4 9 3 18.3 4.5 25.9l3.4 16.8c.9 3 3.4 5.6 5.3 6.9a2 2 0 0 1-1.2 3.6z"/><path d="m192.7 275-8.6-3-4.9-35.6a91.8 91.8 0 0 1 .2-26.5c2.9-18.5 8.3-29.6 8.3-29.6l.5-.3 1.8-.7 2.7 95.7z" class="st4"/><path d="M315.8 226.6v-2.9c0-9.6-.2-19.6-2.8-28.5l-.2-.8a66 66 0 0 0-8.6-18.4l-.6-.9a37.2 37.2 0 0 0-8.7-9l-7.5-5.6a61.3 61.3 0 0 0-28.4-11.6l-2-.3a63 63 0 0 0-23.5 1.3l-.4.1c-8.8 2.2-18.8 4.7-26.3 10l-12 10.1-1.9 2.8-2.6-1.5c.2-.4 20.5-37.6 70.5-37.6 8.6 0 17.6 1.1 27 3.3a89.8 89.8 0 0 1 63 49.6c9.3 19.5 10 36.6 10 37.4v.5l-45.7 58.6.7-56.6z" class="st2"/><path d="M260.8 135.3c8 0 16.9 1 26.6 3.2 69.4 16.2 72 85.6 72 85.6l-42.7 54.7.7-52.1c-.2-10.5 0-21.9-3-32l-.1-.7c-2-6.7-5-13-8.9-18.8l-.6-1a38.8 38.8 0 0 0-9-9.3l-7.5-5.7a62.7 62.7 0 0 0-29-11.8l-2-.3a64.3 64.3 0 0 0-24.1 1.3c-9.3 2.3-19.5 4.8-27.3 10.3l-12.2 10.4-2 3s19.5-36.8 69-36.8m0-3a84.6 84.6 0 0 0-55 19 71.4 71.4 0 0 0-16.7 19.4l5.2 3.1 1.8-2.6 11.8-10c7.2-5.1 17-7.6 25.7-9.7l.4-.1a61.4 61.4 0 0 1 23-1.3l2 .3c10 1.4 19.5 5.2 27.6 11.3l7.5 5.6c3.2 2.4 6 5.3 8.3 8.7l.6.9a64.4 64.4 0 0 1 8.4 18l.3.7c2.5 8.7 2.6 18.6 2.7 28.1v3l-.6 52-.1 9 5.5-7 42.6-54.7.7-.9V224c0-.7-.8-18.2-10.3-38a92.1 92.1 0 0 0-22.2-29.6 95.1 95.1 0 0 0-41.8-20.8c-9.4-2.2-18.6-3.3-27.3-3.3z"/><path d="M191.4 172s22.5-46.7 92-30.5 76 82.6 76 82.6l-42.7 54.7.7-52.1c-.2-10.5 0-21.9-3-32l-.1-.7c-2-6.7-5-13-8.9-18.8l-.6-1a38.8 38.8 0 0 0-9-9.3l-7.5-5.7a62.7 62.7 0 0 0-29-11.8l-2-.3c-8-1-16.3-.6-24.1 1.3-9.3 2.3-19.5 4.8-27.3 10.3l-9.3 8.5-5.2 4.8z" class="st3"/><path d="m316.7 264.5.6-27.7c.3-12 .4-24-1-35.9l-2.2-10s6.3 13 7.3 19.8c1 7 3.6 40.9 3.6 40.9l-4.6 9.5-4 5.3.3-1.9z" class="st4"/><path d="M262.5 142.2s29.3 1.4 45.9 24.4c9.8 13.6 17.9 14 17.3 9.3-.6-4.7 31.7 39.4 31.7 39.4l2 8.8s-4.1-10.7-31.6 22.5c0 0-1.4-44.5-8.8-58.7 0 0-10-22.5-27.7-34.3s-22.4-8-28.8-11.4z" class="st4"/><path d="M326.7 247.1s-2.9-38-6.6-50.5a121.3 121.3 0 0 0-22.4-35.9 87.5 87.5 0 0 0-23.8-15.4s16.5 3.4 30.8 20.6c0 0 7.7 7 15.2 25 0 0 6 15.6 6.3 35.6l1.9 19.3-1.4 1.3z" class="st2"/><path d="m191 272.1-6.6-45c-1-6.5-1.4-13.2-1.4-20 0-3.4.4-6.8 1-10.2l.5-2.5c1-4.8 2.3-9.6 4-14.1 0 0 4.3-10 8.9-14.7 9.5-9.6 18.7-14 32-16.9l2.2-.4c7.9-1.3 15.9-1.9 23.9-1.7h2.2a60 60 0 0 1 38.6 18.5 73.1 73.1 0 0 1 17.8 36.7c2.8 16.1.4 46.5 1.1 69 1.5 42.8-95.5 68.7-117 17.2l-7.1-15.9z"/><path d="M250.6 349.2c-6.7 0-14.1-.8-22.7-2.5l-2.8-.8-5.5-33 10.6-2.4a147.6 147.6 0 0 1 44.8-3.3l14.8 1.2-.8 32.8-2.6 1.2-4.1 1.5a63 63 0 0 1-24.9 5c-2.2.2-4.5.3-6.8.3z" class="st2"/><path d="M263.3 307.7c3.9 0 7.8.2 11.6.5l13.9 1.1-.8 31.3-2 .9c-14.3 5-14.5 5.6-28.6 6.4a117.2 117.2 0 0 1-29.2-2.2l-2.2-.6-5.3-31.5 9.7-2.1c10.8-2.5 21.9-3.8 33-3.8m0-2c-11.3 0-22.5 1.3-33.4 3.8l-9.7 2.1-1.9.4.4 2 5.2 31.5.2 1.2 1.2.4 2.2.6h.1a118.7 118.7 0 0 0 29.8 2.2c13-.7 14.6-1.3 25.1-5l4-1.5h.1l2.1-1 1.2-.5v-1.3l.8-31.2v-2l-1.8-.1-13.9-1.1c-3.9-.3-7.9-.5-11.8-.5z"/><path d="m226 345.1 2.1.6c9.6 2 19.6 3 29.3 2.2 14-.8 14.3-1.4 28.6-6.4l2-1-.3-31.5-17.4 1c-16.3 1.3-25.8 2-40.4 5.4l-9.7 2 5.8 27.7z" class="st3"/><path d="m228.1 345.7-3.3-19.8s4.3 4.2 11.4 8.7 6.3-2.9 11.5-7.8c5.2-5 13.3 9.3 25.4 6a17.8 17.8 0 0 0 13.5-13.7l1.2.5v7l-1.5 13.8.1.9-.4.2c-14.3 5-14.5 5.6-28.6 6.4-9.7.9-19.7-.3-29.3-2.2z" class="st4"/><path d="m181.2 190.8-1-.4 4.3-10.3a64.1 64.1 0 0 1 49.3-36.5l2.3-.3c5.4-.8 10.8-1.2 16.2-1.2h3.2a64 64 0 0 1 53.5 28.2l4.1 6-.8.6-4.1-6a63 63 0 0 0-53.5-27.8h-2.4c-5.3 0-10.7.5-16 1.2l-2.3.3a63.1 63.1 0 0 0-48.5 36l-4.3 10.2z"/><path d="m306.9 180.8-5.3-8.9a61.5 61.5 0 0 0-50.2-28.3h-1.5c-5.1-.2-10.2.2-15.1 1l-1.6.4a61.5 61.5 0 0 0-45.5 35.3s4.2-5.3 8.9-10a59.5 59.5 0 0 1 31.8-18l2.2-.4c8-1.3 16.1-2 24.3-1.8h2.2c13.8 1 26.7 6.8 36.8 15.9 5 4.4 9.3 9.6 12.8 15.3l.2-.5z" class="st18"/><path d="M305.8 181.8a68 68 0 0 0-12.6-15 60.6 60.6 0 0 0-36.2-15.6h-2.2c-8-.2-16.1.4-24 1.7l-2.3.4a58 58 0 0 0-31.2 17.8c-4.6 4.5-8.8 9.8-8.8 9.9l-1.7-1a62.7 62.7 0 0 1 46.2-36l1.6-.3c5-1 10.2-1.3 15.3-1.1h1.5c21 .7 40 11.5 51 28.8l5.3 8.9.1.8-.2.6-1.8.1zm-58.3-37.2c-4.2 0-8.4.3-12.6 1l-1.5.4a61 61 0 0 0-40.3 26.5l2.8-2.8a60.9 60.9 0 0 1 32.2-18.4l2.3-.4c8-1.3 16.3-2 24.5-1.8h2.2a62.6 62.6 0 0 1 41 19.5 60.8 60.8 0 0 0-46.7-24h-3.9z"/><path d="M226.3 346.6c-.4 0-.8 0-1.1-.2l-5-2.6a86 86 0 0 1-29.3-25l-2.8-3.2c-2.3-2.6-4.8-5.3-5.4-9.1l-4.8-28.2c-.3-1.3-.2-2.5.5-3.5 1.1-1.8 3.4-2.3 4-2.4a14.1 14.1 0 0 1 15.7 8.9 31.6 31.6 0 0 0 11.5 14.4 36.8 36.8 0 0 1 15.3 24.5l3.7 23.6a2.4 2.4 0 0 1-2.3 2.8z" class="st18"/><path d="M184.9 273.2c5.3 0 10.2 3.3 12.3 8.4 2.4 6 6.5 11.2 11.8 14.9 8 5.5 13.4 14.1 15 23.8l3.6 23.7c.2.9-.5 1.6-1.3 1.6l-.6-.1-5-2.6a84.6 84.6 0 0 1-29-24.7c-3-4-7.2-7-8-11.9l-4.8-28.2c-.9-3.5 2.7-4.5 3.7-4.7l2.3-.2m0-2c-.9 0-1.8 0-2.6.2-.8.1-3.4.7-4.8 2.9-.5.8-1 2.2-.6 4.2l4.8 28.2c.7 4 3.2 6.9 5.7 9.6l2.7 3.2a87 87 0 0 0 29.7 25.2l5 2.5a3.4 3.4 0 0 0 4-.8c.7-.7 1-1.7.8-2.7L226 320a37.8 37.8 0 0 0-15.8-25.2c-5-3.4-8.8-8.2-11-14a15.2 15.2 0 0 0-14.2-9.6z"/><path d="M224.9 347.2c-.4 0-.9 0-1.3-.3l-4.7-2.4c-11.2-5.7-21-14-28.6-24-3-4-5-8.7-5.9-13.7l-4.2-26c-.3-1.8.5-3.7 2.4-4 .7-.2 1.3-.2 2-.2 4.9 0 9 3.5 11.6 10.3 2.2 5.5 6 10.1 10.9 13.5 6.3 4.3 13.9 10.6 15.6 21.4l5 22v.1a2.8 2.8 0 0 1-2.8 3.3z" class="st2"/><path d="M184.5 278c5 0 8.3 4.4 10.3 9.4a31.2 31.2 0 0 0 11.4 14.2c7.8 5.3 13.5 11.3 15 20.5l5 22a1.3 1.3 0 0 1-1.9 1.5l-4.7-2.5a81.2 81.2 0 0 1-28-23.5 29.7 29.7 0 0 1-5.7-13l-4.2-26.1c-.2-1 .2-2.1 1.2-2.3l1.6-.1m0-3-2.1.1c-2.6.5-4.2 3-3.7 5.8l4.2 26a33 33 0 0 0 6.2 14.5 84.7 84.7 0 0 0 29 24.3l4.8 2.5a4.4 4.4 0 0 0 5.3-1c.8-1 1.2-2.3 1-3.6v-.2l-5-22c-1.9-11.3-9.7-17.9-16.3-22.4a28 28 0 0 1-10.3-12.8c-3.7-9.3-9.2-11.2-13-11.2z"/><path d="M182.9 278.2c6-1 8.4 4.7 10.6 10.3a31.2 31.2 0 0 0 11.4 14.2c7.7 5.2 14.8 10.2 16.3 19.4l5 22c.2 1.1-1 2-1.9 1.5l-4.7-2.5a77.2 77.2 0 0 1-26.3-24l-.3-.6a44.8 44.8 0 0 1-7.3-15.9l-4-22.1c-.2-1 .2-2.1 1.2-2.3z" class="st3"/><path d="M193 318.5a44.8 44.8 0 0 1-7.3-15.9l-4-22.1c-.1-.8.1-1.8.8-2.1 2.3 7.5 4.8 15 8 22 5.2 11.1 8.3 19 18 26.5 2.6 2.1 11 7.8 13.8 5.9.6-.4.8-1.9.7-2.6l3.2 14c.2 1-1 1.9-1.9 1.4l-4.7-2.5a77.2 77.2 0 0 1-26.3-24l-.3-.6z" class="st4"/><path d="m210 339.4-1.1-7.8c-.2-1.6-1.1-3.1-2.4-4l-2.6-1.8c-.3-.2-.5-.5-.5-.9l-.5-7c0-.5.2-1 .6-1.2.4-.2 1-.1 1.3.2l3.5 2.2c.1.1.2 0 .2 0l.1-.1-2.4-18h1l2.4 17.9a1.2 1.2 0 0 1-1.9 1l-3.5-2.2c-.1-.1-.2 0-.2 0h-.1l.5 7.1v.2l2.6 1.8c1.6 1 2.6 2.7 2.9 4.6l1.2 7.9-1 .1z"/><path d="m207.1 321.2 12.3 7.3c.5.3.7.7.8 1.2 0 1.2-1.2 2-2.3 1.4l-11.6-6.9a.9.9 0 0 1-.4-.7V322c-.1-.7.6-1.2 1.2-.8z" class="st0"/><path d="m180.5 272.8-5.7-33a85.2 85.2 0 0 1-.3-20l.3-5.1c0-.6 2-14 4.3-20l1 .4c-2.3 6-4.3 19.5-4.3 19.7l-.3 5c-.4 6.8-.8 13.1.3 19.8l5.7 33-1 .2zM188.6 273 182 230c-1-6.6-1.5-13.3-1.4-19.9 0-3.4.3-6.9 1-10.2l.5-2.5c1-4.8 2.3-9.6 4.1-14.1l1.4-3.6a62 62 0 0 1 45.5-35.8l.2 1a61 61 0 0 0-44.7 35.2l-1.4 3.6a78.2 78.2 0 0 0-4.1 13.9l-.5 2.5a54 54 0 0 0-1 10c0 6.6.4 13.2 1.4 19.7l6.5 43h-1z"/><path d="m173.2 223 7.6-6.7.7.7-7.7 6.8z"/><path d="M289.9 342c-1 0-2-.4-2.6-1-.5-.6-.7-1.3-.7-2l1-32c.4-13.3 8-26.3 20.6-35.5a44 44 0 0 0 16.5-21.8c2.6-8.2 21-27 32.7-27 1.3 0 2.4.5 3.1 1.3.6.6 1 1.4 1 2.2l-1.7 39.4c-.2 6.9-2.7 13.7-7 19.9-10.1 14.3-34 40.6-53.2 51.5l-7.8 4.4c-.6.4-1.2.5-2 .5z" class="st18"/><path d="M357.4 223.8c1.7 0 3 1 3 2.4l-1.6 39.3A36 36 0 0 1 352 285C341 300.2 317.3 325.8 299 336l-7.8 4.5c-.4.2-1 .3-1.4.3-1.2 0-2.3-.7-2.3-1.8l1-32a45.5 45.5 0 0 1 20.2-34.8c8.2-6 14.1-13.8 16.8-22.2 2.7-8.3 21-26.3 31.8-26.3m0-2c-12 0-31 19.2-33.7 27.6a43 43 0 0 1-16.1 21.3 47.7 47.7 0 0 0-21 36.3l-1 32c0 1 .3 2 1 2.6.8.9 2 1.3 3.3 1.3.8 0 1.7-.2 2.4-.6l7.8-4.4c19.3-11 43.4-37.4 53.5-51.9 4.5-6.2 7-13.3 7.3-20.4l1.5-39.3a4 4 0 0 0-1.1-3c-1-1-2.4-1.6-3.9-1.6z"/><path d="M289.9 342.4a4 4 0 0 1-3-1.1 3 3 0 0 1-.8-2.3v-.1l3.7-31.6c.5-15 11.6-25 22.3-32.9 8-5.8 13.7-13.3 16.3-21.5 2.7-8.3 17.2-28.7 29.2-28.7 1.2 0 2.2.4 3 1.2.8.9 1.2 2 1.2 3.2l-1.5 37c-.2 7-2.7 14-7 20.2-10.2 14.4-34.2 40.7-53.4 51.6L292 342c-.7.3-1.5.5-2.2.5z" class="st2"/><path d="M357.6 225.7c1.7 0 2.7 1.5 2.7 2.8l-1.5 37A36 36 0 0 1 352 285C341 300.2 317.3 325.8 299 336l-7.8 4.5c-.4.2-1 .3-1.4.3-1.2 0-2.3-.7-2.3-1.8l3.7-31.6c.5-13.2 9.3-22.8 21.7-31.8 8.3-6 14.2-13.8 16.9-22.3 2.6-8.3 17-27.7 27.7-27.7m0-3c-12.9 0-27.7 21-30.6 29.8-2.5 7.9-8 15-15.8 20.7-10.3 7.6-22.3 18.3-22.9 34l-3.7 31.5v.2c0 1.3.4 2.5 1.3 3.4 1 1 2.4 1.7 4 1.7 1 0 2-.3 2.9-.8l7.8-4.5c19.4-11 43.6-37.6 53.9-52a39.2 39.2 0 0 0 7.4-21l1.4-37c0-1.6-.5-3.2-1.6-4.3a5.6 5.6 0 0 0-4-1.7h-.1z"/><path d="m355.5 225.9-3.1 1a55.6 55.6 0 0 0-22.5 25.5l-.3.6c-2.6 8.2-3.9 15.8-15.1 24.7-11.3 8.8-23.7 17.8-24 30.4l-3 31.7c-.1 8.7 42.7-19.6 62.8-60 4-8 6-16.9 6-25.9l.2-25.2c0-1.3.6-2.8-1-2.8z" class="st3"/><path d="m287.5 339.8 3.2-34c.4 4-.2 17.8 6.6 16 2-.5 15.5-9.6 18.5-11.5 10.8-7 6.1-8.4 13.6-16.7a99.4 99.4 0 0 0 24.6-67.2l1.5-.5c1.6 0 1 1.5 1 2.8l-.2 25.2c0 9-2 17.9-6 25.9-20.1 40.4-63 68.7-62.8 60z" class="st4"/><path d="M314.9 326h-1v-8.4c0-2.6 1.4-5.1 3.9-7l4-3c.2-.1.3-.2.2-.3l-.7-9.9c0-.2-.2-.3-.3-.3a1 1 0 0 0-.9.1l-5.8 4a2 2 0 0 1-2 .3c-.5-.3-.8-.7-.9-1.3l-.2-23.3h1l.3 23.3c0 .2.1.3.2.3.3.2.7.2 1 0l5.8-4a2 2 0 0 1 2-.3c.4.2.8.6.8 1.1l.8 9.9c0 .4-.2.9-.6 1.2l-4.1 3a7.9 7.9 0 0 0-3.5 6.2v8.4z"/><path d="m316 302.9-20 13c-.8.4-1.1 1-1 1.8 0 1.6 2.5 2.4 4.2 1.3L318 307c.4-.3.6-.6.6-1l-.2-2.2c0-1-1.5-1.4-2.5-.8z" class="st0"/><path d="m318.9 260.3-.7-41.2a70 70 0 0 0-1.8-16.2 101 101 0 0 0-3.8-13.3l-3-7.8c-.5-1.1 0-3.2 1-4l2.5-1.6 4.3 8a63.2 63.2 0 0 1 6.6 18c1.7 8.8 4.3 33.5 4 41.8h-1c.3-8.2-2.3-32.9-4-41.6a62.3 62.3 0 0 0-6.5-17.8l-3.8-7-1.6 1.1c-.6.4-.9 2-.6 2.8l3 7.7c1.3 3.5 3.4 10.3 4 13.6l.4 3.2c.8 4.6 1.3 7.6 1.3 13l.7 41.2h-1z"/><path d="m317.2 206 .6-.7 7 5-.5.8z"/><path d="M250.9 344.4c-5.6 0-10.4-5-10.9-11.6-.5-6.8 3.9-12.6 9.7-13l.7-.1c5.9 0 11.2 5.3 11.6 11.7.3 3.2-.7 6.4-2.8 8.9a11.2 11.2 0 0 1-8.3 4.1z" class="st4"/><path d="M250.4 320.7c5.1 0 10.2 4.7 10.6 10.7.5 6.3-4.2 11.6-9.5 12h-.6c-5.1 0-9.4-4.6-9.9-10.6-.4-6.3 3.5-11.7 8.8-12l.6-.1m0-2h-.8c-3.1.2-6 1.9-8 4.7-2 2.6-2.9 6-2.6 9.5.5 7 5.7 12.5 11.9 12.5h.7c3.1-.2 6.2-1.9 8.4-4.5 2.2-2.7 3.3-6.1 3-9.6-.4-6.8-6.2-12.6-12.6-12.6z"/><path d="M261 331.4c-.4-6.2-2 3.6-7.3 4-5.3.4-13.1-8.9-12.7-2.6s5.2 11 10.5 10.6c5.3-.4 10-5.7 9.5-12z" class="st18"/><path d="M257.4 331.5c-.4-4.8-4-8.4-8-8-4 .2-7 3.6-6.7 8.4.3 4.7 4 9 8 8.7s7-4.4 6.7-9.1z" class="st11"/><path d="M257.4 331.5c-.4-4.8-3.2-.2-7.2-.9-5-.7-8.3-3.4-7.4 2 .8 4.6 3.9 8.3 8 8s7-4.4 6.6-9.1z" class="st3"/><path d="m240.4 330.3-5.3-5.7c-.7-.4-1.4-.8-2.3-1l-10.5-2.4.2-1 10.5 2.4c1 .2 2 .7 2.7 1.3l5.5 5.7-.8.7zM261.1 330l-.5-.8 11-7.6c.8-.7 4.2-2 5-2.4l11.2-3.8.4 1-11.3 3.8c-1 .4-4 1.7-4.7 2.2l-11 7.6z"/><path d="M344.7 223.2h-1.2c-10.8-1.1-19.6-16.5-19.6-34.3 0-10.9 3.2-20.7 8.7-26.1a13.7 13.7 0 0 1 10.9-4.4c10.7 1 19.5 16.4 19.6 34.2 0 11-3.2 20.7-8.7 26.2a13.7 13.7 0 0 1-9.7 4.4z" class="st18"/><path d="M342.3 159.4h1.1c10.3 1 18.6 16 18.7 33.2 0 16.7-7.7 29.6-17.4 29.6h-1.1c-10.3-1.1-18.6-16-18.7-33.3 0-16.7 7.6-29.5 17.4-29.5m0-2c-3.8 0-7.4 1.6-10.4 4.6-5.7 5.7-9 15.8-9 27 0 18.5 9 34 20.5 35.1l1.3.1c3.7 0 7.4-1.6 10.4-4.7 5.7-5.7 9-15.7 9-26.9 0-18.6-9-34-20.5-35.2h-1.3z"/><ellipse cx="343" cy="189.7" class="st19" rx="18" ry="30.5" transform="rotate(-3.3 343.2 189.7)"/><ellipse cx="345" cy="190" class="st11" rx="14" ry="23.6" transform="rotate(-3.3 345.2 190)"/><ellipse cx="345" cy="190.8" class="st3" rx="14" ry="22.9" transform="rotate(-3.7 344.8 190.8)"/><path d="M332.8 179.3c-.5 2.4-.8 5-.7 7.7 0 13 6.3 24.2 14 25 3.6.3 6.9-1.6 9.3-5-2.5 4.4-6.2 7-10.3 6.6-7.7-.8-14-12-14.1-25 0-4.2.7-8.2 1.8-11.5v2.2z" class="st11"/><path d="M331.9 187c0-1.5 1.6-1.6 1.9-.1 1.7 9.1 5.7 17.9 11 19.9 8.5 3.3 15.3-6.5 13.1-24.6.8 2.8 1.2 6 1.2 9.2 0 13-5.7 22.8-13.4 22-7.8-.8-13.7-13.3-13.8-26.3z" class="st4"/><ellipse cx="347.4" cy="188.5" class="st18" rx="9.5" ry="16.1" transform="rotate(-3.5 347.2 188.5)"/><ellipse cx="348.9" cy="186.9" class="st11" rx="6.8" ry="11.6" transform="rotate(-3.5 348.6 186.8)"/><path d="M342 186.2c0-6.4 3.1-5.6 6.7-1 2.7 3.7 7-4.1 7 2.3s-3 11.3-6.7 11c-3.8-.4-7-5.8-7-12.3z" class="st3"/><path d="M352.9 169.3c-.4 0-.7 0-1-.2h-.1l-5.5-3.3a9.7 9.7 0 0 0-3.7-.7c-2.3 0-4.8.8-7.8 2.3-.3.2-.7.3-1 .3-1.5 0-2.7-1.4-2.8-3.1l-1.4-21c-.1-1.2.3-2.3 1.1-3a14.3 14.3 0 0 1 14.8-2.3l3 1.3c1 .4 1.6 1.3 1.9 2.4l5.2 22.8c.3 1.3 0 2.6-.7 3.5-.5.6-1.3 1-2 1z" class="st11"/><path d="M340 138.2c1.7 0 3.4.3 5.1 1l3 1.3c.7.3 1.1 1 1.3 1.7l5.2 22.8c.4 1.7-.5 3.3-1.7 3.3l-.6-.1-5.6-3.3c-1.3-.6-2.7-.8-4.1-.8a18 18 0 0 0-8.2 2.4l-.6.2c-.9 0-1.7-1-1.8-2.2l-1.4-20.9c0-.9.2-1.7.8-2.2 2.5-2.1 5.5-3.2 8.5-3.2m0-2c-3.5 0-7 1.2-9.8 3.7-1 .8-1.6 2.3-1.5 3.8l1.4 21c.2 2.2 1.8 4 3.8 4 .5 0 1-.2 1.5-.4 2.8-1.5 5.2-2.2 7.3-2.2 1.1 0 2.2.2 3.2.6l5.4 3.2h.1l.2.1c.4.2.9.3 1.4.3 1 0 2-.5 2.8-1.4.9-1.1 1.2-2.8.9-4.3l-5.2-22.8a4.4 4.4 0 0 0-2.5-3.1l-3-1.3c-2-.8-4-1.2-6-1.2z"/><path d="M334.4 166.5c4-2 8.1-3.3 12.3-1.6l5.6 3.3c1.4.6 2.8-1.2 2.3-3.2l-5.2-22.8c-.2-.8-.6-1.4-1.2-1.7l-3-1.2a9.2 9.2 0 0 0-6.8 0c-1 .5 4.1 3.3 3.2 4.2-.7.9-6.3 1-7.6 1.7-1.3.7-2 3.7-2 6.4v12.9c.1 1.5 1.3 2.6 2.4 2z" class="st3"/><path d="M334.4 166.5c4-2 8.1-3.3 12.3-1.6l5.6 3.3c1.4.6 2.8-1.2 2.3-3.2l-5-22.1c-1.8-.3-4 .4-4.8 7.9-1.6 15-10.6 10.8-12.8 9.5v4.2c.1 1.5 1.3 2.6 2.4 2z" class="st4"/><ellipse cx="339.9" cy="142.1" class="st21" rx="6.8" ry="2.6" transform="rotate(-5.5 340 142.3)"/><path d="M346.6 141.4c0-.2 0-.3-.2-.5-1.2-.8-3.8-1.1-6.7-.8-3 .2-5.4 1-6.4 2l-.1.6c.1 1.5 3.3 2.3 7 2 3.7-.4 6.6-1.8 6.4-3.3z" class="st18"/><path d="M336.8 144h-1a2 2 0 0 1-1.8-2l-2.8-64.3c0-.4 0-.9.3-1.2v-.2L328 2.8c0-.5.2-1 .5-1.3.3-.3.7-.5 1.2-.5s1 .2 1.3.6c1.8 2.2 3 5 3.3 7.8l5.7 64.5.1.2.3.5 6.1 65.5c0 .8-.4 1.6-1.1 1.9l-1.6.7c-2.1.9-4.5 1.3-6.9 1.3z" class="st2"/><path d="M329.6 2c.2 0 .4.1.5.3 1.7 2 2.8 4.6 3 7.2L339 74l.2.6.2.3 6.1 65.3c0 .4-.2.7-.5.8l-1.6.7a16.6 16.6 0 0 1-7.4 1.3c-.5 0-.9-.5-.9-1l-2.8-64.3c0-.3 0-.5.2-.8l.1-.6L329 2.7c0-.4.2-.7.6-.7m0-2a2.7 2.7 0 0 0-2.7 2.8l3.6 73.4c-.2.5-.3 1-.3 1.6L333 142a3 3 0 0 0 2.8 3 20 20 0 0 0 8.3-1.5l1.6-.7a2.9 2.9 0 0 0 1.7-2.9l-6.1-65.3v-.4l-.2-.4-.2-.2-5.7-64.3c-.3-3-1.6-6-3.5-8.4-.6-.6-1.3-1-2.1-1z"/><path d="M330.3 2.5c2.4 26.8 7.5 71.4 6.9 80.3-.6 9.3-1 39.8.4 56.9.1 1.8 1.8 3.2 3.5 2.8l2.2-.8.6-.2L332.5 6.6c-.4-1.5-1.2-2.8-2.2-4z" class="st22"/><g class="st23"><path d="M336.2 76.4c-1.4.6-2.2 2-2.1 3.6l1 62c0 .5.3 1 .8 1 2.6.1 5.1-.3 7.4-1.3l1.6-.6c.3-.2.5-.5.5-1l-6.1-65.3c-1.8 1-2 1.2-3.1 1.6z" class="st24"/></g><path d="M214.4 168.5c14-8.3 31.1-9.5 47.4-7.5 7.6.9 15.3 2.5 22.3 5.9 7 3.4 13.4 8.6 17.3 15.5 6.5 11.5 5.1 25.8 1.5 38.4-2.5 8.5-6.2 17.2-13.5 21.8a42.4 42.4 0 0 1-19 5l-27.7 2.8c-7.5.8-15.2 1.5-22.6-.1-9.2-2.1-17.6-8-22.8-16.2-14-21.7-3.5-53.5 17-65.6z" class="st0"/><path d="M207.5 181.2c-4.1 5.2-6.3 7.7-9 16.7-1 3.1 2.1 5.7 4.8 3.9 8.3-5.9 22-14.5 32.3-16a4.7 4.7 0 0 0 2.5-8.2l-.4-.4c-11.8-10.7-24-3.6-30.2 4z" class="st24"/><g class="st25"><path d="M279.1 238.7c-4 0-8-1.8-10.8-5-2.6-2.9-4.1-6.7-4.3-10.6-.3-4 .7-8 2.9-11 2.6-3.9 6.6-6.2 11-6.5 8.3-.5 15.5 6.5 16 15.6.3 4-.7 7.9-2.9 11a14.5 14.5 0 0 1-11.9 6.5zm0-19.2a4.8 4.8 0 0 0-4 1.9l-.3 1c0 .9 1.8 2.5 4.3 2.3 1.5 0 3-.8 3.6-1.8l.4-1c0-.3-.1-.6-.5-1a4.8 4.8 0 0 0-3.5-1.4z" class="st15"/></g><g class="st26"><path d="M279.1 234.1a10 10 0 0 1-7.5-3.5c-1.8-2-3-4.9-3.1-7.8s.6-6 2.1-8.2a10 10 0 0 1 7.6-4.5c5.7-.4 10.8 4.7 11.2 11.3.2 3-.6 6-2.1 8.2a10 10 0 0 1-8.2 4.5zm-.3-13.6c-.1.4-.3.9-.2 1.6 0 .8.2 1.3.4 1.6.2-.3.4-.9.3-1.6 0-.7-.2-1.3-.5-1.6z" class="st15"/></g><ellipse cx="278.9" cy="222.1" class="st15" rx="5.4" ry="7" transform="rotate(-3.6 279 222.1)"/><g class="st25"><path d="M213.5 247c-4.1 0-8-1.9-11-5.1-2.4-2.9-4-6.6-4.2-10.6-.6-9.1 5.7-17 14-17.5 8.2-.5 15.4 6.5 16 15.6.6 9.1-5.7 17-14 17.5h-.8zm0-19.3a5 5 0 0 0-.4 0c-2.5.2-4 2-4 3 0 .8 1.8 2.4 4.4 2.3 2.5-.2 4-2 4-3 0-.1-.2-.5-.6-.9a4.8 4.8 0 0 0-3.5-1.4z" class="st15"/></g><g class="st26"><path d="M213.5 242.4a10 10 0 0 1-7.5-3.5 13 13 0 0 1-3.2-7.9c-.4-6.6 4-12.3 9.7-12.6 5.8-.4 10.8 4.7 11.3 11.3.4 6.6-4 12.3-9.8 12.6h-.5zm-.3-13.6c-.2.3-.3.8-.3 1.6 0 .7.3 1.2.5 1.6.2-.4.3-1 .3-1.7s-.3-1.2-.5-1.5z" class="st15"/></g><ellipse cx="213.3" cy="230.4" class="st15" rx="5.4" ry="7" transform="rotate(-3.6 213.3 230.4)"/><path d="M245.3 292.6h-4a10.8 10.8 0 0 1 1.5-21.7c.2 0 28 1.3 33.3-13.8a10.8 10.8 0 0 1 20.4 7.2 39.5 39.5 0 0 1-23.6 23.4 76.7 76.7 0 0 1-27.6 5z" class="st15" opacity=".3"/><path d="m245.3 288.6-3.7-.1a6.8 6.8 0 0 1 .9-13.5c.3 0 31 1.7 37.4-16.6a6.8 6.8 0 0 1 12.8 4.5 35.1 35.1 0 0 1-21.3 21c-10 4-20.5 4.7-26 4.7z" class="st15" opacity=".5"/><path d="M270.1 280.7a32 32 0 0 0 19.3-19 3.2 3.2 0 1 0-6.1-2c-7.4 20.8-40.7 18.8-41 18.8a3.2 3.2 0 0 0-.5 6.5c1 0 15.3 1 28.3-4.3z" class="st15"/><path d="M886.6 516c19-27 4-64.6-28.3-71.3l-.8-.1c-14-2.9-60.7-18.2-74-19.8-18.3-2.2-40.8 19.6-41.7 53-1.3 46.6 43.6 50.8 62.4 64.3 9.8 7 .4.5.5.7a40.5 40.5 0 0 0 67.2 1.4l14.7-28.3z"/><path d="m904.3 551.7 71.5 51.9a13 13 0 0 1 2.5 18.8l-.9 1c-4.4 5.5-12.3 7-18.4 3.3l-80-47 27 46.2c2.9 4.8 1.5 10.9-3 14.1l-3 2.2a10.7 10.7 0 0 1-14-1.4l-87-93.1-44-33.4 13.8-78.2c1.2-7 7.7-12 14.8-11.3l96.7-6.5 31.5 6.2c3.4.6 6.9 1 10.3 1.3 12.6 1 43.2 2.4 65-3.6 9.8-2.8 16.7 10.6 10.6 18.8-6.5 8.7-30.1 21.9-66.7 20h-8l20 10.7 24.8 10.6 63 26.9c9 2.9 15 11.5 11.8 21.6l-.8 2.8a15.2 15.2 0 0 1-19.3 10.5L919 510.3l82.3 41.1 22 11c11.7 5 12 16 8.8 22.2l-2.7 5.3c-3 5.6-12.2 10.9-22.2 6.4l-102.9-44.6z"/><path d="m912.1 481.4-.5 1.4c-2.8 7.6 1 16 8.6 18.9l20.8 7.9c7.9 3 16.8-1 19.6-9l.3-.9a15 15 0 0 0-8.4-18.6l-20.5-8.4c-8-3-17 .9-19.9 8.7z" class="st9"/><path d="m912 483.7-.5 1.3c-2.7 7.1 1 15 8.4 17.7l20 7.5c7.7 2.8 16.4-1 19-8.4l.4-.9c2.5-7-1.1-14.5-8.2-17.3l-19.8-8c-7.7-3-16.4.7-19.2 8.1zM897.4 521.7l-.7 1.4c-3.4 7.6 0 16.6 7.7 20l21 9.6c8 3.7 17.5 0 20.9-8l.3-.8c3.2-7.5 0-16-7.4-19.8l-20.7-10c-8-3.8-17.6-.4-21.1 7.6z" class="st9"/><path d="m897.2 524-.7 1.4c-3.2 7.2 0 15.6 7.5 18.9l20.3 9c7.7 3.4 17 0 20.2-7.4l.4-1c3-6.9-.2-15-7.3-18.4l-20-9.5c-7.7-3.6-17-.4-20.4 7zM969.4 502.9l-1 2.5c-2.7 6.1.6 13 7.2 15.2l11.4 3.9c6 2 12.8-.8 15.3-6.5l1-2c2.6-6.1-.5-13-6.9-15.4l-11.3-4.2c-6.3-2.3-13.3.6-15.7 6.5z" class="st9"/><path d="m969.3 505.8-1 2.3c-2.5 5.7.7 12.2 7 14.2l11 3.7a12 12 0 0 0 14.6-6l.9-2c2.6-5.7-.4-12.2-6.5-14.4l-11-4a12 12 0 0 0-15 6.2zM956.2 547.5l-1.5 2.7c-3.7 6.5-.8 14.7 6.3 18l12.7 5.7c6.7 3.1 14.7.8 18.2-5.2l1.4-2.3c3.8-6.4 1.1-14.5-5.9-18l-12.4-6.1c-6.9-3.4-15.3-1-18.8 5.2z" class="st9"/><path d="m955.7 550.7-1.4 2.5c-3.5 6-.7 13.7 6.2 16.8l12 5.5c6.5 2.9 14.2.7 17.6-4.9l1.3-2c3.6-6 1-13.7-5.7-17l-12-5.7c-6.5-3.2-14.6-1-18 4.8zM1011.4 520.7c-2.3 6.3.9 13.3 7.3 15.9l.4.1c6.8 2.7 14.6-.5 17.2-7.1 2.5-6.5-.8-13.7-7.5-16.2l-.4-.2c-6.9-2.5-14.5.9-17 7.5z" class="st9"/><path d="M1011.4 523.4c-2.3 5.7.8 12 7.1 14.3l.5.1c6.6 2.4 14.2-.5 16.7-6.4s-.8-12.4-7.3-14.6l-.4-.1c-6.7-2.3-14.2.7-16.6 6.7zM879.4 556l-.7 1a12.6 12.6 0 0 0 4.1 17.3l16.2 10.1a13 13 0 0 0 18-4.2l.4-.7a12.8 12.8 0 0 0-4-17l-15.8-10.6a13.1 13.1 0 0 0-18.2 4z" class="st9"/><path d="m879 557.8-.7 1a11.7 11.7 0 0 0 4.1 16.4l15.6 9.6c6 3.7 14 1.9 17.4-4l.4-.6a11.7 11.7 0 0 0-4-16l-15.3-9.9c-6-3.8-13.9-2.2-17.5 3.5zM922.9 585.4l-1.3 1.9a9.8 9.8 0 0 0 3.5 14l9 5.2a10.6 10.6 0 0 0 14-2.9l1.1-1.6a9.8 9.8 0 0 0-3.2-14l-8.8-5.5c-4.9-3-11.2-1.7-14.3 2.9z" class="st9"/><path d="m922.3 587.8-1.2 1.8c-3 4.4-1.5 10.4 3.5 13.1l8.6 5a10.3 10.3 0 0 0 13.4-2.7l1-1.5c3.2-4.3 1.8-10.3-3-13.2l-8.5-5.1a10.3 10.3 0 0 0-13.8 2.6zM955.3 607.4c-3 5-1.5 11.3 3.5 14.6l.3.2c5.3 3.4 12.4 2 15.7-3.2 3.2-5 1.6-11.6-3.6-14.8l-.4-.2a11.3 11.3 0 0 0-15.5 3.4z" class="st9"/><path d="M954.8 609.7c-2.9 4.4-1.3 10.2 3.7 13.2l.3.2c5.2 3.1 12 2 15.2-2.7 3-4.4 1.4-10.5-3.7-13.4l-.4-.2c-5.2-3-12-1.8-15 2.9zM849.5 575.6l-.7.8c-3.7 4.1-3.8 10.4-.4 14.1l9.4 10c3.6 4 9.7 3.5 13.4-.9l.4-.5c3.5-4 3.7-10 .5-13.8l-9.1-10.4c-3.6-3.8-9.7-3.6-13.5.7z" class="st9"/><path d="m848.8 577-.6.8c-3.5 3.9-3.6 9.8-.3 13.3l9.2 9.6c3.5 3.7 9.3 3.4 12.9-.7l.4-.5a10 10 0 0 0 .2-13l-8.8-9.9c-3.4-3.8-9.3-3.5-13 .5zM873.5 603.8l-1.3 1a7 7 0 0 0-.8 10.2l4.9 5.5c2.5 2.9 7 3.4 10 1.2l1-.8a7 7 0 0 0 1.1-10.1l-4.7-5.7a7.5 7.5 0 0 0-10.2-1.3z" class="st9"/><path d="m872.6 605.3-1.3 1c-3 2.2-3.3 6.6-.6 9.5l4.7 5.2a7.3 7.3 0 0 0 9.5 1.3l1.1-.8c3-2.2 3.4-6.5.9-9.5l-4.6-5.3a7.3 7.3 0 0 0-9.7-1.4zM889 625.4a7.4 7.4 0 0 0-.9 10.4l.2.2c2.7 3.4 7.7 4 11 1.4a7.4 7.4 0 0 0 .9-10.6l-.2-.2a7.9 7.9 0 0 0-11-1.2z" class="st9"/><path d="M888.2 626.8c-2.9 2.3-3.1 6.5-.5 9.5l.1.2c2.8 3.2 7.6 4 10.6 1.6 3-2.2 3.3-6.6.5-9.7l-.1-.2c-2.8-3.1-7.6-3.8-10.6-1.4zM1003 569.5a12.8 12.8 0 0 0 1.7 17.8l.3.3a13.4 13.4 0 0 0 19-1.2 12.8 12.8 0 0 0-1.8-18.2l-.3-.3c-5.8-4.8-14.3-4-19 1.6z" class="st9"/><path d="M1002 572c-4 4.8-3.2 12 2.1 16.3l.4.3c5.6 4.6 13.9 4.3 18.3-.7 4.4-4.8 3.4-12.2-2.1-16.6l-.4-.2c-5.7-4.5-14-4-18.3 1z" class="st9"/><path d="M906.4 449.4c.4 10.2-4.3 10-13.9 13.5-22.7 8.3-64 21.7-95.7 10.5-39.4-14-27.9-29.1-20.8-35.1 2-1.8 4.4-2.9 7-3.2l72.5-10.3a91.6 91.6 0 0 1 40.4 1.8l5.7 1.6c3.8 1 6.5 5.5 6.6 9.4l-1.8 11.8z" class="st2"/><path d="M909 444.9c.4 9-5.9 17.3-15.5 20.5-22.8 7.5-65.1 18.4-96.7 8.7-31.5-9.7-30.3-20.3-24.9-27 3.3-3.9 8-6.4 13-7.2l71.5-13.3a103 103 0 0 1 40.4 1.4l5.7 1.3c3.8 1 6.2 5.5 6.3 9l.3 6.6zM776.8 474.3c25.2 9.2 90.6 30.7 68.5 75.8-5 10.3-14 17.3-23.1 10.5-22.8-17.3-60.6-49.3-65.6-76.5-1.7-9.5 11.1-13 20.2-9.8zM914 443.6v1c.3 7.3 7.4 12.9 15.8 12.3l15.8-1.2c8-.6 13.8-6.5 13.4-13.4-.5-6.8-7-12-14.7-12l-16 .2c-8 0-14.5 6-14.3 13zM964.4 442.1l.3.8c1.8 5.7 8 8.6 13.5 6.4l10.6-4.1c5.2-2 7.8-7.9 6-13.1-2-5.2-7.6-8-12.9-6.4l-10.7 3.3a10.3 10.3 0 0 0-6.8 13.1z" class="st9"/></svg>
