<svg width="76" height="76" fill="none" xmlns="http://www.w3.org/2000/svg"><rect x="4" y="4" width="72" height="72" rx="8" fill="#1F9ECF"/><rect width="72" height="72" rx="8" fill="#fff"/><g clip-path="url(#prefix__clip0_915_1892)"><path d="M42.035 55h-12.07H26a1.189 1.189 0 010-2.375h2.988l1.154-4.542H19.284c-1.805 0-3.284-1.485-3.284-3.325V20.266C16 18.455 17.48 17 19.284 17h33.432C54.521 17 56 18.455 56 20.266v21.523c0 .653-.532 1.188-1.183 1.188s-1.184-.535-1.184-1.188V20.266c0-.475-.414-.891-.917-.891H19.284c-.503 0-.917.416-.917.89v20.396c0 .356.266.653.562.653h19.024a1.189 1.189 0 010 2.375H18.929c-.207 0-.385 0-.562-.06v1.129c0 .534.414.95.917.95h22.367c.65 0 1.183.534 1.183 1.187s-.503 1.128-1.094 1.188c.118.237.207.505.266.742l.976 3.8h2.988a1.189 1.189 0 010 2.375H42.035zm-10.562-2.375h9.054l-.829-3.206a1.77 1.77 0 00-1.716-1.336h-5.355l-1.154 4.542zm19.557-.386a1.723 1.723 0 01-1.361-.653l-1.184-1.514-11.331-14.399s-.119-.148-.148-.237c0-.06-.06-.119-.06-.178v-.09l-1.094-4.63c-.148-.683.089-1.396.651-1.811a1.755 1.755 0 011.894-.149l3.994 2.197s.059.03.088.06c.06.03.089.059.148.118l.178.178L54.136 45.53l1.183 1.514c.444.534.503 1.276.178 1.9-1.006 1.87-2.041 2.701-3.965 3.236a2.29 2.29 0 01-.473.06h-.03zm0-2.731l.207.267c.917-.297 1.39-.712 1.923-1.603l-.207-.238-1.923 1.574zM40.024 35.525l9.556 12.113 1.923-1.574-9.468-12.023s-.059.059-.118.059c-.148.09-.296.148-.444.178a1.642 1.642 0 01-.858.653 1.397 1.397 0 01-.384.446c-.06.059-.119.089-.207.148zm-.71-2.019v0zm-.917-2.197l.414 1.782s.118-.12.207-.178c.148-.12.325-.208.503-.268.088-.178.236-.326.384-.445 0 0 .03 0 .06-.03l-1.539-.86h-.03z" fill="#39B6E8"/></g><defs><clipPath id="prefix__clip0_915_1892"><path fill="#fff" transform="translate(16 17)" d="M0 0h40v38H0z"/></clipPath></defs></svg>