<svg xmlns="http://www.w3.org/2000/svg" fill="none" viewBox="0 0 1760 852"><g opacity=".7"><path fill="#3195BC" d="M935.6 101.4c.9 0 1.5-.7 1.5-1.5 0-.9-.6-1.5-1.5-1.5-.8 0-1.5.6-1.5 1.5 0 .8.7 1.5 1.5 1.5ZM1033.4 152.4c.9 0 1.5-.7 1.5-1.5s-.6-1.5-1.5-1.5c-.8 0-1.5.7-1.5 1.5s.7 1.5 1.5 1.5Z"/><path fill="#98D5E5" d="M1024.2 155.3c.8 0 1.5-.7 1.5-1.5 0-.9-.7-1.5-1.5-1.5-.9 0-1.5.6-1.5 1.5 0 .8.6 1.5 1.5 1.5Z"/><path fill="#3195BC" d="M1045.4 59.1c.8 0 1.5-.6 1.5-1.5 0-.8-.7-1.5-1.5-1.5a1.5 1.5 0 1 0 0 3ZM976 49.2c1 0 1.6-.7 1.6-1.5 0-.9-.7-1.6-1.5-1.6-.9 0-1.6.7-1.6 1.6 0 .8.7 1.5 1.6 1.5ZM983 56.4c1 0 1.6-.6 1.6-1.5 0-.8-.7-1.5-1.5-1.5-.9 0-1.6.7-1.6 1.5 0 .9.7 1.5 1.6 1.5Z"/><path fill="#98D5E5" d="M1060.4 101.7c.8 0 1.5-.7 1.5-1.5s-.7-1.5-1.5-1.5c-.9 0-1.6.7-1.6 1.5s.7 1.5 1.6 1.5Z"/><path fill="#3195BC" d="M1115.5 111.4c.9 0 1.6-.7 1.6-1.6 0-.8-.7-1.5-1.6-1.5-.8 0-1.5.7-1.5 1.5 0 .9.7 1.6 1.5 1.6ZM1193 178.4c.9 0 1.6-.6 1.6-1.5 0-.8-.7-1.5-1.6-1.5-.8 0-1.5.7-1.5 1.5 0 .9.7 1.5 1.5 1.5Z"/><path fill="#98D5E5" d="M1128.3 196c.9 0 1.6-.7 1.6-1.5s-.7-1.5-1.6-1.5a1.5 1.5 0 1 0 0 3Z"/><path fill="#3195BC" d="M1096.7 165.4c.9 0 1.6-.6 1.6-1.5 0-.8-.7-1.5-1.6-1.5a1.5 1.5 0 1 0 0 3Z"/><path fill="#98D5E5" d="M1293.2 3c.9 0 1.6-.6 1.6-1.5 0-.8-.7-1.5-1.6-1.5-.8 0-1.5.7-1.5 1.5 0 .9.7 1.5 1.5 1.5ZM1262.2 34.5c.8 0 1.5-.7 1.5-1.5 0-.9-.7-1.6-1.5-1.6-.9 0-1.6.7-1.6 1.6 0 .8.7 1.5 1.6 1.5Z"/><path fill="#3195BC" d="M1325.8 99.7c.9 0 1.6-.7 1.6-1.5 0-.9-.7-1.5-1.6-1.5a1.5 1.5 0 1 0 0 3ZM1418 77.7c.8 0 1.5-.6 1.5-1.5 0-.8-.7-1.5-1.5-1.5a1.5 1.5 0 1 0 0 3Z"/><path fill="#98D5E5" d="M1406.6 6.6c.8 0 1.5-.7 1.5-1.5 0-.9-.7-1.5-1.5-1.5a1.5 1.5 0 1 0 0 3ZM1429.8 44.4a1.5 1.5 0 1 0 0-3c-.9 0-1.6.7-1.6 1.5 0 .9.7 1.5 1.6 1.5Z"/><path fill="#D6262C" d="M1424 40.9c.8 0 1.5-.7 1.5-1.5 0-.9-.7-1.5-1.5-1.5-.9 0-1.6.6-1.6 1.5 0 .8.7 1.5 1.6 1.5Z"/><path fill="#3195BC" d="M1417.7 46.6a1.5 1.5 0 1 0 0-3c-.9 0-1.6.7-1.6 1.5 0 .9.7 1.5 1.6 1.5ZM1475.5 89a1.5 1.5 0 1 0 0-3c-.8 0-1.5.7-1.5 1.5 0 .9.7 1.6 1.5 1.6ZM1468.4 96.3c.8 0 1.5-.7 1.5-1.5s-.7-1.5-1.5-1.5c-.9 0-1.6.7-1.6 1.5s.7 1.5 1.6 1.5ZM1519.6 188.3a1.5 1.5 0 1 0 0-3c-.9 0-1.6.7-1.6 1.5 0 .9.7 1.5 1.6 1.5ZM1495.2 230.2c.9 0 1.6-.7 1.6-1.6 0-.8-.7-1.5-1.6-1.5-.8 0-1.5.7-1.5 1.5 0 .9.7 1.6 1.5 1.6ZM1505.7 220c.9 0 1.6-.7 1.6-1.5s-.7-1.5-1.6-1.5a1.5 1.5 0 1 0 0 3ZM1674.5 204.6c.8 0 1.5-.7 1.5-1.6 0-.8-.7-1.5-1.5-1.5-.9 0-1.6.7-1.6 1.5 0 .9.7 1.6 1.6 1.6ZM1637.6 134.6a1.5 1.5 0 1 0 0-3c-.8 0-1.5.6-1.5 1.5 0 .8.7 1.5 1.5 1.5ZM1614 164.3c.9 0 1.6-.7 1.6-1.6 0-.8-.7-1.5-1.5-1.5-.9 0-1.6.7-1.6 1.5 0 .9.7 1.6 1.5 1.6ZM1577.7 227.4c.8 0 1.5-.7 1.5-1.6 0-.8-.7-1.5-1.5-1.5a1.5 1.5 0 1 0 0 3ZM1452.7 267.4c.9 0 1.6-.7 1.6-1.5s-.7-1.5-1.6-1.5c-.8 0-1.5.7-1.5 1.5s.7 1.5 1.5 1.5ZM1731.3 77c.9 0 1.6-.6 1.6-1.5 0-.8-.7-1.5-1.6-1.5a1.5 1.5 0 1 0 0 3ZM1710.6 95c.8 0 1.5-.6 1.5-1.5 0-.8-.7-1.5-1.5-1.5-.9 0-1.6.7-1.6 1.5 0 .9.7 1.6 1.6 1.6Z"/><path fill="#98D5E5" d="M644.5 289c.9 0 1.6-.6 1.6-1.5 0-.8-.7-1.5-1.6-1.5-.8 0-1.5.7-1.5 1.5 0 .9.7 1.6 1.5 1.6ZM792.8 272.3c.8 0 1.5-.6 1.5-1.5 0-.8-.7-1.5-1.5-1.5-.9 0-1.6.7-1.6 1.5 0 .9.7 1.5 1.6 1.5Z"/><path fill="#3195BC" d="M770.8 285.5c.8 0 1.5-.7 1.5-1.5s-.7-1.5-1.5-1.5c-.9 0-1.6.7-1.6 1.5s.7 1.5 1.5 1.5Z"/><path fill="#98D5E5" d="M664.7 226.7c.9 0 1.6-.7 1.6-1.5 0-.9-.7-1.5-1.6-1.5-.8 0-1.5.6-1.5 1.5 0 .8.7 1.5 1.5 1.5Z"/><path fill="#3195BC" d="M704.7 252.8c.8 0 1.5-.7 1.5-1.5s-.7-1.5-1.5-1.5c-.9 0-1.5.7-1.5 1.5s.6 1.5 1.5 1.5ZM645 236.6c.9 0 1.6-.7 1.6-1.5 0-.9-.7-1.5-1.6-1.5-.8 0-1.5.6-1.5 1.5 0 .8.7 1.5 1.5 1.5Z"/><path fill="#98D5E5" d="M704.4 383.9c.9 0 1.6-.7 1.6-1.6 0-.8-.7-1.5-1.6-1.5-.8 0-1.5.7-1.5 1.5 0 .9.7 1.6 1.5 1.6Z"/><path fill="#3195BC" d="M726.7 333.7c.9 0 1.5-.7 1.5-1.5 0-.9-.6-1.6-1.5-1.6-.8 0-1.5.7-1.5 1.6 0 .8.7 1.5 1.5 1.5ZM716.5 342.3c.8 0 1.5-.7 1.5-1.5 0-.9-.7-1.5-1.5-1.5-.9 0-1.6.6-1.6 1.5 0 .8.7 1.5 1.6 1.5ZM598 364.9c.8 0 1.5-.7 1.5-1.6 0-.8-.7-1.5-1.6-1.5-.8 0-1.5.7-1.5 1.5 0 .9.7 1.6 1.5 1.6ZM626.3 436.8c.9 0 1.6-.6 1.6-1.5 0-.8-.7-1.5-1.6-1.5-.8 0-1.5.7-1.5 1.5 0 .9.7 1.5 1.5 1.5Z"/><path fill="#D6262C" d="M639.4 426.4c.8 0 1.5-.6 1.5-1.5 0-.8-.7-1.5-1.5-1.5-.9 0-1.5.7-1.5 1.5 0 .9.6 1.5 1.5 1.5Z"/><path fill="#3195BC" d="M599.2 479.2c.8 0 1.5-.7 1.5-1.6 0-.8-.7-1.5-1.5-1.5-.9 0-1.5.7-1.5 1.5 0 .9.6 1.6 1.5 1.6ZM595.1 494.9c.8 0 1.5-.7 1.5-1.5 0-.9-.7-1.6-1.5-1.6s-1.5.7-1.5 1.6c0 .8.7 1.5 1.5 1.5ZM579.2 163.8c.9 0 1.6-.6 1.6-1.5 0-.8-.7-1.5-1.6-1.5-.8 0-1.5.7-1.5 1.5 0 .9.7 1.5 1.5 1.5ZM1632.2 88.7c.9 0 1.6-.7 1.6-1.5s-.7-1.5-1.6-1.5c-.8 0-1.5.7-1.5 1.5s.7 1.5 1.5 1.5ZM1599.5 57.5a1.5 1.5 0 1 0 0-3c-.9 0-1.6.7-1.6 1.5 0 .9.7 1.5 1.6 1.5ZM1552.3 113.3c.9 0 1.6-.7 1.6-1.5 0-.9-.7-1.5-1.6-1.5a1.5 1.5 0 1 0 0 3ZM1342.9 113.2c.8 0 1.5-.7 1.5-1.5s-.7-1.5-1.5-1.5a1.5 1.5 0 1 0 0 3ZM1221.5 12.8c.9 0 1.6-.6 1.6-1.5 0-.8-.7-1.5-1.6-1.5-.8 0-1.5.7-1.5 1.5 0 .9.7 1.5 1.5 1.5Z"/><path fill="#98D5E5" d="M1433.7 137.6a1.5 1.5 0 1 0 0-3c-.8 0-1.5.6-1.5 1.4 0 .9.7 1.6 1.5 1.6Z"/><path fill="#3195BC" d="M1377.5 73c.9 0 1.6-.7 1.6-1.5 0-.9-.7-1.5-1.6-1.5-.8 0-1.5.6-1.5 1.5 0 .8.7 1.5 1.5 1.5Z"/><path fill="#D6262C" d="M1279.6 335c.8 0 1.5-.7 1.5-1.5s-.7-1.5-1.5-1.5a1.5 1.5 0 1 0 0 3ZM1564.8 261.5c.9 0 1.5-.7 1.5-1.5 0-.9-.6-1.5-1.5-1.5-.8 0-1.5.6-1.5 1.5 0 .8.7 1.5 1.5 1.5ZM1736.1 103a1.5 1.5 0 1 0 0-3c-.8 0-1.5.7-1.5 1.6 0 .8.7 1.5 1.5 1.5ZM1490 185.7c.9 0 1.6-.7 1.6-1.5s-.7-1.5-1.6-1.5c-.8 0-1.5.7-1.5 1.5s.7 1.5 1.5 1.5Z"/><path fill="#98D5E5" d="M1280.4 240.3c.9 0 1.5-.7 1.5-1.5 0-.9-.6-1.5-1.5-1.5-.8 0-1.5.6-1.5 1.5 0 .8.7 1.5 1.5 1.5ZM1244 203.1a1.5 1.5 0 1 0 0-3c-.8 0-1.5.7-1.5 1.5s.7 1.5 1.6 1.5Z"/><path fill="#fff" d="M1447.7 179.8c.8 0 1.5-.7 1.5-1.5 0-.9-.7-1.5-1.5-1.5a1.5 1.5 0 1 0 0 3Z"/><path fill="#3195BC" d="M1576.8 167.1c.8 0 1.5-.7 1.5-1.5s-.7-1.5-1.5-1.5c-.9 0-1.6.7-1.6 1.5s.7 1.5 1.5 1.5Z"/><path fill="#98D5E5" d="M1582.1 178.5a1.5 1.5 0 1 0 0-3c-.8 0-1.5.7-1.5 1.5 0 .9.7 1.5 1.5 1.5Z"/><path fill="#3195BC" d="M1411.6 332.4c.9 0 1.5-.7 1.5-1.5 0-.9-.6-1.5-1.5-1.5-.8 0-1.5.6-1.5 1.5 0 .8.7 1.5 1.5 1.5ZM1363.7 299a1.5 1.5 0 1 0 0-3.1c-.8 0-1.5.7-1.5 1.5 0 .9.7 1.5 1.5 1.5ZM1372.4 311.9c.9 0 1.6-.7 1.6-1.6 0-.8-.7-1.5-1.6-1.5a1.5 1.5 0 1 0 0 3Z"/><path fill="#98D5E5" d="M1383.5 398.9a1.5 1.5 0 1 0 0-3c-.8 0-1.5.6-1.5 1.5 0 .8.7 1.5 1.5 1.5Z"/><path fill="#3195BC" d="M1386.4 388.2c.9 0 1.6-.6 1.6-1.5 0-.8-.7-1.5-1.6-1.5-.8 0-1.5.7-1.5 1.5 0 .9.7 1.5 1.5 1.5ZM1247.5 288.9c.8 0 1.5-.7 1.5-1.5 0-.9-.7-1.6-1.5-1.6a1.5 1.5 0 1 0 0 3ZM1328.9 360.3c.8 0 1.5-.7 1.5-1.5 0-.9-.7-1.6-1.5-1.6-.9 0-1.5.7-1.5 1.6 0 .8.6 1.5 1.5 1.5ZM1142.8 498.7c.9 0 1.6-.7 1.6-1.5 0-.9-.7-1.6-1.6-1.6a1.5 1.5 0 1 0 0 3ZM1171.2 508.5a1.5 1.5 0 1 0 0-3c-.9 0-1.6.6-1.6 1.5 0 .8.7 1.5 1.6 1.5ZM1105.6 543c.9 0 1.6-.7 1.6-1.6 0-.8-.7-1.5-1.6-1.5-.8 0-1.5.7-1.5 1.5 0 .9.7 1.5 1.5 1.5ZM1099 489.2c.8 0 1.5-.7 1.5-1.5s-.7-1.5-1.5-1.5a1.5 1.5 0 1 0 0 3ZM1099 472c.8 0 1.5-.7 1.5-1.5 0-.9-.7-1.6-1.5-1.6a1.5 1.5 0 1 0 0 3Z"/><path fill="#D6262C" d="M984.3 416.7c.8 0 1.5-.7 1.5-1.5s-.7-1.5-1.5-1.5c-.9 0-1.6.7-1.6 1.5s.7 1.5 1.6 1.5Z"/><path fill="#fff" d="M1025.2 448.7c.9 0 1.6-.7 1.6-1.6 0-.8-.7-1.5-1.6-1.5-.8 0-1.5.7-1.5 1.5 0 .9.7 1.6 1.5 1.6Z"/><path fill="#3195BC" d="M933 499.4c.9 0 1.6-.7 1.6-1.6 0-.8-.7-1.5-1.6-1.5-.8 0-1.5.7-1.5 1.5 0 .9.7 1.6 1.5 1.6Z"/><path fill="#98D5E5" d="M930.5 476.5c.8 0 1.5-.6 1.5-1.5 0-.8-.7-1.5-1.5-1.5-.9 0-1.6.7-1.6 1.5 0 .9.7 1.5 1.6 1.5Z"/><path fill="#D6262C" d="M1033.4 579c.9 0 1.5-.7 1.5-1.6 0-.8-.6-1.5-1.5-1.5-.8 0-1.5.7-1.5 1.5 0 .9.7 1.5 1.5 1.5Z"/><path fill="#3195BC" d="M1002.2 608.3c.8 0 1.5-.6 1.5-1.5 0-.8-.7-1.5-1.5-1.5-.9 0-1.6.7-1.6 1.5 0 .9.7 1.5 1.6 1.5ZM1024.7 609.4c.9 0 1.5-.7 1.5-1.6 0-.8-.6-1.5-1.5-1.5-.8 0-1.5.7-1.5 1.5 0 .9.7 1.6 1.5 1.6Z"/><path fill="#D6262C" d="M1058.5 720.9a1.5 1.5 0 1 0 0-3c-.8 0-1.5.6-1.5 1.5 0 .8.7 1.5 1.5 1.5Z"/><path fill="#3195BC" d="M927.4 364c.9 0 1.5-.7 1.5-1.5 0-.9-.6-1.5-1.5-1.5-.8 0-1.5.6-1.5 1.5 0 .8.7 1.5 1.5 1.5Z"/><path fill="#98D5E5" d="M1013 502.4c.8 0 1.5-.7 1.5-1.5 0-.9-.7-1.5-1.6-1.5-.8 0-1.5.6-1.5 1.5 0 .8.7 1.5 1.5 1.5Z"/><path fill="#3195BC" d="M1001.7 495.3c.8 0 1.5-.7 1.5-1.5 0-.9-.7-1.5-1.5-1.5-.9 0-1.6.6-1.6 1.5 0 .8.7 1.5 1.6 1.5ZM1024.7 537.4c.9 0 1.5-.7 1.5-1.5 0-.9-.6-1.6-1.5-1.6-.8 0-1.5.7-1.5 1.6 0 .8.7 1.5 1.5 1.5ZM847.5 729c.9 0 1.6-.7 1.6-1.5 0-.9-.7-1.5-1.6-1.5-.8 0-1.5.6-1.5 1.5 0 .8.7 1.5 1.5 1.5ZM820.9 701.6c.8 0 1.5-.7 1.5-1.5s-.7-1.5-1.5-1.5c-.9 0-1.5.7-1.5 1.5s.6 1.5 1.5 1.5ZM805 742.2c.9 0 1.6-.7 1.6-1.5 0-.9-.7-1.6-1.6-1.6-.8 0-1.5.7-1.5 1.6 0 .8.7 1.5 1.5 1.5Z"/><path fill="#98D5E5" d="M816.3 739.6c.8 0 1.5-.6 1.5-1.5 0-.8-.7-1.5-1.5-1.5-.9 0-1.6.7-1.6 1.5 0 .9.7 1.5 1.6 1.5ZM878.2 821.3c.9 0 1.6-.7 1.6-1.6 0-.8-.7-1.5-1.6-1.5-.8 0-1.5.7-1.5 1.5 0 .9.7 1.6 1.5 1.6Z"/><path fill="#3195BC" d="M842.4 798c.9 0 1.5-.7 1.5-1.6 0-.8-.6-1.5-1.5-1.5-.8 0-1.5.7-1.5 1.5 0 .9.7 1.5 1.5 1.5ZM1227 838.5a1.5 1.5 0 1 0 0-3c-.9 0-1.5.6-1.5 1.5 0 .8.6 1.5 1.5 1.5ZM1295.1 842c.8 0 1.5-.6 1.5-1.5 0-.8-.7-1.5-1.5-1.5s-1.5.7-1.5 1.5c0 .9.7 1.5 1.5 1.5ZM1288 821.8a1.5 1.5 0 1 0 0-3c-1 0-1.6.6-1.6 1.5 0 .8.7 1.5 1.5 1.5ZM1183.8 558.2c.9 0 1.5-.7 1.5-1.6 0-.8-.6-1.5-1.5-1.5-.8 0-1.5.7-1.5 1.5 0 .9.7 1.6 1.5 1.6Z"/><path fill="#fff" d="M1174.2 546.7c.9 0 1.6-.7 1.6-1.6 0-.8-.7-1.5-1.6-1.5a1.5 1.5 0 1 0 0 3Z"/><path fill="#98D5E5" d="M1347.3 614.8c.9 0 1.6-.7 1.6-1.6 0-.8-.7-1.5-1.6-1.5-.8 0-1.5.7-1.5 1.5 0 .9.7 1.6 1.5 1.6Z"/><path fill="#3195BC" d="M1328.2 621.2c.9 0 1.5-.7 1.5-1.5 0-.9-.6-1.6-1.5-1.6a1.5 1.5 0 1 0 0 3Z"/><path fill="#D6262C" d="M1403 679.7a1.5 1.5 0 1 0 0-3c-.9 0-1.6.6-1.6 1.4 0 .9.7 1.6 1.6 1.6ZM1338.8 705.7c.8 0 1.5-.7 1.5-1.5 0-.9-.7-1.6-1.5-1.6s-1.5.7-1.5 1.6c0 .8.7 1.5 1.5 1.5Z"/><path fill="#3195BC" d="M1325.8 692.2c.9 0 1.6-.7 1.6-1.6 0-.8-.7-1.5-1.6-1.5a1.5 1.5 0 1 0 0 3ZM1214.2 661c.8 0 1.5-.6 1.5-1.5 0-.8-.7-1.5-1.5-1.5-.9 0-1.5.7-1.5 1.5 0 .9.6 1.6 1.5 1.6ZM1227.2 650.3a1.5 1.5 0 1 0 0-3c-.9 0-1.6.6-1.6 1.4 0 .9.7 1.6 1.6 1.6ZM1139.8 641.1c.8 0 1.5-.7 1.5-1.5s-.7-1.5-1.5-1.5c-.9 0-1.6.7-1.6 1.5s.7 1.5 1.6 1.5ZM1154.4 696.2c.9 0 1.6-.7 1.6-1.5s-.7-1.5-1.6-1.5c-.8 0-1.5.7-1.5 1.5s.7 1.5 1.5 1.5ZM1151.7 707.5c.9 0 1.5-.6 1.5-1.5 0-.8-.6-1.5-1.5-1.5-.8 0-1.5.7-1.5 1.5 0 .9.7 1.5 1.5 1.5ZM1098.8 663.8c.8 0 1.5-.7 1.5-1.5 0-.9-.7-1.6-1.5-1.6a1.5 1.5 0 1 0 0 3ZM1238.4 744.5c.9 0 1.6-.6 1.6-1.5 0-.8-.7-1.5-1.6-1.5-.8 0-1.5.7-1.5 1.5 0 .9.7 1.5 1.5 1.5Z"/><path fill="#98D5E5" d="M1257.9 743.9c.8 0 1.5-.7 1.5-1.6 0-.8-.7-1.5-1.5-1.5a1.5 1.5 0 1 0 0 3Z"/><path fill="#3195BC" d="M1357.6 742.5c.8 0 1.5-.7 1.5-1.5s-.7-1.5-1.5-1.5a1.5 1.5 0 1 0 0 3Z"/><path fill="#fff" d="M1304.7 768.2c.8 0 1.5-.7 1.5-1.5 0-.9-.7-1.5-1.5-1.5-.9 0-1.6.6-1.6 1.5 0 .8.7 1.5 1.6 1.5Z"/><path fill="#3195BC" d="M1365 787.1c1 0 1.6-.7 1.6-1.5s-.7-1.5-1.5-1.5a1.5 1.5 0 1 0 0 3ZM1165.4 817.5c.8 0 1.5-.6 1.5-1.5 0-.8-.7-1.5-1.5-1.5-.9 0-1.6.7-1.6 1.5 0 .9.7 1.5 1.6 1.5ZM1182.4 769.2c.9 0 1.6-.7 1.6-1.5s-.7-1.5-1.6-1.5c-.8 0-1.5.7-1.5 1.5s.7 1.5 1.5 1.5ZM1110.7 771c.9 0 1.6-.8 1.6-1.6 0-.9-.7-1.5-1.6-1.5a1.5 1.5 0 1 0 0 3ZM1552.8 726.6c.9 0 1.6-.6 1.6-1.5 0-.8-.7-1.5-1.6-1.5a1.5 1.5 0 1 0 0 3Z"/><path fill="#98D5E5" d="M1461.7 704c.8 0 1.5-.7 1.5-1.5 0-.9-.7-1.6-1.5-1.6-.9 0-1.5.7-1.5 1.6 0 .8.6 1.5 1.5 1.5Z"/><path fill="#3195BC" d="M1471 729.3c.8 0 1.5-.6 1.5-1.5 0-.8-.7-1.5-1.6-1.5-.8 0-1.5.7-1.5 1.5 0 .9.7 1.5 1.5 1.5ZM1097.4 646.7a1.5 1.5 0 1 0 0-3c-.8 0-1.5.6-1.5 1.5 0 .8.7 1.5 1.5 1.5Z"/><path fill="#fff" d="M1328.4 266.7c.8 0 1.5-.6 1.5-1.5 0-.8-.7-1.5-1.5-1.5a1.5 1.5 0 1 0 0 3Z"/><path fill="#3195BC" d="M1338.9 250.8c.8 0 1.5-.7 1.5-1.5 0-.9-.7-1.6-1.5-1.6-.9 0-1.6.7-1.6 1.6 0 .8.7 1.5 1.6 1.5Z"/><path fill="#98D5E5" d="M1659.7 312.1c.9 0 1.5-.7 1.5-1.5s-.6-1.5-1.5-1.5c-.8 0-1.5.7-1.5 1.5s.7 1.5 1.5 1.5Z"/><path fill="#3195BC" d="M1668.7 294.4c.8 0 1.5-.7 1.5-1.5 0-.9-.7-1.6-1.5-1.6a1.5 1.5 0 1 0 0 3Z"/><path fill="#98D5E5" d="M1593.4 220.9c.8 0 1.5-.7 1.5-1.6 0-.8-.7-1.5-1.5-1.5-.9 0-1.5.7-1.5 1.5 0 .9.6 1.6 1.5 1.6Z"/><path fill="#3195BC" d="M1397.8 253.3c.8 0 1.5-.7 1.5-1.5 0-.9-.7-1.5-1.5-1.5a1.5 1.5 0 1 0 0 3Z"/><path fill="#3195BC" d="M1397.8 253.3c.8 0 1.5-.7 1.5-1.5 0-.9-.7-1.5-1.5-1.5a1.5 1.5 0 1 0 0 3ZM1609.8 249c.8 0 1.5-.7 1.5-1.5 0-.9-.7-1.5-1.5-1.5-.9 0-1.6.6-1.6 1.5 0 .8.7 1.5 1.6 1.5ZM1619.5 230.2c.9 0 1.5-.6 1.5-1.5 0-.8-.6-1.5-1.5-1.5-.8 0-1.5.7-1.5 1.5 0 .9.7 1.5 1.5 1.5Z"/><path fill="#98D5E5" d="M1513 139.8c.8 0 1.5-.7 1.5-1.6 0-.8-.7-1.5-1.5-1.5s-1.5.7-1.5 1.5c0 .9.7 1.6 1.5 1.6ZM1676.1 94.1a1.5 1.5 0 1 0 0-3c-.8 0-1.5.7-1.5 1.5s.7 1.5 1.5 1.5ZM1622 15c1 0 1.6-.6 1.6-1.5 0-.8-.7-1.5-1.5-1.5a1.5 1.5 0 1 0 0 3ZM1609 18.6c.9 0 1.5-.7 1.5-1.5 0-.9-.6-1.6-1.5-1.6a1.5 1.5 0 1 0 0 3ZM1396.8 197.9c.9 0 1.6-.7 1.6-1.5 0-.9-.7-1.6-1.6-1.6a1.5 1.5 0 1 0 0 3Z"/><path fill="#3195BC" d="M1081.5 43.4c.9 0 1.6-.6 1.6-1.5 0-.8-.7-1.5-1.5-1.5a1.5 1.5 0 1 0 0 3Z"/><path fill="#fff" d="M1109.4 28.2c.8 0 1.5-.7 1.5-1.5s-.7-1.5-1.5-1.5c-.9 0-1.6.7-1.6 1.5s.7 1.5 1.6 1.5Z"/><path fill="#3195BC" d="M955.6 173.9c.8 0 1.5-.7 1.5-1.5 0-.9-.7-1.6-1.5-1.6-.9 0-1.6.7-1.6 1.6 0 .8.7 1.5 1.6 1.5ZM959.8 178.3c.9 0 1.6-.7 1.6-1.5 0-.9-.7-1.6-1.6-1.6-.8 0-1.5.7-1.5 1.6 0 .8.7 1.5 1.5 1.5Z"/><path fill="#98D5E5" d="M862 93.6c.9 0 1.6-.7 1.6-1.5s-.7-1.5-1.6-1.5c-.8 0-1.5.7-1.5 1.5s.7 1.5 1.5 1.5Z"/><path fill="#3195BC" d="M956.3 116.6c.8 0 1.5-.7 1.5-1.5 0-.9-.7-1.5-1.5-1.5-.9 0-1.6.6-1.6 1.5 0 .8.7 1.5 1.6 1.5Z"/><path fill="#98D5E5" d="M848.5 165.4c.9 0 1.6-.6 1.6-1.5 0-.8-.7-1.5-1.6-1.5-.8 0-1.5.7-1.5 1.5 0 .9.7 1.5 1.5 1.5Z"/><path fill="#3195BC" d="M871.3 159c.8 0 1.5-.7 1.5-1.5s-.7-1.5-1.5-1.5c-.9 0-1.6.7-1.6 1.5s.7 1.5 1.5 1.5ZM820.4 77.3c.8 0 1.5-.7 1.5-1.5s-.7-1.5-1.5-1.5c-.9 0-1.6.7-1.6 1.5s.7 1.5 1.6 1.5ZM835 94.3c.8 0 1.5-.7 1.5-1.5 0-.9-.7-1.5-1.5-1.5-.9 0-1.6.6-1.6 1.5 0 .8.7 1.5 1.6 1.5ZM730 160.2c.8 0 1.5-.7 1.5-1.5 0-.9-.7-1.5-1.5-1.5-.9 0-1.5.6-1.5 1.5 0 .8.6 1.5 1.5 1.5ZM768.7 117.6c.8 0 1.5-.7 1.5-1.5s-.7-1.5-1.5-1.5c-.9 0-1.6.7-1.6 1.5s.7 1.5 1.6 1.5ZM776.3 110c.9 0 1.6-.7 1.6-1.5s-.7-1.5-1.6-1.5c-.8 0-1.5.7-1.5 1.5s.7 1.5 1.5 1.5ZM803.7 153.6c.9 0 1.6-.7 1.6-1.5 0-.9-.7-1.5-1.6-1.5-.8 0-1.5.6-1.5 1.5 0 .8.7 1.5 1.5 1.5ZM703.9 70c.8 0 1.5-.7 1.5-1.6 0-.8-.7-1.5-1.5-1.5-.9 0-1.6.7-1.6 1.5 0 .9.7 1.6 1.6 1.6ZM489 136.4c.9 0 1.6-.7 1.6-1.5 0-.9-.7-1.6-1.5-1.6-.9 0-1.6.7-1.6 1.6 0 .8.7 1.5 1.6 1.5ZM515.7 116c.8 0 1.5-.6 1.5-1.4 0-.9-.7-1.5-1.5-1.5-.9 0-1.6.6-1.6 1.5 0 .8.7 1.5 1.6 1.5ZM519.8 129.3c.8 0 1.5-.7 1.5-1.5 0-.9-.7-1.6-1.5-1.6-.9 0-1.6.7-1.6 1.6 0 .8.7 1.5 1.6 1.5ZM406 131.3c1 0 1.6-.7 1.6-1.5 0-.9-.7-1.5-1.5-1.5-.9 0-1.5.6-1.5 1.5 0 .8.6 1.5 1.5 1.5Z"/><path fill="#98D5E5" d="M367.7 412.3c.8 0 1.5-.7 1.5-1.5s-.7-1.5-1.5-1.5c-.9 0-1.6.7-1.6 1.5s.7 1.5 1.6 1.5Z"/><path fill="#D6262C" d="M447 338.1c1 0 1.6-.6 1.6-1.5 0-.8-.7-1.5-1.5-1.5-.9 0-1.6.7-1.6 1.5 0 .9.7 1.5 1.6 1.5Z"/><path fill="#3195BC" d="M418 339.5c.8 0 1.5-.6 1.5-1.5 0-.8-.7-1.5-1.5-1.5s-1.5.7-1.5 1.5c0 .9.7 1.5 1.5 1.5ZM363 282.9c1 0 1.6-.7 1.6-1.5 0-.9-.7-1.6-1.5-1.6-.9 0-1.6.7-1.6 1.6 0 .8.7 1.5 1.6 1.5ZM364.3 352.5c.8 0 1.5-.7 1.5-1.5 0-.9-.7-1.5-1.5-1.5-.9 0-1.6.6-1.6 1.5 0 .8.7 1.5 1.6 1.5ZM303.7 308.7c.8 0 1.5-.6 1.5-1.5 0-.8-.7-1.5-1.5-1.5-.9 0-1.6.7-1.6 1.5 0 .9.7 1.5 1.6 1.5ZM257 302.7c1 0 1.6-.7 1.6-1.6 0-.8-.7-1.5-1.5-1.5-.9 0-1.6.7-1.6 1.5 0 .9.7 1.6 1.6 1.6Z"/><path fill="#98D5E5" d="M274 243.8c.8 0 1.5-.6 1.5-1.5 0-.8-.7-1.5-1.5-1.5-.9 0-1.6.7-1.6 1.5 0 .9.7 1.5 1.6 1.5Z"/><path fill="#3195BC" d="M220.7 358.4c.9 0 1.6-.7 1.6-1.5s-.7-1.5-1.6-1.5c-.8 0-1.5.7-1.5 1.5s.7 1.5 1.5 1.5ZM293.4 381.7c.9 0 1.6-.6 1.6-1.5 0-.8-.7-1.5-1.6-1.5-.8 0-1.5.7-1.5 1.5 0 .9.7 1.5 1.5 1.5ZM260.7 397c.8 0 1.5-.7 1.5-1.6 0-.8-.7-1.5-1.5-1.5-.9 0-1.6.7-1.6 1.5 0 .9.7 1.5 1.6 1.5ZM394.8 468c.9 0 1.6-.8 1.6-1.6s-.7-1.5-1.6-1.5c-.8 0-1.5.7-1.5 1.5s.7 1.5 1.5 1.5ZM97.8 461.8c.9 0 1.5-.6 1.5-1.5 0-.8-.6-1.5-1.5-1.5-.8 0-1.5.7-1.5 1.5 0 .9.7 1.5 1.5 1.5ZM63 434.5c.8 0 1.5-.7 1.5-1.6 0-.8-.7-1.5-1.5-1.5-.9 0-1.5.7-1.5 1.5 0 .9.6 1.6 1.5 1.6ZM93.7 430.4c.9 0 1.6-.7 1.6-1.5 0-.9-.7-1.5-1.6-1.5-.8 0-1.5.6-1.5 1.5 0 .8.7 1.5 1.5 1.5ZM149 281.4c.9 0 1.6-.7 1.6-1.6 0-.8-.7-1.5-1.6-1.5-.8 0-1.5.7-1.5 1.5 0 .9.7 1.6 1.5 1.6ZM55.8 307.7c.9 0 1.6-.7 1.6-1.5s-.7-1.5-1.6-1.5c-.8 0-1.5.7-1.5 1.5s.7 1.5 1.5 1.5ZM50.7 334c.8 0 1.5-.6 1.5-1.4 0-.9-.7-1.6-1.5-1.6-.9 0-1.5.7-1.5 1.6 0 .8.6 1.5 1.5 1.5ZM165.9 573c.8 0 1.5-.8 1.5-1.6 0-.9-.7-1.5-1.5-1.5-.9 0-1.6.6-1.6 1.5 0 .8.7 1.5 1.6 1.5ZM208.9 591.2c.8 0 1.5-.7 1.5-1.6 0-.8-.7-1.5-1.5-1.5-.9 0-1.6.7-1.6 1.5 0 .9.7 1.6 1.6 1.6Z"/><path fill="#fff" d="M202.7 669.2c.9 0 1.6-.7 1.6-1.5s-.7-1.5-1.6-1.5c-.8 0-1.5.7-1.5 1.5s.7 1.5 1.5 1.5Z"/><path fill="#98D5E5" d="M134.1 677.3c.9 0 1.5-.6 1.5-1.5 0-.8-.6-1.5-1.5-1.5-.8 0-1.5.7-1.5 1.5 0 .9.7 1.5 1.5 1.5Z"/><path fill="#3195BC" d="M146.4 682.4c.8 0 1.5-.7 1.5-1.5 0-.9-.7-1.5-1.5-1.5-.9 0-1.5.6-1.5 1.5 0 .8.6 1.5 1.5 1.5ZM35.3 515.6c.9 0 1.6-.7 1.6-1.5 0-.9-.7-1.6-1.6-1.6-.8 0-1.5.7-1.5 1.6 0 .8.7 1.5 1.5 1.5Z"/><path fill="#98D5E5" d="M1.5 551c.9 0 1.6-.6 1.6-1.5 0-.8-.7-1.5-1.6-1.5-.8 0-1.5.7-1.5 1.5 0 .9.7 1.6 1.5 1.6Z"/><path fill="#3195BC" d="M21 560.2c.8 0 1.5-.7 1.5-1.5 0-.9-.7-1.6-1.5-1.6-.9 0-1.5.7-1.5 1.6 0 .8.6 1.5 1.5 1.5ZM45.6 587.6c.8 0 1.5-.7 1.5-1.6 0-.8-.7-1.5-1.5-1.5-.9 0-1.6.7-1.6 1.5 0 .9.7 1.6 1.6 1.6ZM24 626c1 0 1.6-.6 1.6-1.4 0-.9-.7-1.6-1.5-1.6-.9 0-1.6.7-1.6 1.6 0 .8.7 1.5 1.6 1.5ZM112.2 663.6c.8 0 1.5-.7 1.5-1.5 0-.9-.7-1.5-1.5-1.5-.9 0-1.6.6-1.6 1.5 0 .8.7 1.5 1.6 1.5ZM106.5 679.3c.9 0 1.6-.7 1.6-1.5s-.7-1.5-1.6-1.5c-.8 0-1.5.7-1.5 1.5s.7 1.5 1.5 1.5Z"/><path fill="#fff" d="M172.5 831c.9 0 1.5-.7 1.5-1.6 0-.8-.6-1.5-1.5-1.5-.8 0-1.5.7-1.5 1.5 0 .9.7 1.5 1.5 1.5Z"/><path fill="#D6262C" d="M158.2 796.5c.8 0 1.5-.7 1.5-1.5 0-.9-.7-1.6-1.5-1.6-.9 0-1.6.7-1.6 1.6 0 .8.7 1.5 1.6 1.5Z"/><path fill="#3195BC" d="M35.3 773.2c.8 0 1.5-.7 1.5-1.6 0-.8-.7-1.5-1.5-1.5-.9 0-1.6.7-1.6 1.5 0 .9.7 1.6 1.6 1.6ZM191 726.5c.8 0 1.5-.7 1.5-1.5s-.7-1.5-1.6-1.5c-.8 0-1.5.7-1.5 1.5s.7 1.5 1.5 1.5ZM3.5 672.8c.9 0 1.6-.7 1.6-1.5 0-.9-.7-1.6-1.6-1.6-.8 0-1.5.7-1.5 1.6 0 .8.7 1.5 1.5 1.5ZM534.1 471c.9 0 1.6-.7 1.6-1.6 0-.8-.7-1.5-1.6-1.5-.8 0-1.5.7-1.5 1.5 0 .9.7 1.6 1.5 1.6Z"/><path fill="#D6262C" d="M388.7 537.9c.8 0 1.5-.7 1.5-1.5 0-.9-.7-1.6-1.5-1.6-.9 0-1.6.7-1.6 1.6 0 .8.7 1.5 1.6 1.5Z"/><path fill="#3195BC" d="M417.4 500.4c.8 0 1.5-.7 1.5-1.6 0-.8-.7-1.5-1.5-1.5-.9 0-1.6.7-1.6 1.5 0 .9.7 1.6 1.6 1.6ZM523.9 583.5c.8 0 1.5-.7 1.5-1.5 0-.9-.7-1.5-1.5-1.5-.9 0-1.6.6-1.6 1.5 0 .8.7 1.5 1.6 1.5ZM599.7 578.4c.8 0 1.5-.6 1.5-1.5 0-.8-.7-1.5-1.5-1.5-.9 0-1.6.7-1.6 1.5 0 .9.7 1.5 1.6 1.5ZM591.5 599.7c.8 0 1.5-.7 1.5-1.5s-.7-1.5-1.5-1.5c-.9 0-1.6.7-1.6 1.5s.7 1.5 1.6 1.5ZM496.2 684.9c.9 0 1.6-.7 1.6-1.5 0-.9-.7-1.5-1.6-1.5-.8 0-1.5.6-1.5 1.5 0 .8.7 1.5 1.5 1.5Z"/><path fill="#fff" d="M391.8 639.3c.8 0 1.5-.7 1.5-1.6 0-.8-.7-1.5-1.5-1.5-.9 0-1.6.7-1.6 1.5 0 .9.7 1.6 1.6 1.6Z"/><path fill="#3195BC" d="M436.8 614c.9 0 1.6-.8 1.6-1.6s-.7-1.5-1.6-1.5c-.8 0-1.5.7-1.5 1.5s.7 1.5 1.5 1.5ZM307.8 617c.8 0 1.5-.7 1.5-1.6 0-.8-.7-1.5-1.5-1.5-.9 0-1.6.7-1.6 1.5 0 .9.7 1.6 1.6 1.6ZM295.5 600.7c.8 0 1.5-.6 1.5-1.5 0-.8-.7-1.5-1.5-1.5-.9 0-1.6.7-1.6 1.5 0 .9.7 1.5 1.6 1.5ZM321 687c1 0 1.6-.8 1.6-1.6s-.7-1.5-1.5-1.5c-.9 0-1.6.7-1.6 1.5s.7 1.5 1.6 1.5ZM426.6 735.6c.8 0 1.5-.7 1.5-1.5 0-.9-.7-1.6-1.5-1.6-.9 0-1.6.7-1.6 1.6 0 .8.7 1.5 1.6 1.5Z"/><path fill="#D6262C" d="M442 732.5c.8 0 1.5-.6 1.5-1.5 0-.8-.7-1.5-1.6-1.5-.8 0-1.5.7-1.5 1.5 0 .9.7 1.5 1.5 1.5Z"/><path fill="#3195BC" d="M554.6 816.7c.9 0 1.5-.7 1.5-1.5 0-.9-.6-1.5-1.5-1.5-.8 0-1.5.6-1.5 1.5 0 .8.7 1.5 1.5 1.5ZM575.6 757.4c.8 0 1.5-.7 1.5-1.5 0-.9-.7-1.6-1.5-1.6-.9 0-1.5.7-1.5 1.6 0 .8.6 1.5 1.5 1.5ZM592 779.7c.8 0 1.5-.7 1.5-1.5 0-.9-.7-1.5-1.5-1.5-.9 0-1.6.6-1.6 1.5 0 .8.7 1.5 1.6 1.5ZM388.2 803c.8 0 1.5-.7 1.5-1.5s-.7-1.5-1.5-1.5c-.9 0-1.6.7-1.6 1.5s.7 1.5 1.6 1.5ZM230 746.2c.8 0 1.5-.6 1.5-1.5 0-.8-.7-1.5-1.6-1.5-.8 0-1.5.7-1.5 1.5 0 .9.7 1.5 1.5 1.5Z"/><path fill="#fff" d="M303.7 762.5c.8 0 1.5-.7 1.5-1.6 0-.8-.7-1.5-1.5-1.5-.9 0-1.6.7-1.6 1.5 0 .9.7 1.6 1.6 1.6Z"/><path fill="#3195BC" d="M287.3 742.2c.8 0 1.5-.7 1.5-1.5 0-.9-.7-1.6-1.5-1.6-.9 0-1.5.7-1.5 1.6 0 .8.6 1.5 1.5 1.5Z"/><path fill="#98D5E5" d="M198.2 716.3c.8 0 1.5-.7 1.5-1.5s-.7-1.5-1.5-1.5c-.9 0-1.6.7-1.6 1.5s.7 1.5 1.6 1.5Z"/><path fill="url(#a)" d="M309 474a8 8 0 1 0 0-16 8 8 0 0 0 0 16Z" opacity=".7"/><path fill="#3195BC" d="M309 467a1 1 0 1 0 0-2 1 1 0 0 0 0 2Z"/><path fill="url(#b)" d="M1545 110a9 9 0 1 0 0-18 9 9 0 0 0 0 18Z" opacity=".7"/><path fill="#3195BC" d="M1545 102.1c.6 0 1.1-.5 1.1-1.1a1.1 1.1 0 1 0-2.2 0c0 .6.5 1.1 1.1 1.1Z"/><path fill="url(#c)" d="M559 104a8 8 0 1 0 0-16 8 8 0 0 0 0 16Z" opacity=".7"/><path fill="#3195BC" d="M559 97a1 1 0 1 0 0-2 1 1 0 0 0 0 2Z"/><path fill="url(#d)" d="M1386 462a10 10 0 1 0 0-20 10 10 0 0 0 0 20Z" opacity=".7"/><path fill="#3195BC" d="M1386 453.3a1.3 1.3 0 1 0 0-2.6 1.3 1.3 0 0 0 0 2.6Z"/><path fill="url(#e)" d="M1045 758c4.4 0 8-2.7 8-6s-3.6-6-8-6-8 2.7-8 6 3.6 6 8 6Z" opacity=".7"/><path fill="#fff" d="M1045 752.8c.5 0 1-.4 1-.8s-.5-.8-1-.8-1 .4-1 .8.5.8 1 .8Z"/><path fill="url(#f)" d="M538 438a7 7 0 1 0 0-14 7 7 0 0 0 0 14Z" opacity=".7"/><path fill="#fff" d="M538 431.9c.5 0 .9-.4.9-.9s-.4-.9-1-.9c-.4 0-.8.4-.8.9s.4.9.9.9Z"/><path fill="url(#g)" d="M411 324a10 10 0 1 0 0-20 10 10 0 0 0 0 20Z" opacity=".7"/><path fill="#fff" d="M411 315.3c.7 0 1.2-.6 1.2-1.3 0-.7-.5-1.3-1.2-1.3s-1.3.6-1.3 1.3c0 .7.6 1.3 1.3 1.3Z"/><path fill="url(#h)" d="M1040 31a8 8 0 1 0 0-16 8 8 0 0 0 0 16Z" opacity=".7"/><path fill="#fff" d="M1040 24c.5 0 1-.4 1-1s-.5-1-1-1a1 1 0 0 0-1 1c0 .6.4 1 1 1Z"/><path fill="#98D5E5" d="M305.7 326c.9 0 1.6-.7 1.6-1.5 0-.9-.7-1.6-1.6-1.6-.8 0-1.5.7-1.5 1.6 0 .8.7 1.5 1.5 1.5Z"/><path fill="#3195BC" d="M169.5 387.8c.9 0 1.5-.7 1.5-1.5s-.6-1.5-1.5-1.5c-.8 0-1.5.7-1.5 1.5s.7 1.5 1.5 1.5ZM910 132.3c.8 0 1.5-.7 1.5-1.5s-.7-1.5-1.5-1.5c-.9 0-1.5.7-1.5 1.5s.6 1.5 1.5 1.5ZM924.3 45.9c.9 0 1.6-.7 1.6-1.5 0-.9-.7-1.6-1.6-1.6-.8 0-1.5.7-1.5 1.6 0 .8.7 1.5 1.5 1.5Z"/></g><defs><radialGradient id="a" cx="0" cy="0" r="1" gradientTransform="matrix(0 8 -8 0 309 466)" gradientUnits="userSpaceOnUse"><stop stop-color="#3195BC"/><stop offset=".9" stop-color="#3195BC" stop-opacity="0"/></radialGradient><radialGradient id="b" cx="0" cy="0" r="1" gradientTransform="matrix(0 9 -9 0 1545 101)" gradientUnits="userSpaceOnUse"><stop stop-color="#3195BC"/><stop offset=".9" stop-color="#3195BC" stop-opacity="0"/></radialGradient><radialGradient id="c" cx="0" cy="0" r="1" gradientTransform="matrix(0 8 -8 0 559 96)" gradientUnits="userSpaceOnUse"><stop stop-color="#3195BC"/><stop offset=".9" stop-color="#3195BC" stop-opacity="0"/></radialGradient><radialGradient id="d" cx="0" cy="0" r="1" gradientTransform="matrix(0 10 -10 0 1386 452)" gradientUnits="userSpaceOnUse"><stop stop-color="#3195BC"/><stop offset=".9" stop-color="#3195BC" stop-opacity="0"/></radialGradient><radialGradient id="e" cx="0" cy="0" r="1" gradientTransform="matrix(0 6 -8 0 1045 752)" gradientUnits="userSpaceOnUse"><stop stop-color="#fff"/><stop offset=".9" stop-color="#fff" stop-opacity="0"/></radialGradient><radialGradient id="f" cx="0" cy="0" r="1" gradientTransform="matrix(0 7 -7 0 538 431)" gradientUnits="userSpaceOnUse"><stop stop-color="#fff"/><stop offset=".8" stop-color="#fff" stop-opacity="0"/></radialGradient><radialGradient id="g" cx="0" cy="0" r="1" gradientTransform="matrix(0 10 -10 0 411 314)" gradientUnits="userSpaceOnUse"><stop stop-color="#fff"/><stop offset=".8" stop-color="#fff" stop-opacity="0"/></radialGradient><radialGradient id="h" cx="0" cy="0" r="1" gradientTransform="matrix(0 8 -8 0 1040 23)" gradientUnits="userSpaceOnUse"><stop stop-color="#fff"/><stop offset=".8" stop-color="#fff" stop-opacity="0"/></radialGradient></defs></svg>
