<svg xmlns="http://www.w3.org/2000/svg" width="29" height="29" viewBox="0 0 29 29"><path d="M1.4 21h26.2c.4 0 .7-.3.7-.7V1.4c0-.4-.3-.7-.7-.7H1.4c-.4 0-.7.3-.7.7v19c0 .3.3.6.7.6z" fill="#fff"/><path d="M1.4 21h26.2c.4 0 .7-.3.7-.7V4.1c0-.4-.3-.7-.7-.7H1.4c-.4 0-.7.3-.7.7v16.2c0 .4.3.7.7.7z" fill="#d5eef7"/><path d="M1.2 4.6h26.4V6H1.2z" fill="#53bce6"/><path d="M27.6 21.7H1.4c-.8 0-1.4-.6-1.4-1.4V1.4C0 .6.6 0 1.4 0h26.2c.8 0 1.4.6 1.4 1.4v18.9c0 .8-.6 1.4-1.4 1.4zM1.4 1.4v18.9h26.2V1.4H1.4z" fill="#53bce6"/><g><path d="M25.6 25.3l-3.9-3.9 2.8-1.6c.2-.1.3-.4.3-.6 0-.2-.2-.5-.4-.6l-12.3-4.9c-.2-.1-.5 0-.7.1-.2.2-.2.5-.1.7l4.9 12.3c.1.2.3.4.6.4.2 0 .5-.1.6-.3l1.6-2.8 3.9 3.9.5.2.5-.2 1.9-1.9c.1-.1.1-.5-.2-.8zm0 0" fill="#d5eef7"/><path d="M26.1 25.7l-4.6-4.9-.8.5c-.4.2-.4.8-.1 1.1l4.3 4.4 1.2-1.1zM11.2 15.3c.2-.2.5-.3.7-.2L24.3 20l.2.2.2-.5c0-.2-.2-.5-.4-.6L12 14.2c-.2-.1-.5 0-.7.1-.2.2-.2.5-.1.7v.3z" fill="#fff"/><path d="M7.9 9.6c-.3-.2-.7-.2-.9 0-.3.3-.3.7 0 .9L8.4 12l.5.2.5-.2c.3-.3.3-.7 0-.9L7.9 9.6zm0 0M8.4 14.1c0-.4-.3-.7-.7-.7h-2c-.4 0-.7.3-.7.7 0 .4.3.7.7.7h2c.4 0 .7-.3.7-.7zm0 0M8.1 16.1l-1.4 1.4c-.3.3-.3.7 0 .9l.5.2.5-.2L9 17c.3-.3.3-.7 0-.9-.2-.2-.6-.2-.9 0zm0 0M11.5 11c.4 0 .7-.3.7-.7v-2c0-.4-.3-.7-.7-.7-.4 0-.7.3-.7.7v2c0 .4.3.7.7.7zm0 0M13.9 11.9l.5-.2 1.4-1.4c.3-.3.3-.7 0-.9-.3-.3-.7-.3-.9 0l-1.4 1.4c-.3.3-.3.7 0 .9l.4.2zm0 0" fill="#53bce6"/><g><path d="M23.3 29c-.4 0-.7-.1-.9-.4l-3.3-3.3-1.2 2c-.3.4-.7.7-1.2.7s-1-.4-1.1-.8l-4.9-12.3c-.2-.5-.1-1.1.3-1.4.4-.4.9-.5 1.4-.3l12.3 4.9c.5.2.8.6.8 1.1 0 .5-.2 1-.7 1.2l-2 1.2 3.3 3.3c.2.2.4.6.4.9 0 .4-.1.7-.4.9l-1.9 1.9c-.2.3-.6.4-.9.4zm-4.4-5.4l.5.2 3.9 3.9 1.9-1.9-3.9-3.8a1 1 0 01-.2-.6c0-.2.1-.4.3-.5l2.8-1.6-12.3-4.9 4.9 12.3 1.6-2.8c.1-.2.3-.3.5-.3z" fill="#53bce6"/></g></g></svg>