<svg width="76" height="76" fill="none" xmlns="http://www.w3.org/2000/svg"><rect x="4" y="4" width="72" height="72" rx="8" fill="#1F9ECF"/><rect width="72" height="72" rx="8" fill="#fff"/><g clip-path="url(#prefix__clip0_915_1899)" fill="#39B6E8"><path d="M35.38 16c-.29 0-.61.02-.93.04.35-.03.67-.04.94-.05l-.01.01z"/><path fill-rule="evenodd" clip-rule="evenodd" d="M39.98 53.82c2.16-2.08 5.3-5.27 8.06-8.69l.46-.57c.81-1.02 2.49-3.24 3.68-5.33.6-1.05 1-1.94 1.2-2.65.04-.13.05-.28.05-.44l-.22-17.5c0-.19-.14-.35-.32-.38-2.87-.51-12.59-2.18-16.82-2.26-2.64-.05-7.42.65-10.97 1.24-2.16.36-4.42.78-5.57 1-.18.04-.31.19-.32.38L19 35.86c0 .21.03.42.1.6 2.2 5.86 9.31 13.28 13.35 17.18.93.89 1.71 1.82 2.24 2.3.16.15.41.03.41-.19V52.5c0-4.07-.02-10.55-.02-16.95v-.51l.41.3c.31.23.61.45.89.68.31.24.6.48.89.72l.09.08-.02 18.92c0 .22.25.34.41.19.52-.48 1.3-1.2 2.23-2.1v-.01zm4.3-8.21a94.582 94.582 0 01-3.92 4.22l-.44.45V39.16l.45.47c1.8 1.91 3.13 3.83 3.95 5.7l.07.15-.11.12v.01zm5.1-6.78c-.67 1.11-1.5 2.31-2.48 3.59l-.27.35-.17-.41c-.92-2.2-3.09-4.67-6.44-7.34l-.1-.08v-7.37l.41.28c5.16 3.55 8.21 7.18 9.08 10.79l.03.1-.06.09zm-18.86-19.8c2.45-.32 4.31-.47 5.5-.45 2.42.05 6.85.67 10.16 1.18 1.61.25 3.1.5 4.27.7l.21.04.19 14.64-.49-.85c-.28-.48-.6-.97-.94-1.45-2.32-3.23-6.13-6.39-11.32-9.41-2.3-1.34-4.87-2.65-7.65-3.9l-.83-.37.9-.12v-.01zm-8.76 1.45l.21-.04c.82-.14 1.78-.3 2.83-.48h.07l.07.01c2.6 1.03 5.1 2.13 7.43 3.28l.14.07v6.54l-.39-.23c-3.91-2.35-7.73-4.3-10.25-5.52l-.15-.07.05-3.57-.01.01zm10.32 29.18c-.6-.61-1.23-1.26-1.86-1.94-3.09-3.31-7.1-8.07-8.63-11.94l-.02-.05.1-8.19.36.18c2.82 1.38 6.9 3.47 10.34 5.58l.12.08v16.74l-.43-.45.02-.01zm4.87-16.91c-.58-.4-1.17-.8-1.77-1.19l-.12-.08v-6.82l.38.21c.6.33 1.19.67 1.78 1.02l.13.07v7.07l-.41-.28h.01z"/></g><defs><clipPath id="prefix__clip0_915_1899"><path fill="#fff" transform="translate(19 16)" d="M0 0h34.43v40H0z"/></clipPath></defs></svg>