<svg xmlns="http://www.w3.org/2000/svg" width="77" height="28" fill="none" viewBox="0 0 77 28"><path fill="#00A17E" d="M75.26 16.63c-1.37 2.76-3.9 5.22-7.9 7.88-.95.63-2.17.63-3.12 0-6.57-4.36-9.18-8.2-9.18-13.71V7.35a25.02 25.02 0 0 1 20.19 9.28h.01Z"/><path fill="#00A17E" d="M76.54 1.11v9.69a14 14 0 0 1-.29 2.95A25.01 25.01 0 0 0 55.06 3.16V1.11c0-.61.5-1.11 1.11-1.11h19.25c.61 0 1.11.5 1.11 1.11h.01Z"/><path fill="#375656" d="M75.26 16.63c-1.37 2.76-3.9 5.22-7.9 7.88-.95.63-2.17.63-3.12 0-6.57-4.36-9.18-8.2-9.18-13.71V7.35a25.02 25.02 0 0 1 20.19 9.28h.01Z"/><path fill="#375656" d="M75.26 16.63c-1.37 2.76-3.9 5.22-7.9 7.88-.95.63-2.17.63-3.12 0-6.57-4.36-9.18-8.2-9.18-13.71V7.35a25.02 25.02 0 0 1 20.19 9.28h.01Z"/><path fill="#0A0A0A" d="M17.86 21.33 15 11.55l-2.83 9.78h-7.1L0 3.84h6.7l2.32 9.64 3.08-9.64h5.83l3.04 9.64 2.32-9.64h6.74l-5.07 17.5h-7.1v-.01ZM37.93 28h-6.52V3.84h6.52v1.85a6.15 6.15 0 0 1 4.93-2.28c4.35 0 7.68 3.19 7.68 9.17s-3.33 9.2-7.68 9.2a6.23 6.23 0 0 1-4.93-2.28v8.51V28Zm2.68-18.84c-.83 0-2.06.43-2.68 1.2v4.46c.58.72 1.85 1.2 2.68 1.2 1.74 0 3.26-1.23 3.26-3.44s-1.52-3.41-3.26-3.41v-.01Z"/><path fill="#0A0A0A" d="M39.92 26.95h-.26v.65h-.12v-.65h-.26v-.09h.65v.09h-.01Zm1.07.65h-.12v-.61l-.32.61h-.03l-.32-.61v.61h-.12v-.74h.18l.27.54.27-.54h.18v.74h.01Z"/></svg>
